<svg width="26" height="26" viewBox="0 0 26 26" fill="none" xmlns="http://www.w3.org/2000/svg">
<g clip-path="url(#clip0_609_5750)">
<rect width="26" height="26" rx="13" fill="url(#paint0_linear_609_5750)" style=""/>
<path d="M26 25.8234C25.9761 25.7744 25.908 25.8295 25.8865 25.7769C25.8528 25.6946 25.9472 25.7285 25.9547 25.7205V25.6529L25.8637 25.6981C25.8587 25.6422 25.9203 25.5715 25.8982 25.5178C25.8667 25.4421 25.7036 25.425 25.7632 25.245L25.6809 25.2232C25.7485 25.1412 25.6901 25.0693 25.6788 24.9768L25.5896 24.9747L25.6032 24.8832L25.453 24.8389L25.464 24.7945L25.5441 24.7489L25.4303 24.681L25.5668 24.6812C25.4864 24.6721 25.1766 24.4816 25.3389 24.4211C25.2251 24.3629 25.2319 24.2293 25.111 24.1722L25.1794 24.1383L25.1333 24.0483L25.0654 24.1159L25.0651 23.9353L24.9744 24.0027C24.9142 23.8757 24.8708 23.704 24.7006 23.7318V23.6187L24.7686 23.6412L24.7447 23.507L24.6546 23.5054L24.6776 23.4606L24.5217 23.4568L24.4932 23.3829L24.5404 23.3249C24.5151 23.3321 24.4421 23.3397 24.4306 23.353C24.4036 23.384 24.4708 23.4429 24.361 23.39C24.346 23.2057 24.4271 23.3314 24.4602 23.3251L24.495 23.2572C24.3698 23.2956 24.3351 23.1316 24.2555 23.1434C24.1249 23.3338 24.1318 22.9403 23.9989 22.9574C23.9845 22.9416 24.0085 22.8691 23.9125 22.8826C23.8919 22.8856 23.8655 22.9282 23.8566 22.9179L23.8793 22.8278L23.7424 22.8047L23.7538 22.715L23.7083 22.7822L23.6737 22.692L23.6281 22.7372L23.5829 22.7029C23.5737 22.6086 23.7608 22.6635 23.7424 22.5906L23.5939 22.4887L23.5579 22.5534L23.4687 22.5561L23.4926 22.5015L23.445 22.4555L23.4894 22.3098L23.4005 22.2853L23.4233 22.3528L23.2635 22.398C23.2663 22.3372 23.334 22.3202 23.2878 22.2549L23.1295 22.2132L23.1261 22.1502L22.9899 22.1497L22.9786 22.2397L22.9194 22.1055L22.8663 22.1275L22.842 22.0815L22.7501 22.1445C22.6871 22.1231 22.552 21.9149 22.4881 21.9689L22.5108 22.0485L22.4195 22.0364L22.4425 21.9463L22.3513 21.9119L22.3967 21.8781L22.3627 21.8337L22.2922 21.8784L22.3057 21.9459L22.2406 21.9492L22.2369 22.014C22.1842 21.9711 22.1658 21.9658 22.1004 21.9912L22.1687 21.8559L22.1132 21.8992L22.032 21.8671L22.1223 21.8319L22.1232 21.7654L21.9864 21.7427L21.9436 21.8271C21.9644 21.7746 21.8792 21.6293 21.8266 21.6752C21.8632 21.7023 21.8894 21.8411 21.804 21.8332L21.8032 21.6984C21.7177 21.6837 21.6852 21.6092 21.5759 21.6749L21.5983 21.5619L21.5075 21.5846C21.5133 21.4992 21.4731 21.4888 21.394 21.4927L21.3813 21.4262L21.2795 21.4491C21.2508 21.2492 21.1824 21.438 21.1656 21.4261C21.1759 21.3624 21.1099 21.3889 21.0757 21.3689C21.0215 21.3374 21.022 21.274 20.9371 21.3131L20.9509 21.2445C20.8988 21.2469 20.8697 21.1848 20.8645 21.183C20.8486 21.1773 20.8241 21.2056 20.8043 21.1973C20.7874 21.1901 20.7504 21.0671 20.6408 21.1776C20.684 20.9874 20.4149 21.07 20.3885 21.054C20.3712 21.0435 20.3642 20.9971 20.3439 20.9841C20.3239 20.9715 20.2128 21.0074 20.173 20.9065L20.1392 20.9514C20.1405 20.8518 19.9828 20.8529 19.9613 20.8336C19.9531 20.7074 19.8376 20.777 19.8168 20.6607L19.6827 20.7029C19.7299 20.5931 19.6143 20.5455 19.5254 20.524L19.4888 20.5896C19.4277 20.5409 19.4024 20.407 19.3741 20.3646C19.3384 20.3107 19.2384 20.3518 19.2723 20.2282C19.178 20.265 19.1553 20.1877 19.1415 20.1824C19.0729 20.1564 18.9824 20.1898 19.0113 20.0686L18.9298 20.0473L18.9527 19.9573C18.8079 19.9821 18.8596 19.9304 18.8258 19.8921C18.776 19.8539 18.7481 19.8451 18.7443 19.7797C18.7417 19.7762 18.6699 19.793 18.6565 19.7762C18.6159 19.7249 18.7338 19.7428 18.702 19.686H18.6335L18.702 19.5506C18.5881 19.5632 18.6163 19.4414 18.5461 19.3806L18.6107 19.3019L18.4739 19.3241L18.5188 19.2349C18.4201 19.2311 18.4694 19.1424 18.4458 19.1031C18.3133 19.0752 18.4258 18.8161 18.4061 18.7519C18.4032 18.7369 18.3692 18.7401 18.3613 18.7197C18.3135 18.5953 18.3913 18.2581 18.3581 18.1894C18.3381 18.1479 18.2804 17.9198 18.2782 17.8661C18.3904 17.5987 18.3273 17.2894 18.3596 16.9847C18.3944 16.3932 18.5037 15.8236 18.4298 15.2464C18.4328 15.1699 18.5074 15.092 18.5129 15.0385C18.5192 14.978 18.4702 14.8213 18.4794 14.7728C18.4849 14.7436 18.5436 14.7113 18.5563 14.6687C18.5613 14.6521 18.6086 14.3763 18.6087 14.3605C18.6091 14.2793 18.5538 14.152 18.5653 14.0488C18.6116 13.9006 18.6759 13.9714 18.5877 13.8207C18.5873 13.7875 18.6405 13.7585 18.6348 13.7088C18.5459 13.6879 18.591 13.4431 18.68 13.3699C18.6015 13.2208 18.6522 13.0453 18.645 12.8827C18.711 12.7466 19.1072 12.844 19.2378 12.8395C19.3441 12.8357 19.5115 12.7801 19.6058 12.7768C19.7969 12.7701 19.9875 12.8125 20.195 12.7914C20.7179 12.7413 21.2567 12.6617 21.7932 12.6438C21.8614 12.6398 21.9448 12.5779 22.0005 12.5734C22.3542 12.6176 22.2304 12.6276 22.5731 12.4812C22.6986 12.4705 22.764 12.4839 22.837 12.3699C23.2285 12.202 23.2828 12.2977 23.4663 11.8338L23.5373 11.8203L23.468 11.6951C23.4619 11.6521 23.5407 11.6686 23.5142 11.5946L23.4496 11.5908L23.4458 11.5266L23.3777 11.5493L23.4457 11.4705L23.3429 11.3461L23.2407 11.4362L23.2618 11.3489C23.1763 11.3285 23.1428 11.1655 23.0695 11.3015L22.967 11.2553L22.9557 11.3232C22.8903 11.2677 22.8933 11.161 22.7844 11.1653L22.83 11.2552L22.739 11.278C22.7239 11.2622 22.7715 11.1752 22.7051 11.1881C22.615 11.2057 22.681 11.2907 22.6021 11.2779L22.6478 11.1544L22.5905 11.1191L22.5111 11.165L22.4994 11.0524C22.4476 11.1678 22.4079 11.1874 22.2828 11.1875L22.3055 11.0522C22.2314 11.095 22.1643 11.0519 22.1103 11.0543C22.076 11.0557 22.0478 11.0974 21.997 11.0998C21.9553 11.1018 21.9676 11.0562 21.9482 11.0518C21.8802 11.0367 21.8303 11.0788 21.77 11.0974L21.7582 11.007C21.6782 10.993 21.5939 11.0471 21.5209 11.0066C21.4951 11.008 21.4976 11.0943 21.439 11.0745C21.4575 10.9746 21.3576 10.8948 21.3703 11.0294L21.2693 11.0056L21.2108 11.0519L21.2334 10.9736L21.211 10.9497C21.0954 10.9608 21.0963 10.8441 20.9447 10.935C20.9022 10.9395 20.8202 10.8287 20.789 10.9389C20.7441 10.8657 20.7211 10.9305 20.6979 10.9309C20.6536 10.9317 20.5425 10.774 20.4807 10.9841L20.4237 10.9162L20.333 10.984L20.3188 10.9189L20.1845 10.9163L20.2072 10.8262C20.1462 10.8045 20.1702 10.8661 20.1473 10.8717C20.0497 10.8958 20.0622 10.8096 20.0358 10.8031L19.9451 10.8495C19.9109 10.7789 19.7619 10.75 19.7397 10.8483L19.6599 10.8036C19.6529 10.8109 19.7214 10.9261 19.6143 10.9163L19.637 10.8262C19.5444 10.8622 19.4762 10.7571 19.4664 10.758C19.4112 10.7636 19.4195 10.847 19.3635 10.8261L19.3517 10.7579L19.2038 10.8261L19.2026 10.7599L19.057 10.7815L19.0299 10.7343C18.9045 10.801 18.8894 10.6888 18.8576 10.6712C18.8274 10.6544 18.7528 10.7301 18.6937 10.6204C18.648 10.5354 18.6723 10.4825 18.6508 10.4135C18.6412 10.3827 18.6099 10.361 18.5994 10.3287C18.5881 10.294 18.5973 10.2292 18.5648 10.1934C18.5417 10.1678 18.55 10.2731 18.4967 10.2382C18.4905 10.2022 18.5649 10.1625 18.5651 10.1573C18.5655 10.1424 18.5145 9.91288 18.5075 9.8999C18.4842 9.85561 18.4144 9.85431 18.3883 9.79211C18.3251 9.59562 18.4763 9.5842 18.3487 9.39057C18.3367 9.34278 18.3912 9.26616 18.2908 9.23097L18.3142 9.15357H18.2009C18.1676 9.08253 18.2322 9.00124 18.1535 8.98254L18.1795 8.89553L18.1347 8.88021L18.132 8.83748C18.1715 8.8293 18.2095 8.81839 18.2002 8.7693C18.1933 8.76099 18.1018 8.79761 18.1312 8.71255C18.1367 8.69671 18.1996 8.71593 18.1774 8.65632H18.1089C18.1531 8.53386 18.0816 8.54879 18.0245 8.48997C18.0076 8.47256 18.0392 8.40854 17.9493 8.4301L17.9495 8.38543C17.9894 8.37802 18.0273 8.36634 18.0176 8.31725L17.9599 8.31958C17.9444 8.24362 17.9561 8.16933 17.8582 8.15855C17.851 8.11726 17.9035 8.09271 17.9038 8.05739C17.9042 8.01674 17.8409 7.97791 17.8433 7.9448C17.8448 7.9222 17.8991 7.88857 17.8798 7.83338L17.7898 7.79714C17.7801 7.76 17.8289 7.78688 17.8358 7.76026C17.8633 7.65364 17.7923 7.66884 17.7652 7.60793C17.7349 7.50872 17.7585 7.48352 17.6641 7.43469C17.634 7.39275 17.7188 7.26133 17.5846 7.25457C17.5627 7.17925 17.6788 7.22081 17.6526 7.13081C17.628 7.05965 17.58 7.15536 17.5389 7.14185L17.5386 7.00627L17.4706 7.02887C17.4596 6.98355 17.5162 6.9677 17.5162 6.92745C17.5163 6.88044 17.4369 6.83732 17.4475 6.78031C17.6046 6.79174 17.4486 6.67902 17.4373 6.62045C17.4283 6.57383 17.4504 6.55253 17.4486 6.5237C17.4473 6.50253 17.2643 6.22657 17.2475 6.18878C17.2402 6.17242 17.2748 6.13567 17.265 6.12489L17.174 6.11346L17.2652 6.10216C17.298 6.01165 17.2078 6.00152 17.1979 5.97451C17.1895 5.95152 17.2215 5.84283 17.2156 5.82114C17.2081 5.79348 17.1634 5.79361 17.1561 5.7814C17.1377 5.75088 17.1662 5.69205 17.1301 5.63699C17.1111 5.6079 17.0664 5.59933 17.0525 5.58323C17.0258 5.55193 17.0367 5.50167 16.9687 5.48051L17.037 5.46947C17.0617 5.38571 17.0609 5.25597 16.946 5.31116C16.9571 5.24117 16.9258 5.07741 16.8536 5.05092C16.8564 5.01715 16.8949 5.00027 16.8952 4.9656C16.8953 4.95534 16.8759 4.77781 16.8729 4.76379C16.8565 4.68535 16.7654 4.64302 16.8106 4.56042C16.8258 4.53263 16.8747 4.54575 16.8545 4.47497L16.7889 4.47315C16.7869 4.37666 16.6941 4.30862 16.6657 4.2033C16.636 4.09317 16.7307 3.84773 16.6039 3.88734L16.6441 3.78514C16.5506 3.68099 16.4554 3.54034 16.444 3.40126C16.4435 3.3662 16.4993 3.34061 16.4874 3.29308C16.463 3.19555 16.3175 3.22114 16.3073 3.20893C16.4715 3.08024 16.4331 2.94323 16.216 2.93765L16.309 2.88349L16.3087 2.61273L16.2158 2.56455L16.261 2.49715L16.1229 2.38157C16.1165 2.33807 16.1662 2.31105 16.1688 2.27196C16.1723 2.21781 16.0693 2.09691 16.1021 2.05665C16.1438 2.00522 16.1415 2.11522 16.1701 2.10158L16.1334 2.01263L16.0337 2.03405L16.0561 1.85315L15.9881 1.87562C16.0194 1.76472 15.9936 1.61083 15.8513 1.67225V1.60447L15.9087 1.60485L15.9195 1.49161L15.851 1.49135L15.8965 1.42395L15.7587 1.3663L15.7825 1.30149L15.8507 1.27578L15.805 1.12968L15.7371 1.15254L15.7332 1.09008L15.6243 1.06034C15.6204 1.05423 15.6208 0.997353 15.6231 0.994366C15.6619 0.943849 15.6717 1.06423 15.6911 1.0393L15.715 0.962939L15.6235 0.859308L15.7369 0.791129C15.6671 0.743469 15.5699 0.726587 15.6001 0.632566L15.5091 0.655162C15.6048 0.401538 15.4724 0.427641 15.5548 0.328036L15.4974 0.292972C15.4758 0.338295 15.4775 0.347255 15.4176 0.338555C15.4421 0.293622 15.4386 0.267649 15.395 0.236871L15.5544 0.225703V0.067659H15.4862L15.4849 0.0757105L15.475 0.135188L15.4446 0.0757105L15.406 0L15.3965 0.0757105L15.3948 0.0899955C15.377 0.0960991 15.3606 0.0892163 15.3467 0.0757105H12.3705L12.3844 0.12363C12.3555 0.168563 12.3343 0.144538 12.2933 0.135448L12.3132 0.223755L12.2705 0.248169L12.3385 0.281934L12.2471 0.327776L12.293 0.429069C12.2245 0.407123 12.1943 0.426602 12.1337 0.452185C12.1098 0.507767 12.1763 0.490885 12.1802 0.511403C12.1917 0.57127 12.1373 0.621657 12.2019 0.677629L12.1365 0.681265L12.1333 0.745807C11.9516 0.667759 12.0601 0.85736 12.0429 0.933979C12.0381 0.954887 11.9739 0.932551 12.0181 1.02527L11.9055 1.06228L11.9482 1.08696L11.9279 1.17488L11.8599 1.10735V1.2202L11.7912 1.22046L11.9049 1.36733L11.86 1.4011C11.8667 1.33045 11.8143 1.28903 11.7459 1.28812L11.7802 1.40162L11.7661 1.44447L11.6772 1.44616L11.6757 1.56953L11.7456 1.59304L11.6884 1.64953L11.6544 1.58174C11.6041 1.56745 11.5542 1.64537 11.6018 1.67264C11.6201 1.68329 11.6723 1.6707 11.6772 1.71719C11.6099 1.71368 11.5331 1.77056 11.5399 1.8403C11.5445 1.88848 11.6007 1.90536 11.5521 1.97782C11.4936 2.06509 11.4015 2.05821 11.4315 2.1982C11.4381 2.22924 11.4838 2.24132 11.4719 2.28248L11.3581 2.26002L11.4267 2.30521C11.3943 2.37858 11.4356 2.38585 11.472 2.44053L11.3808 2.44092L11.4034 2.57636L11.2929 2.58117L11.2895 2.64441L11.2213 2.62143L11.2211 2.68948L11.1529 2.66675C11.154 2.75376 11.1292 2.87466 11.2443 2.88167C11.2473 2.93128 11.1301 2.98712 11.0843 2.98336L11.1525 3.09621L11.0879 3.07543C11.0467 3.14257 10.9311 3.24672 10.8562 3.25451C10.8476 3.28711 10.8805 3.33087 10.913 3.32217C10.9427 3.31438 10.9326 3.24854 10.97 3.25451L10.9718 3.35503L10.9016 3.36762L10.9245 3.52554L10.8336 3.48048C10.8568 3.56878 10.7663 3.59268 10.7513 3.6254C10.7256 3.68073 10.7333 3.79436 10.8105 3.80799C10.7657 3.8537 10.742 3.90526 10.674 3.86448L10.6637 3.97954L10.5828 4.00097C10.5582 4.08577 10.6286 4.04279 10.6284 4.10174L10.56 4.0907L10.5814 4.23433L10.6509 4.26005L10.583 4.31667C10.5623 4.21044 10.4871 4.2055 10.4687 4.31667C10.5102 4.29745 10.5433 4.28524 10.5596 4.33887C10.4961 4.32134 10.5229 4.46237 10.491 4.49744L10.3774 4.45238L10.4229 4.58756C10.3106 4.59081 10.3311 4.65834 10.3086 4.74613L10.195 4.70093L10.2403 4.78015L10.1949 4.79158L10.2293 4.83638C10.2766 4.84703 10.2753 4.78041 10.29 4.77171C10.3195 4.75431 10.5222 4.79807 10.4684 4.85898C10.43 4.90261 10.4193 4.81262 10.4104 4.81223C10.3631 4.81054 10.3053 4.87015 10.2709 4.87508C10.2418 4.87924 10.1856 4.84846 10.1727 4.8595C10.1658 4.86547 10.1043 5.01962 10.1033 5.02871C10.0972 5.08377 10.1346 5.05819 10.1721 5.0626C10.1666 5.15364 10.1381 5.23571 10.0582 5.15299C10.0632 5.34012 10.1685 5.21338 10.149 5.31116L10.0581 5.28844L10.0464 5.35662L9.96698 5.31116L10.0122 5.42414L9.94417 5.40168C9.93264 5.44518 9.98388 5.4544 9.97995 5.49349C9.97274 5.56336 9.85336 5.62426 9.98938 5.65063L9.98991 5.68413C9.91941 5.71166 9.95348 5.80049 9.85284 5.78607L9.89818 5.8536L9.80723 5.83114L9.85297 5.88763C9.86489 5.95905 9.79465 5.88477 9.78443 5.89893C9.74708 5.95048 9.82925 5.97152 9.8303 5.97801L9.78273 6.02528L9.80723 6.12463L9.69322 6.15904L9.7843 6.26021L9.71537 6.27228L9.72834 6.35215C9.65784 6.38085 9.57384 6.44461 9.56336 6.52409C9.55825 6.56201 9.59271 6.59474 9.56847 6.64486C9.54239 6.69889 9.49181 6.6646 9.48932 6.66837C9.47504 6.73291 9.44424 6.81589 9.50989 6.85953C9.51016 6.88225 9.4082 6.90264 9.41908 6.94952L9.48735 6.99498C9.39523 7.02458 9.37033 7.06406 9.39641 7.16445L9.32827 7.14198L9.37033 7.23977C9.34268 7.33717 9.2216 7.31782 9.2824 7.43573C9.19512 7.39846 9.1106 7.55832 9.21413 7.58248L9.16852 7.62793L9.21399 7.6504C9.16394 7.67169 9.10497 7.76663 9.07587 7.78468C9.01048 7.82493 8.91888 7.78169 8.98716 7.93895C9 7.9683 9.03997 7.94168 9.03158 7.97791C8.89661 7.98545 8.89516 8.07012 8.96173 8.16751C8.94064 8.20543 8.9122 8.22764 8.8721 8.20388L8.86987 8.29348L8.80356 8.29465C8.7784 8.35582 8.8624 8.33945 8.86673 8.37205L8.84904 8.45295L8.75822 8.43023C8.72625 8.48867 8.74813 8.56918 8.73542 8.61892C8.72939 8.64269 8.66662 8.6197 8.68969 8.67905L8.73503 8.65606L8.71223 8.7693L8.62128 8.74671L8.64513 8.8245L8.59651 8.85047C8.65273 8.94501 8.56847 8.99604 8.48447 9.04098L8.55288 9.08591L8.46298 9.17759L8.50701 9.28902C8.40715 9.2611 8.39824 9.37187 8.3018 9.37979L8.34832 9.45875C8.34858 9.50329 8.25934 9.54641 8.25567 9.61887C8.25265 9.67835 8.3052 9.68861 8.30166 9.74107C8.25239 9.74081 8.18215 9.72873 8.16498 9.78613L8.23326 9.79756L8.05111 9.956L8.13039 9.94405L8.14166 9.98937C8.03066 10.0186 8.0346 10.1133 8.09671 10.193L8.02791 10.1933L8.05189 10.2704C7.96999 10.3027 7.98637 10.3465 7.95807 10.4019C7.94195 10.4336 7.88809 10.4019 7.9371 10.5093L7.85611 10.5306C7.86267 10.6045 7.83161 10.7182 7.91403 10.7467L7.82283 10.7806L7.84261 10.7267L7.80867 10.6922L7.64054 10.6905C7.63465 10.7136 7.65391 10.7397 7.65352 10.7567C7.6505 10.8692 7.58026 10.75 7.56087 10.7583L7.49273 10.8205L7.32119 10.7358C7.34242 10.7797 7.32119 10.8087 7.27572 10.826L7.27532 10.7357C7.1946 10.7197 7.19447 10.8245 7.13131 10.8002C7.03486 10.6851 6.89045 10.7369 6.84183 10.871L6.80501 10.8247C6.68562 10.8479 6.57201 10.8321 6.45459 10.8034L6.44267 10.8723C6.23981 10.8367 6.13301 10.7831 5.96462 10.9392L5.89569 10.8491L5.88403 10.9617C5.83161 10.9313 5.77827 10.9183 5.79282 10.8488H5.77054C5.78011 10.9311 5.62285 10.9149 5.61578 10.9213C5.60202 10.9339 5.62757 10.9785 5.56506 10.9617C5.55694 10.7713 5.42131 10.9763 5.32591 10.9161L5.31385 10.9841L5.21137 10.8491L5.14297 10.9613L5.08649 10.9166C5.09239 10.972 5.01664 10.9797 4.97183 10.984L4.99502 10.9393L4.88088 10.9165L4.88062 11.0067L4.75586 10.9617L4.72088 11.052C4.60621 11.0646 4.70083 10.9008 4.60726 10.9165L4.607 11.0293C4.5534 11.0787 4.52339 10.8348 4.48853 10.98C4.40113 10.9331 4.31936 11.0424 4.30638 11.0467C4.29105 11.0518 4.27021 11.0292 4.25632 11.03C4.24754 11.0305 4.20181 11.1166 4.10523 11.0749L4.12803 11.1649L4.02555 11.0968C3.96095 11.1853 3.84445 11.2289 3.74066 11.1649C3.76333 11.2229 3.70187 11.2327 3.70004 11.237C3.6927 11.2541 3.72703 11.2911 3.71747 11.3005C3.71472 11.3032 3.65417 11.314 3.64893 11.2835C3.65942 11.1193 3.46599 11.3803 3.51212 11.4362C3.45682 11.4299 3.49836 11.3228 3.42131 11.3458C3.40611 11.4376 3.39366 11.5475 3.3052 11.5853C3.29891 11.6257 3.34045 11.6516 3.34661 11.6795C3.36339 11.7556 3.3529 11.8394 3.41122 11.9093C3.45171 11.9577 3.49993 11.9514 3.52326 11.9791C3.55366 12.0152 3.59651 12.1495 3.64697 12.1955C3.7708 12.2707 4.21819 12.4869 4.36561 12.4074C4.49862 12.594 4.79085 12.5568 4.98375 12.543C5.13969 12.532 5.40021 12.7139 5.62312 12.6995C5.83947 12.6117 5.76635 12.646 5.98519 12.6796C6.11086 12.6155 6.06709 12.6183 6.1739 12.6975C6.35788 12.69 6.46036 12.7407 6.63045 12.7878C6.80566 12.766 6.84589 12.7392 7.03643 12.792C7.14611 12.7961 7.75233 12.7811 7.79557 12.8192C7.86175 12.9101 7.76032 12.9723 7.75993 13.0251C7.83632 13.3763 7.93893 13.2483 7.8223 13.6415C7.82519 14.7181 7.92399 15.8008 7.88416 16.8776C7.85952 17.2289 7.78548 17.6418 7.84576 18.0133L7.77709 18.0135C7.8434 18.1243 7.75442 18.1494 7.75193 18.1821C7.74905 18.3403 7.73005 18.6106 7.72559 18.7675C7.71943 18.8 7.63255 18.8492 7.73031 18.8505L7.73097 18.8944C7.65339 18.8852 7.69965 18.9644 7.68274 19.0166C7.67317 19.0462 7.62927 19.0416 7.61827 19.0703C7.58184 19.164 7.58904 19.3553 7.52129 19.4888C7.49731 19.5362 7.43651 19.5436 7.41056 19.5828C7.36588 19.6504 7.35697 19.7698 7.25278 19.8103L7.29184 19.8259L7.28764 19.89C7.24872 19.9423 7.14048 19.8545 7.11584 19.9569L7.20692 19.9684L7.04731 20.0251L7.07037 20.1152C6.91351 20.1057 6.97222 20.1893 6.85467 20.2522C6.82375 20.3011 6.86149 20.3755 6.75088 20.3646L6.75062 20.4995L6.69414 20.432C6.64107 20.5229 6.56808 20.5004 6.61381 20.6126C6.58157 20.5907 6.52614 20.534 6.50033 20.6016C6.47202 20.6755 6.54567 20.6404 6.54554 20.6801C6.50216 20.6829 6.41384 20.6816 6.37937 20.7025C6.32617 20.8283 6.21766 20.9299 6.06683 20.8614C6.11388 20.9303 6.02686 20.9627 6.02595 20.9854C6.02516 21.0039 6.0819 21.0244 6.06657 21.0645L5.95282 21.0196L5.97549 21.1323L5.90696 21.1326L5.92976 21.2227C5.80199 21.2282 5.88023 21.0984 5.74748 21.1326L5.79269 21.2115L5.72468 21.2453L5.69034 21.1102C5.64199 21.1102 5.66767 21.2818 5.67907 21.3131H5.56493L5.63321 21.2339C5.63963 21.1476 5.53073 21.2518 5.52274 21.2839C5.5133 21.3217 5.54947 21.3631 5.54187 21.4036L5.42825 21.3811C5.40322 21.441 5.47477 21.4196 5.47438 21.4375C5.47241 21.5089 5.38278 21.5315 5.34661 21.4723C5.34019 21.4618 5.43572 21.1913 5.30271 21.4259L5.26851 21.3919L5.22356 21.4146L5.24571 21.494L5.15411 21.4943L5.15489 21.5511L5.00681 21.5165C4.95125 21.5496 4.99751 21.5806 4.99489 21.6297L4.85808 21.6524L4.85782 21.5845L4.78954 21.5842L4.78928 21.6749L4.63006 21.6523L4.76661 21.8102C4.66911 21.8537 4.6564 21.7557 4.56847 21.8416C4.55248 21.8574 4.58131 21.9131 4.49771 21.9051L4.49286 21.9689L4.43598 21.9238L4.34465 22.0137C4.29066 21.9622 4.37715 21.9709 4.37872 21.9686C4.42065 21.9096 4.31058 21.9077 4.29131 21.9844C4.28057 22.0271 4.33783 22.0677 4.27637 22.1038L4.24191 22.0138L4.19617 22.0255C4.22277 22.064 4.22513 22.1301 4.16236 22.1273C4.14742 22.1267 4.0895 21.9976 4.03695 22.0141L4.0823 22.1495L3.94575 22.1045V22.1947L4.01389 22.1721L3.97929 22.2401L3.85441 22.1946L3.85415 22.2627C3.77434 22.1958 3.7062 22.233 3.64959 22.3077L3.58079 22.2401L3.5441 22.4006L3.36535 22.4191C3.3398 22.4238 3.36679 22.4734 3.33809 22.4897C3.03027 22.5661 3.07496 22.483 2.82348 22.7563C2.60765 22.7133 2.45708 22.8683 2.25803 22.9182L2.32591 22.9744C2.27546 23.0394 2.20849 22.9578 2.16682 23.0426L2.2579 23.0538C2.13917 23.2974 2.04744 23.0757 2.00446 23.2317C1.9983 23.236 1.94352 23.1962 1.86188 23.2374C1.72415 23.3068 1.84419 23.347 1.8244 23.4604C1.77618 23.4643 1.75285 23.4695 1.7556 23.4156C1.74079 23.4084 1.702 23.4942 1.64225 23.4152C1.64959 23.494 1.63766 23.5336 1.55091 23.5284C1.62888 23.6138 1.56231 23.6541 1.51671 23.5509L1.37295 23.6684C1.35605 23.7653 1.44791 23.7405 1.48237 23.7992L1.34976 23.8482L1.3457 23.9241L1.17573 23.8918L1.11715 24.048C1.06185 24.0732 1.07587 24.0026 1.0591 24.0017C1.00066 23.9983 0.923994 24.0483 0.935133 24.1158L1.02621 24.1271C1.00341 24.1761 0.946534 24.138 0.938671 24.143C0.929629 24.1484 0.901192 24.2288 0.866728 24.2403L0.912069 24.285L0.855065 24.3419L0.809986 24.2968C0.721137 24.3506 0.740794 24.4322 0.729524 24.5227L0.661643 24.4775L0.684052 24.6583H0.593107L0.638448 24.6021L0.547504 24.5454L0.525881 24.6899L0.592976 24.7267L0.553532 24.7827L0.592845 24.8616L0.492596 24.8602C0.463242 24.9372 0.462325 24.9638 0.364959 24.9523L0.433102 25.0651C0.368759 25.0319 0.320928 25.0152 0.250688 25.0428L0.27349 25.1329L0.182283 25.0762L0.136548 25.1554C0.263268 25.136 0.201022 25.2525 0.114402 25.2007C0.0923863 25.3196 0.132093 25.3746 0 25.4268V26H25.9986C25.9811 25.9461 25.9668 25.8971 26 25.8234ZM12.8405 14.5781L12.8859 14.6684C12.8034 14.6275 12.7663 14.5611 12.7147 14.6691C12.6803 14.6667 12.6627 14.6271 12.6281 14.6275C12.5324 14.6586 12.4821 14.6884 12.3748 14.6447C12.3546 14.6467 12.3554 14.692 12.339 14.7033C12.322 14.7148 12.1997 14.6852 12.1565 14.7587C12.1521 14.711 12.1472 14.6872 12.2017 14.6906L12.1673 14.6459L12.0999 14.6934L11.9641 14.6462C11.9011 14.7863 11.7924 14.6702 11.6774 14.6685L11.7228 14.7021L11.6658 14.7812L11.6543 14.7133L11.4494 14.7586L11.472 14.6685L11.4035 14.6841L11.3465 14.7812L11.3562 14.6945C11.2731 14.6293 11.2668 14.6762 11.2068 14.6845C11.111 14.6978 11.1245 14.7129 11.1151 14.7146C11.0717 14.7229 10.9851 14.681 10.9248 14.7133L10.9701 14.6573C10.9446 14.5934 10.8446 14.6199 10.8379 14.6158C10.8252 14.5191 10.7521 14.6385 10.6966 14.6232L10.6964 14.5551L10.6282 14.5778L10.6298 14.4988C10.5406 14.4775 10.5244 14.3866 10.4229 14.3969L10.4235 14.3524C10.5104 14.3594 10.4252 14.2231 10.4685 14.1618L10.4229 14.1375C10.5105 14.0636 10.5239 13.9306 10.651 13.9675L10.6282 13.8774C10.6692 13.8635 10.6834 13.9144 10.708 13.9142C10.7338 13.9142 10.7464 13.8531 10.8104 13.9224C10.8072 13.8248 10.8663 13.8126 10.9475 13.8097L10.9243 13.8657L10.9701 13.8772C10.9628 13.7775 11.0553 13.7578 11.1392 13.7646C11.1605 13.7663 11.1402 13.8361 11.1983 13.8093L11.1752 13.7306L11.2209 13.7191C11.2549 13.9348 11.3819 13.7678 11.395 13.7655C11.4541 13.7562 11.5685 13.7701 11.5976 13.832L11.6185 13.7881L11.7455 13.8323L11.7459 13.7641L12.0991 13.81L12.1109 13.7417L12.1787 13.832L12.2022 13.7418L12.236 13.7413L12.2608 13.7878L12.3158 13.7641L12.3163 13.8318C12.4452 13.8161 12.5153 13.7752 12.6011 13.8998L12.6125 13.8319L12.7376 13.9001L12.7265 13.8323H12.7948L12.7721 13.9223C12.9114 13.8553 12.8336 13.8955 12.8783 13.9231C12.9186 13.948 13.0026 13.9441 13.0324 13.9655C13.059 13.9848 13.0198 14.0584 13.1141 14.0359C13.0535 14.1746 13.1937 14.0944 13.2053 14.1035C13.0655 14.265 13.3002 14.5441 12.8405 14.5781ZM17.0598 14.4421C17.0172 14.4928 17.0203 14.3842 16.9917 14.3973L16.9456 14.4993C16.9796 14.5204 17.0031 14.4968 16.9912 14.5552H16.8544L16.8773 14.623C16.8635 14.6347 16.7325 14.5717 16.7401 14.6682L16.6944 14.6006C16.5812 14.6619 16.5459 14.7223 16.4348 14.6238C16.3769 14.6352 16.3834 14.7804 16.3305 14.7359C16.3161 14.7238 16.2981 14.6282 16.2162 14.6458C16.196 14.712 16.2141 14.7773 16.136 14.8038L16.1477 14.7137C16.0849 14.6723 15.9784 14.7567 15.9874 14.669H15.9429C15.9671 14.7198 15.8676 14.7155 15.8395 14.7081C15.8247 14.7042 15.8236 14.6438 15.7598 14.6685L15.7827 14.7586C15.6556 14.7906 15.7055 14.7767 15.645 14.6804C15.5529 14.6008 15.564 14.7165 15.4978 14.6737L15.4653 14.7019L15.4859 14.7587L15.2582 14.6458C15.2743 14.7168 15.2205 14.7181 15.1782 14.7584C15.0972 14.7054 15.219 14.6972 15.2123 14.6798C15.087 14.5301 15.1308 14.7202 15.1099 14.7134C15.0646 14.6989 15.005 14.6371 14.9726 14.6234C14.9032 14.5941 14.9946 14.7258 14.9277 14.6908C14.8717 14.5894 14.6142 14.6195 14.5544 14.5745C14.5479 14.568 14.5479 14.506 14.5299 14.4737C14.4956 14.4115 14.4837 14.4184 14.4467 14.3312C14.4284 14.288 14.3405 14.2249 14.4596 14.1932C14.4005 14.1242 14.3921 14.0698 14.4715 14.0131L14.5167 14.058C14.5784 13.9515 14.5944 13.8872 14.7332 13.9451L14.7677 13.855C14.8222 13.9329 14.8417 13.8722 14.8821 13.8657C14.9744 13.8507 15.0971 13.8057 15.2048 13.7952C15.2955 13.7863 15.5336 13.8498 15.4862 13.7192H15.5544L15.5318 13.8093L15.7481 13.7188C15.7789 13.731 15.7204 13.7619 15.7143 13.7758C15.6847 13.8455 15.8493 13.7927 15.8399 13.7415L15.8853 13.7876C16.009 13.6826 16.1371 13.9176 16.2614 13.7191L16.2617 13.8094C16.3359 13.7867 16.4224 13.7753 16.4556 13.8554L16.5582 13.8097L16.5467 13.8548C16.6382 13.8835 16.6037 13.8016 16.672 13.8094L16.6734 13.8748L16.8775 13.9001L16.8547 13.9901L16.9914 13.9679C16.9425 14.0863 17.0553 14.1618 17.0836 14.2725C16.9814 14.2882 17.0823 14.4153 17.0598 14.4421Z" fill="black" style="fill:black;fill-opacity:1;"/>
</g>
<defs>
<linearGradient id="paint0_linear_609_5750" x1="6.86111" y1="-0.698195" x2="26.8995" y2="8.0222" gradientUnits="userSpaceOnUse">
<stop stop-color="#D67EF7" style="stop-color:#D67EF7;stop-color:color(display-p3 0.8392 0.4941 0.9686);stop-opacity:1;"/>
<stop offset="1" stop-color="#8F4AF5" style="stop-color:#8F4AF5;stop-color:color(display-p3 0.5608 0.2902 0.9608);stop-opacity:1;"/>
</linearGradient>
<clipPath id="clip0_609_5750">
<rect width="26" height="26" rx="13" fill="white" style="fill:white;fill-opacity:1;"/>
</clipPath>
</defs>
</svg>
