<svg width="24" height="24" viewBox="0 0 24 24" fill="none" xmlns="http://www.w3.org/2000/svg">
<g clip-path="url(#clip0_1021_5147)">
<path d="M12 24C18.6274 24 24 18.6274 24 12C24 5.37258 18.6274 0 12 0C5.37258 0 0 5.37258 0 12C0 18.6274 5.37258 24 12 24Z" fill="#627EEA" style="fill:#627EEA;fill:color(display-p3 0.3843 0.4941 0.9176);fill-opacity:1;"/>
<path d="M11.6237 3V9.6525L17.2465 12.165L11.6237 3Z" fill="white" fill-opacity="0.602" style="fill:white;fill-opacity:0.602;"/>
<path d="M11.6235 3L6 12.165L11.6235 9.6525V3Z" fill="white" style="fill:white;fill-opacity:1;"/>
<path d="M11.6237 16.4763V20.9965L17.2502 13.2123L11.6237 16.4763Z" fill="white" fill-opacity="0.602" style="fill:white;fill-opacity:0.602;"/>
<path d="M11.6235 20.9965V16.4755L6 13.2123L11.6235 20.9965Z" fill="white" style="fill:white;fill-opacity:1;"/>
<path d="M11.6237 15.43L17.2465 12.1653L11.6237 9.6543V15.43Z" fill="white" fill-opacity="0.2" style="fill:white;fill-opacity:0.2;"/>
<path d="M6 12.1653L11.6235 15.43V9.6543L6 12.1653Z" fill="white" fill-opacity="0.602" style="fill:white;fill-opacity:0.602;"/>
</g>
<defs>
<clipPath id="clip0_1021_5147">
<rect width="24" height="24" fill="white" style="fill:white;fill-opacity:1;"/>
</clipPath>
</defs>
</svg>
