<svg width="25" height="24" viewBox="0 0 25 24" fill="none" xmlns="http://www.w3.org/2000/svg">
<path d="M13.2824 2.764C12.931 2.49075 12.7554 2.35412 12.5614 2.3016C12.3902 2.25526 12.2099 2.25526 12.0387 2.3016C11.8447 2.35412 11.6691 2.49075 11.3177 2.764L4.53544 8.03912C4.08207 8.39175 3.85539 8.56806 3.69208 8.78886C3.54741 8.98444 3.43965 9.20478 3.37408 9.43905C3.30005 9.70352 3.30005 9.9907 3.30005 10.5651V17.8C3.30005 18.9201 3.30005 19.4801 3.51804 19.908C3.70978 20.2843 4.01574 20.5903 4.39207 20.782C4.81989 21 5.37994 21 6.50005 21H8.50005C8.78007 21 8.92009 21 9.02704 20.9455C9.12113 20.8976 9.19762 20.8211 9.24555 20.727C9.30005 20.62 9.30005 20.48 9.30005 20.2V13.6C9.30005 13.0399 9.30005 12.7599 9.40904 12.546C9.50492 12.3578 9.6579 12.2049 9.84606 12.109C10.06 12 10.34 12 10.9 12H13.7C14.2601 12 14.5401 12 14.754 12.109C14.9422 12.2049 15.0952 12.3578 15.1911 12.546C15.3 12.7599 15.3 13.0399 15.3 13.6V20.2C15.3 20.48 15.3 20.62 15.3545 20.727C15.4025 20.8211 15.479 20.8976 15.5731 20.9455C15.68 21 15.82 21 16.1 21H18.1C19.2202 21 19.7802 21 20.208 20.782C20.5844 20.5903 20.8903 20.2843 21.0821 19.908C21.3 19.4801 21.3 18.9201 21.3 17.8V10.5651C21.3 9.9907 21.3 9.70352 21.226 9.43905C21.1604 9.20478 21.0527 8.98444 20.908 8.78886C20.7447 8.56806 20.518 8.39175 20.0647 8.03913L13.2824 2.764Z" stroke="#797A87" style="stroke:#797A87;stroke:color(display-p3 0.4745 0.4784 0.5294);stroke-opacity:1;" stroke-width="2" stroke-linecap="round" stroke-linejoin="round"/>
</svg>
