<svg width="160" height="160" viewBox="0 0 160 160" fill="none" xmlns="http://www.w3.org/2000/svg">
<g clip-path="url(#clip0_782_1117)">
<g clip-path="url(#clip1_782_1117)">
<line x1="0.25" y1="1.09279e-08" x2="0.249993" y2="160" stroke="url(#paint0_linear_782_1117)" style="" stroke-width="0.5"/>
<line x1="20.25" y1="1.09279e-08" x2="20.25" y2="160" stroke="url(#paint1_linear_782_1117)" style="" stroke-width="0.5"/>
<line x1="40.25" y1="1.09279e-08" x2="40.25" y2="160" stroke="url(#paint2_linear_782_1117)" style="" stroke-width="0.5"/>
<line x1="60.25" y1="1.09279e-08" x2="60.25" y2="160" stroke="url(#paint3_linear_782_1117)" style="" stroke-width="0.5"/>
<line x1="80.25" y1="1.09279e-08" x2="80.25" y2="160" stroke="url(#paint4_linear_782_1117)" style="" stroke-width="0.5"/>
<line x1="100.25" y1="1.09279e-08" x2="100.25" y2="160" stroke="url(#paint5_linear_782_1117)" style="" stroke-width="0.5"/>
<line x1="120.25" y1="1.09279e-08" x2="120.25" y2="160" stroke="url(#paint6_linear_782_1117)" style="" stroke-width="0.5"/>
<line x1="140.25" y1="1.09279e-08" x2="140.25" y2="160" stroke="url(#paint7_linear_782_1117)" style="" stroke-width="0.5"/>
<line y1="159.75" x2="160" y2="159.75" stroke="url(#paint8_linear_782_1117)" style="" stroke-width="0.5"/>
<line y1="139.75" x2="160" y2="139.75" stroke="url(#paint9_linear_782_1117)" style="" stroke-width="0.5"/>
<line y1="119.75" x2="160" y2="119.75" stroke="url(#paint10_linear_782_1117)" style="" stroke-width="0.5"/>
<line y1="99.75" x2="160" y2="99.75" stroke="url(#paint11_linear_782_1117)" style="" stroke-width="0.5"/>
<line y1="79.75" x2="160" y2="79.75" stroke="url(#paint12_linear_782_1117)" style="" stroke-width="0.5"/>
<line y1="59.75" x2="160" y2="59.75" stroke="url(#paint13_linear_782_1117)" style="" stroke-width="0.5"/>
<line y1="39.75" x2="160" y2="39.75" stroke="url(#paint14_linear_782_1117)" style="" stroke-width="0.5"/>
<line y1="19.75" x2="160" y2="19.75" stroke="url(#paint15_linear_782_1117)" style="" stroke-width="0.5"/>
<g filter="url(#filter0_f_782_1117)">
<path d="M190 190H-30V-30H190V190ZM80.127 19.0225C46.7137 19.0225 19.627 46.1092 19.627 79.5225C19.627 112.936 46.7137 140.022 80.127 140.022C113.54 140.022 140.627 112.936 140.627 79.5225C140.627 46.1094 113.54 19.0227 80.127 19.0225Z" fill="black" style="fill:black;fill-opacity:1;"/>
</g>
</g>
<path d="M160 160L80 80H160V160Z" fill="url(#paint16_linear_782_1117)" style=""/>
<path d="M160.125 96H96.5L80.5002 80L96.5002 64H160.125V96Z" fill="url(#paint17_linear_782_1117)" style=""/>
<path d="M160 0L80 80H160V0Z" fill="url(#paint18_linear_782_1117)" style=""/>
<path d="M160 0L80.5 80L160 160" stroke="url(#paint19_linear_782_1117)" style="" stroke-width="4"/>
<path d="M0.301147 78.6808C2.64139 78.7974 1.13229 82.1374 1.35672 82.5839C1.47214 82.8135 1.73 82.9498 1.91946 82.9119C2.10892 82.8741 2.25778 82.6326 2.44611 82.6692C4.99562 83.1646 5.04106 89.3702 5.79101 91.0778C6.41247 92.4928 7.51984 92.7902 8.19536 93.3561C10.7445 95.4918 10.0753 101.879 11.0914 104.981C11.1845 105.265 12.2519 103.458 14.1995 99.2509C15.4785 96.4882 16.7425 92.1462 17.5455 89.8276C18.3484 87.509 18.4973 87.2675 18.7229 88.8738C18.9484 90.4801 19.2461 93.9416 19.5856 96.731C19.925 99.5204 20.2972 101.533 20.6378 102.449C20.9783 103.365 21.2761 103.123 21.5411 102.878C22.0457 102.411 22.4083 101.901 22.6711 101.656C23.2928 101.076 23.7571 103.763 24.9232 106.556C26.7051 110.824 26.6937 114.579 26.9937 115.431C27.3856 116.545 28.5703 116.696 29.2864 119.653C29.6003 120.949 30.1514 121.736 30.6386 122.304C31.0983 122.841 32.2513 122.958 33.714 122.999C35.114 123.039 34.7259 120.949 36.0758 119.653C37.5827 118.205 38.7656 112.811 40.2677 109.238C41.3337 106.703 43.4611 106.961 43.3866 103.589C43.3216 100.642 42.7844 98.9033 42.9716 96.3797C43.1828 93.5334 43.2355 91.9071 43.4972 90.6411C43.7871 89.238 45.3331 88.0822 46.4642 87.6285C47.8044 87.0909 48.4209 89.0506 48.8708 89.1324C49.7674 89.2952 52.2349 85.6623 55.9903 81.3568C58.2276 78.7919 59.3217 77.5904 59.9588 77.1819C61.4973 76.1953 62.3282 79.5346 63.1526 79.7408C64.2812 80.0229 64.8859 78.4003 65.3359 78.3589C66.3335 78.2669 66.9136 79.9396 68.2658 80.3104C69.9167 80.7631 70.9758 78.7272 71.649 78.7638C74.129 80.9983 76.2333 81.813 78.6004 81.8557C79.0955 81.8154 79.3188 81.7349 80 81.652" stroke="url(#paint20_linear_782_1117)" style="" stroke-width="4" stroke-linecap="round"/>
<circle cx="80" cy="80" r="6.5" fill="black" stroke="white" style="fill:black;fill-opacity:1;stroke:white;stroke-opacity:1;" stroke-width="3"/>
</g>
<defs>
<filter id="filter0_f_782_1117" x="-60" y="-60" width="280" height="280" filterUnits="userSpaceOnUse" color-interpolation-filters="sRGB">
<feFlood flood-opacity="0" result="BackgroundImageFix"/>
<feBlend mode="normal" in="SourceGraphic" in2="BackgroundImageFix" result="shape"/>
<feGaussianBlur stdDeviation="15" result="effect1_foregroundBlur_782_1117"/>
</filter>
<linearGradient id="paint0_linear_782_1117" x1="-0.5" y1="-2.18557e-08" x2="-0.500007" y2="160" gradientUnits="userSpaceOnUse">
<stop stop-color="#6F6F70" stop-opacity="0" style="stop-color:none;stop-opacity:0;"/>
<stop offset="0.5" stop-color="#6F6F70" style="stop-color:#6F6F70;stop-color:color(display-p3 0.4353 0.4353 0.4392);stop-opacity:1;"/>
<stop offset="1" stop-color="#6F6F70" style="stop-color:#6F6F70;stop-color:color(display-p3 0.4353 0.4353 0.4392);stop-opacity:1;"/>
</linearGradient>
<linearGradient id="paint1_linear_782_1117" x1="19.5" y1="-2.18557e-08" x2="19.5" y2="160" gradientUnits="userSpaceOnUse">
<stop stop-color="#6F6F70" stop-opacity="0" style="stop-color:none;stop-opacity:0;"/>
<stop offset="0.5" stop-color="#6F6F70" style="stop-color:#6F6F70;stop-color:color(display-p3 0.4353 0.4353 0.4392);stop-opacity:1;"/>
<stop offset="1" stop-color="#6F6F70" style="stop-color:#6F6F70;stop-color:color(display-p3 0.4353 0.4353 0.4392);stop-opacity:1;"/>
</linearGradient>
<linearGradient id="paint2_linear_782_1117" x1="39.5" y1="-2.18557e-08" x2="39.5" y2="160" gradientUnits="userSpaceOnUse">
<stop stop-color="#6F6F70" stop-opacity="0" style="stop-color:none;stop-opacity:0;"/>
<stop offset="0.5" stop-color="#6F6F70" style="stop-color:#6F6F70;stop-color:color(display-p3 0.4353 0.4353 0.4392);stop-opacity:1;"/>
<stop offset="1" stop-color="#6F6F70" style="stop-color:#6F6F70;stop-color:color(display-p3 0.4353 0.4353 0.4392);stop-opacity:1;"/>
</linearGradient>
<linearGradient id="paint3_linear_782_1117" x1="59.5" y1="-2.18557e-08" x2="59.5" y2="160" gradientUnits="userSpaceOnUse">
<stop stop-color="#6F6F70" stop-opacity="0" style="stop-color:none;stop-opacity:0;"/>
<stop offset="0.5" stop-color="#6F6F70" style="stop-color:#6F6F70;stop-color:color(display-p3 0.4353 0.4353 0.4392);stop-opacity:1;"/>
<stop offset="1" stop-color="#6F6F70" style="stop-color:#6F6F70;stop-color:color(display-p3 0.4353 0.4353 0.4392);stop-opacity:1;"/>
</linearGradient>
<linearGradient id="paint4_linear_782_1117" x1="79.5" y1="-2.18557e-08" x2="79.5" y2="160" gradientUnits="userSpaceOnUse">
<stop stop-color="#6F6F70" stop-opacity="0" style="stop-color:none;stop-opacity:0;"/>
<stop offset="0.5" stop-color="#6F6F70" style="stop-color:#6F6F70;stop-color:color(display-p3 0.4353 0.4353 0.4392);stop-opacity:1;"/>
<stop offset="1" stop-color="#6F6F70" style="stop-color:#6F6F70;stop-color:color(display-p3 0.4353 0.4353 0.4392);stop-opacity:1;"/>
</linearGradient>
<linearGradient id="paint5_linear_782_1117" x1="99.5" y1="-2.18557e-08" x2="99.5" y2="160" gradientUnits="userSpaceOnUse">
<stop stop-color="#6F6F70" stop-opacity="0" style="stop-color:none;stop-opacity:0;"/>
<stop offset="0.5" stop-color="#6F6F70" style="stop-color:#6F6F70;stop-color:color(display-p3 0.4353 0.4353 0.4392);stop-opacity:1;"/>
<stop offset="1" stop-color="#6F6F70" style="stop-color:#6F6F70;stop-color:color(display-p3 0.4353 0.4353 0.4392);stop-opacity:1;"/>
</linearGradient>
<linearGradient id="paint6_linear_782_1117" x1="119.5" y1="-2.18557e-08" x2="119.5" y2="160" gradientUnits="userSpaceOnUse">
<stop stop-color="#6F6F70" stop-opacity="0" style="stop-color:none;stop-opacity:0;"/>
<stop offset="0.5" stop-color="#6F6F70" style="stop-color:#6F6F70;stop-color:color(display-p3 0.4353 0.4353 0.4392);stop-opacity:1;"/>
<stop offset="1" stop-color="#6F6F70" style="stop-color:#6F6F70;stop-color:color(display-p3 0.4353 0.4353 0.4392);stop-opacity:1;"/>
</linearGradient>
<linearGradient id="paint7_linear_782_1117" x1="139.5" y1="-2.18557e-08" x2="139.5" y2="160" gradientUnits="userSpaceOnUse">
<stop stop-color="#6F6F70" stop-opacity="0" style="stop-color:none;stop-opacity:0;"/>
<stop offset="0.5" stop-color="#6F6F70" style="stop-color:#6F6F70;stop-color:color(display-p3 0.4353 0.4353 0.4392);stop-opacity:1;"/>
<stop offset="1" stop-color="#6F6F70" style="stop-color:#6F6F70;stop-color:color(display-p3 0.4353 0.4353 0.4392);stop-opacity:1;"/>
</linearGradient>
<linearGradient id="paint8_linear_782_1117" x1="0" y1="160.5" x2="160" y2="160.5" gradientUnits="userSpaceOnUse">
<stop stop-color="#6F6F70" stop-opacity="0" style="stop-color:none;stop-opacity:0;"/>
<stop offset="0.5" stop-color="#6F6F70" style="stop-color:#6F6F70;stop-color:color(display-p3 0.4353 0.4353 0.4392);stop-opacity:1;"/>
<stop offset="1" stop-color="#6F6F70" style="stop-color:#6F6F70;stop-color:color(display-p3 0.4353 0.4353 0.4392);stop-opacity:1;"/>
</linearGradient>
<linearGradient id="paint9_linear_782_1117" x1="0" y1="140.5" x2="160" y2="140.5" gradientUnits="userSpaceOnUse">
<stop stop-color="#6F6F70" stop-opacity="0" style="stop-color:none;stop-opacity:0;"/>
<stop offset="0.5" stop-color="#6F6F70" style="stop-color:#6F6F70;stop-color:color(display-p3 0.4353 0.4353 0.4392);stop-opacity:1;"/>
<stop offset="1" stop-color="#6F6F70" style="stop-color:#6F6F70;stop-color:color(display-p3 0.4353 0.4353 0.4392);stop-opacity:1;"/>
</linearGradient>
<linearGradient id="paint10_linear_782_1117" x1="0" y1="120.5" x2="160" y2="120.5" gradientUnits="userSpaceOnUse">
<stop stop-color="#6F6F70" stop-opacity="0" style="stop-color:none;stop-opacity:0;"/>
<stop offset="0.5" stop-color="#6F6F70" style="stop-color:#6F6F70;stop-color:color(display-p3 0.4353 0.4353 0.4392);stop-opacity:1;"/>
<stop offset="1" stop-color="#6F6F70" style="stop-color:#6F6F70;stop-color:color(display-p3 0.4353 0.4353 0.4392);stop-opacity:1;"/>
</linearGradient>
<linearGradient id="paint11_linear_782_1117" x1="0" y1="100.5" x2="160" y2="100.5" gradientUnits="userSpaceOnUse">
<stop stop-color="#6F6F70" stop-opacity="0" style="stop-color:none;stop-opacity:0;"/>
<stop offset="0.5" stop-color="#6F6F70" style="stop-color:#6F6F70;stop-color:color(display-p3 0.4353 0.4353 0.4392);stop-opacity:1;"/>
<stop offset="1" stop-color="#6F6F70" style="stop-color:#6F6F70;stop-color:color(display-p3 0.4353 0.4353 0.4392);stop-opacity:1;"/>
</linearGradient>
<linearGradient id="paint12_linear_782_1117" x1="0" y1="80.5" x2="160" y2="80.5" gradientUnits="userSpaceOnUse">
<stop stop-color="#6F6F70" stop-opacity="0" style="stop-color:none;stop-opacity:0;"/>
<stop offset="0.5" stop-color="#6F6F70" style="stop-color:#6F6F70;stop-color:color(display-p3 0.4353 0.4353 0.4392);stop-opacity:1;"/>
<stop offset="1" stop-color="#6F6F70" style="stop-color:#6F6F70;stop-color:color(display-p3 0.4353 0.4353 0.4392);stop-opacity:1;"/>
</linearGradient>
<linearGradient id="paint13_linear_782_1117" x1="0" y1="60.5" x2="160" y2="60.5" gradientUnits="userSpaceOnUse">
<stop stop-color="#6F6F70" stop-opacity="0" style="stop-color:none;stop-opacity:0;"/>
<stop offset="0.5" stop-color="#6F6F70" style="stop-color:#6F6F70;stop-color:color(display-p3 0.4353 0.4353 0.4392);stop-opacity:1;"/>
<stop offset="1" stop-color="#6F6F70" style="stop-color:#6F6F70;stop-color:color(display-p3 0.4353 0.4353 0.4392);stop-opacity:1;"/>
</linearGradient>
<linearGradient id="paint14_linear_782_1117" x1="0" y1="40.5" x2="160" y2="40.5" gradientUnits="userSpaceOnUse">
<stop stop-color="#6F6F70" stop-opacity="0" style="stop-color:none;stop-opacity:0;"/>
<stop offset="0.5" stop-color="#6F6F70" style="stop-color:#6F6F70;stop-color:color(display-p3 0.4353 0.4353 0.4392);stop-opacity:1;"/>
<stop offset="1" stop-color="#6F6F70" style="stop-color:#6F6F70;stop-color:color(display-p3 0.4353 0.4353 0.4392);stop-opacity:1;"/>
</linearGradient>
<linearGradient id="paint15_linear_782_1117" x1="0" y1="20.5" x2="160" y2="20.5" gradientUnits="userSpaceOnUse">
<stop stop-color="#6F6F70" stop-opacity="0" style="stop-color:none;stop-opacity:0;"/>
<stop offset="0.5" stop-color="#6F6F70" style="stop-color:#6F6F70;stop-color:color(display-p3 0.4353 0.4353 0.4392);stop-opacity:1;"/>
<stop offset="1" stop-color="#6F6F70" style="stop-color:#6F6F70;stop-color:color(display-p3 0.4353 0.4353 0.4392);stop-opacity:1;"/>
</linearGradient>
<linearGradient id="paint16_linear_782_1117" x1="123" y1="160" x2="123" y2="80" gradientUnits="userSpaceOnUse">
<stop stop-color="#70EC9E" style="stop-color:#70EC9E;stop-color:color(display-p3 0.4392 0.9255 0.6196);stop-opacity:1;"/>
<stop offset="1" stop-color="#70EC9E" stop-opacity="0" style="stop-color:none;stop-opacity:0;"/>
</linearGradient>
<linearGradient id="paint17_linear_782_1117" x1="137.471" y1="96" x2="137.471" y2="64" gradientUnits="userSpaceOnUse">
<stop stop-color="#FF6363" stop-opacity="0" style="stop-color:none;stop-opacity:0;"/>
<stop offset="0.5" stop-color="#FF6363" stop-opacity="0.6" style="stop-color:#FF6363;stop-color:color(display-p3 1.0000 0.3882 0.3882);stop-opacity:0.6;"/>
<stop offset="1" stop-color="#FF6363" stop-opacity="0" style="stop-color:none;stop-opacity:0;"/>
</linearGradient>
<linearGradient id="paint18_linear_782_1117" x1="123" y1="0" x2="123" y2="80" gradientUnits="userSpaceOnUse">
<stop stop-color="#70EC9E" style="stop-color:#70EC9E;stop-color:color(display-p3 0.4392 0.9255 0.6196);stop-opacity:1;"/>
<stop offset="1" stop-color="#70EC9E" stop-opacity="0" style="stop-color:none;stop-opacity:0;"/>
</linearGradient>
<linearGradient id="paint19_linear_782_1117" x1="160" y1="4.76837e-06" x2="160" y2="160" gradientUnits="userSpaceOnUse">
<stop stop-color="white" stop-opacity="0" style="stop-color:none;stop-opacity:0;"/>
<stop offset="0.118125" stop-color="white" stop-opacity="0.9" style="stop-color:white;stop-opacity:0.9;"/>
<stop offset="0.499014" stop-color="white" style="stop-color:white;stop-opacity:1;"/>
<stop offset="0.882212" stop-color="white" stop-opacity="0.9" style="stop-color:white;stop-opacity:0.9;"/>
<stop offset="1" stop-color="white" stop-opacity="0" style="stop-color:none;stop-opacity:0;"/>
</linearGradient>
<linearGradient id="paint20_linear_782_1117" x1="55.9999" y1="77" x2="14.9999" y2="77" gradientUnits="userSpaceOnUse">
<stop stop-color="white" style="stop-color:white;stop-opacity:1;"/>
<stop offset="1" stop-color="white" stop-opacity="0" style="stop-color:none;stop-opacity:0;"/>
</linearGradient>
<clipPath id="clip0_782_1117">
<rect width="160" height="160" fill="white" style="fill:white;fill-opacity:1;"/>
</clipPath>
<clipPath id="clip1_782_1117">
<rect width="160" height="160" fill="white" style="fill:white;fill-opacity:1;"/>
</clipPath>
</defs>
</svg>
