<svg width="13" height="13" viewBox="0 0 13 13" fill="none" xmlns="http://www.w3.org/2000/svg">
<path d="M5.5 4.7688V4.2688M5.5 7.0188V6.5188M5.5 9.2688V8.7688M3.1 2.7688H9.9C10.4601 2.7688 10.7401 2.7688 10.954 2.87779C11.1422 2.97367 11.2951 3.12665 11.391 3.31481C11.5 3.52872 11.5 3.80875 11.5 4.3688V5.0188C10.5335 5.0188 9.75 5.8023 9.75 6.7688C9.75 7.7353 10.5335 8.5188 11.5 8.5188V9.1688C11.5 9.72885 11.5 10.0089 11.391 10.2228C11.2951 10.411 11.1422 10.5639 10.954 10.6598C10.7401 10.7688 10.4601 10.7688 9.9 10.7688H3.1C2.53995 10.7688 2.25992 10.7688 2.04601 10.6598C1.85785 10.5639 1.70487 10.411 1.60899 10.2228C1.5 10.0089 1.5 9.72885 1.5 9.1688V8.5188C2.4665 8.5188 3.25 7.7353 3.25 6.7688C3.25 5.8023 2.4665 5.0188 1.5 5.0188V4.3688C1.5 3.80875 1.5 3.52872 1.60899 3.31481C1.70487 3.12665 1.85785 2.97367 2.04601 2.87779C2.25992 2.7688 2.53995 2.7688 3.1 2.7688Z" stroke="#6F6F70" style="stroke:#6F6F70;stroke:color(display-p3 0.4353 0.4353 0.4392);stroke-opacity:1;" stroke-linecap="round" stroke-linejoin="round"/>
</svg>
