<svg width="12" height="13" viewBox="0 0 12 13" fill="none" xmlns="http://www.w3.org/2000/svg">
<path d="M10 11C10 10.3022 10 9.95333 9.91388 9.66943C9.71998 9.03023 9.21977 8.53002 8.58057 8.33612C8.29667 8.25 7.94778 8.25 7.25 8.25H4.75C4.05222 8.25 3.70333 8.25 3.41943 8.33612C2.78023 8.53002 2.28002 9.03023 2.08612 9.66943C2 9.95333 2 10.3022 2 11M8.25 4.25C8.25 5.49264 7.24264 6.5 6 6.5C4.75736 6.5 3.75 5.49264 3.75 4.25C3.75 3.00736 4.75736 2 6 2C7.24264 2 8.25 3.00736 8.25 4.25Z" stroke="white" style="stroke:white;stroke-opacity:1;" stroke-linecap="round" stroke-linejoin="round"/>
</svg>
