<svg width="25" height="24" viewBox="0 0 25 24" fill="none" xmlns="http://www.w3.org/2000/svg">
<path d="M17.4001 14H17.4101M3.90015 5V19C3.90015 20.1046 4.79558 21 5.90015 21H19.9001C21.0047 21 21.9001 20.1046 21.9001 19V9C21.9001 7.89543 21.0047 7 19.9001 7L5.90015 7C4.79558 7 3.90015 6.10457 3.90015 5ZM3.90015 5C3.90015 3.89543 4.79558 3 5.90015 3H17.9001M17.9001 14C17.9001 14.2761 17.6763 14.5 17.4001 14.5C17.124 14.5 16.9001 14.2761 16.9001 14C16.9001 13.7239 17.124 13.5 17.4001 13.5C17.6763 13.5 17.9001 13.7239 17.9001 14Z" stroke="#797A87" style="stroke:#797A87;stroke:color(display-p3 0.4745 0.4784 0.5294);stroke-opacity:1;" stroke-width="2" stroke-linecap="round" stroke-linejoin="round"/>
</svg>
