<svg width="99" height="40" viewBox="0 0 99 40" fill="none" xmlns="http://www.w3.org/2000/svg">
<g clip-path="url(#clip0_650_9449)">
<path d="M43.1257 53.3069C43.1234 53.2314 43.1522 53.1401 43.1488 53.0355C43.1462 52.9537 43.1863 52.862 43.1829 52.7635C43.1799 52.6794 43.1844 52.5884 43.181 52.4925C43.1776 52.4069 43.0526 52.3213 43.0488 52.2269C43.0454 52.1405 43.1928 52.0439 43.1886 51.9503C43.1848 51.8631 43.1674 51.7733 43.1632 51.6801C43.1594 51.5926 43.1026 51.5047 43.0984 51.4118C43.0946 51.3239 43.0931 51.2337 43.0889 51.1413C43.0848 51.053 43.0355 50.9651 43.031 50.8734C43.0268 50.7851 43.0332 50.6945 43.0283 50.6024C43.0238 50.5138 43.1185 50.4187 43.1136 50.327C43.109 50.2383 42.9999 50.1534 42.995 50.0621C42.9904 49.9734 43.0874 49.8775 43.0825 49.7862C43.0776 49.6972 43.0185 49.61 43.0132 49.5191C43.0082 49.43 43.001 49.3398 42.9957 49.2489C42.9904 49.1599 42.8983 49.075 42.8927 48.9837C42.8873 48.8946 43.0374 48.7949 43.0317 48.704C43.0264 48.6146 42.9916 48.5263 42.9859 48.4353C42.9802 48.3459 42.9635 48.2565 42.9578 48.1659C42.9521 48.0765 42.9931 47.9833 42.987 47.8927C42.9809 47.8033 42.954 47.7146 42.9476 47.6241C42.9415 47.5346 42.8949 47.4475 42.8885 47.3569C42.8824 47.2675 42.8366 47.1803 42.8301 47.0898C42.8237 47.0003 42.8866 46.9052 42.8798 46.8147C42.8733 46.7252 42.8491 46.6362 42.8423 46.546C42.8354 46.4566 42.8157 46.3675 42.8089 46.277C42.8021 46.1875 42.6888 46.1057 42.6816 46.0151C42.6744 45.9257 42.6797 45.8347 42.6725 45.7442C42.6653 45.6544 42.7187 45.5596 42.7115 45.4695C42.7043 45.3797 42.76 45.2845 42.7525 45.1944C42.7449 45.1045 42.7415 45.0144 42.7335 44.9242C42.7259 44.8344 42.6964 44.7465 42.6884 44.6563C42.6805 44.5665 42.5399 44.4884 42.5319 44.3982C42.524 44.3084 42.6573 44.2057 42.649 44.1155C42.6407 44.0257 42.569 43.9416 42.5607 43.8518C42.5524 43.762 42.4982 43.6767 42.4895 43.5866C42.4808 43.4967 42.5429 43.4001 42.5342 43.3103C42.5255 43.2205 42.4747 43.1349 42.4656 43.0451C42.4565 42.9553 42.4796 42.862 42.4701 42.7722C42.4611 42.6824 42.3936 42.5987 42.3841 42.5089C42.3747 42.4191 42.4955 42.3156 42.4861 42.2254C42.4766 42.1356 42.4118 42.0519 42.4016 41.9621C42.3917 41.8723 42.394 41.781 42.3838 41.6911C42.3735 41.6013 42.3125 41.5176 42.3023 41.4278C42.2921 41.338 42.3739 41.2376 42.3633 41.1478C42.3527 41.058 42.3455 40.9678 42.3345 40.878C42.3246 40.7954 42.2291 40.7241 42.2182 40.643C42.2068 40.5608 42.1681 40.4835 42.1556 40.4028C42.1428 40.3206 42.0935 40.2463 42.0795 40.1656C42.0655 40.0837 42.031 40.0079 42.0154 39.9276C41.9999 39.8461 42.0852 39.7457 42.0685 39.6658C42.0495 39.576 42.0041 39.493 41.9836 39.4051C41.9628 39.3156 41.9457 39.2266 41.9234 39.1394C41.9006 39.0508 41.8483 38.9712 41.8241 38.8844C41.7994 38.7961 41.8453 38.6881 41.8191 38.6017C41.7922 38.5142 41.6846 38.4532 41.6562 38.3676C41.6274 38.2804 41.7195 38.1523 41.6892 38.0674C41.6581 37.9811 41.6153 37.8984 41.5827 37.8143C41.5497 37.7291 41.4755 37.6593 41.4406 37.5764C41.4054 37.4919 41.3906 37.3979 41.3538 37.3157C41.3163 37.2323 41.2083 37.1819 41.1689 37.1008C41.1291 37.0182 41.0897 36.9371 41.0484 36.8571C41.0063 36.7757 40.9074 36.7276 40.8639 36.6484C40.8195 36.5684 40.843 36.4521 40.7972 36.3744C40.7506 36.2956 40.7578 36.1842 40.7096 36.108C40.6608 36.0307 40.5512 35.9932 40.5009 35.9182C40.4501 35.8424 40.3451 35.806 40.2928 35.7325C40.2398 35.6582 40.189 35.5858 40.1344 35.5138C40.0791 35.4411 40.1268 35.2891 40.07 35.2187C40.0128 35.1474 39.868 35.1497 39.8093 35.0811C39.7502 35.0118 39.7415 34.8996 39.6808 34.8325C39.6195 34.7647 39.5702 34.6866 39.5073 34.6211C39.444 34.5551 39.4209 34.4487 39.3565 34.3854C39.2917 34.3214 39.2246 34.2569 39.1583 34.1952C39.0916 34.133 39.0219 34.0713 38.9541 34.0114C38.8859 33.9511 38.7563 33.961 38.6869 33.9026C38.6172 33.8439 38.5395 33.7965 38.4687 33.7401C38.3974 33.6832 38.3788 33.5586 38.3065 33.504C38.2337 33.4491 38.0791 33.5059 38.0056 33.4532C37.9317 33.4002 37.9435 33.2247 37.8688 33.1736C37.7938 33.122 37.6471 33.1774 37.5713 33.1281C37.4952 33.0785 37.4736 32.9432 37.3963 32.8954C37.319 32.8473 37.2182 32.8371 37.1401 32.7909C37.0617 32.7442 36.9586 32.7416 36.8798 32.6969C36.8006 32.6518 36.7062 32.6366 36.6267 32.5934C36.5467 32.5499 36.5229 32.4017 36.4425 32.36C36.3618 32.3179 36.2697 32.2971 36.1886 32.2569C36.1072 32.2164 36.0283 32.1698 35.9465 32.1308C35.8643 32.0914 35.776 32.0648 35.6937 32.0269C35.6111 31.9887 35.5229 31.9629 35.4402 31.9261C35.3569 31.889 35.3019 31.7867 35.2189 31.7507C35.1352 31.7147 35.0416 31.7011 34.9579 31.6666C34.8737 31.6313 34.7703 31.6435 34.6866 31.6097C34.6021 31.5756 34.5464 31.4684 34.4622 31.4354C34.3773 31.4021 34.2879 31.3797 34.2038 31.3471C34.1185 31.3145 34.0185 31.3214 33.934 31.2895C33.8446 31.2558 33.7317 31.2857 33.6445 31.252C33.5555 31.2172 33.4941 31.1156 33.4077 31.0804C33.319 31.0444 33.1909 31.105 33.1053 31.0682C33.0174 31.0307 32.9761 30.8879 32.8908 30.85C32.8033 30.8109 32.7358 30.734 32.6513 30.6946C32.5646 30.6541 32.4778 30.62 32.394 30.5787C32.308 30.5362 32.1803 30.5809 32.0973 30.5381C32.0124 30.4938 31.9439 30.4206 31.8624 30.3756C31.7783 30.3293 31.6547 30.354 31.5744 30.307C31.4918 30.2585 31.4581 30.13 31.3793 30.0808C31.2997 30.0311 31.2235 29.9796 31.1477 29.9288C31.0697 29.8765 31.0071 29.8064 30.9333 29.753C30.8571 29.698 30.7828 29.6454 30.7112 29.5893C30.6373 29.5317 30.5843 29.4536 30.5149 29.3949C30.4433 29.3343 30.2876 29.3695 30.2212 29.3074C30.1527 29.2433 30.1883 29.0758 30.125 29.0103C30.0598 28.9428 29.9371 28.9322 29.8776 28.8632C29.8166 28.7924 29.693 28.7697 29.6377 28.6969C29.5812 28.6226 29.5858 28.5017 29.5354 28.4252C29.4839 28.3475 29.5149 28.2229 29.4698 28.1429C29.424 28.0618 29.2497 28.0482 29.2106 27.9652C29.1712 27.8814 29.1568 27.7822 29.1242 27.6958C29.0913 27.6094 29.0659 27.5169 29.0397 27.4282C29.0136 27.34 29.0257 27.2395 29.0064 27.149C28.9871 27.0592 28.9446 26.9713 28.9318 26.8792C28.9192 26.7886 28.9893 26.6889 28.9829 26.5961C28.9768 26.5048 28.859 26.4157 28.859 26.3221C28.859 26.2373 28.989 26.1467 28.9909 26.0482C28.9924 25.9614 28.8935 25.8674 28.8965 25.7708C28.8992 25.6829 28.9969 25.5946 29.0007 25.4995C29.0041 25.4108 28.928 25.3157 28.9321 25.2214C28.9363 25.1323 29.0098 25.044 29.0147 24.95C29.0193 24.8606 29.067 24.7716 29.0723 24.678C29.0773 24.5882 29.0367 24.4942 29.042 24.401C29.0473 24.3108 29.0625 24.2198 29.0682 24.127C29.0735 24.0368 29.0826 23.9455 29.0882 23.8527C29.0939 23.7621 29.1193 23.6719 29.125 23.5795C29.1307 23.4889 29.0928 23.3945 29.0989 23.3021C29.1049 23.2111 29.1477 23.1225 29.1542 23.03C29.1602 22.9391 29.0193 22.8375 29.0253 22.7454C29.0318 22.6545 29.15 22.5707 29.1565 22.479C29.1629 22.3881 29.1572 22.2956 29.1637 22.2039C29.1701 22.1126 29.172 22.0209 29.1788 21.9292C29.1853 21.8379 29.2034 21.7473 29.2103 21.6556C29.2171 21.5643 29.2554 21.4753 29.2618 21.3836C29.2686 21.2919 29.1773 21.1933 29.1841 21.102C29.1909 21.0103 29.1993 20.919 29.2061 20.8277C29.2129 20.736 29.1887 20.642 29.1955 20.551C29.2023 20.4593 29.2459 20.3703 29.2527 20.2794C29.2595 20.1873 29.3315 20.1009 29.3383 20.0096C29.3452 19.9175 29.3588 19.8265 29.3656 19.7356C29.3724 19.6435 29.4054 19.5537 29.4119 19.4631C29.4187 19.3711 29.3785 19.276 29.3853 19.1854C29.3922 19.0929 29.3637 18.999 29.3702 18.9084C29.377 18.8159 29.38 18.7242 29.3865 18.6337C29.3933 18.5408 29.4471 18.4529 29.4535 18.3627C29.4604 18.2695 29.5047 18.1808 29.5111 18.091C29.518 17.9978 29.3781 17.8959 29.3842 17.8065C29.3906 17.7129 29.524 17.6299 29.5301 17.5408C29.5365 17.4469 29.5911 17.3582 29.5968 17.2695C29.6002 17.2165 29.5975 17.1646 29.5949 17.113C29.6525 17.1312 29.7097 17.1562 29.7654 17.1536C29.8567 17.1494 29.9446 17.0899 30.0341 17.0857C30.1254 17.0816 30.2201 17.163 30.3095 17.1585C30.4009 17.1539 30.4869 17.0611 30.5763 17.0562C30.6676 17.0513 30.7627 17.132 30.8522 17.127C30.9435 17.1217 31.0303 17.0475 31.1193 17.0422C31.211 17.0365 31.3035 17.0668 31.3929 17.0607C31.4846 17.055 31.5695 16.9694 31.6585 16.9633C31.7502 16.9569 31.8416 16.9724 31.931 16.966C32.0227 16.9592 32.1125 16.9516 32.2015 16.9448C32.2932 16.9376 32.3808 16.9031 32.4698 16.8955C32.5615 16.8879 32.6544 16.9171 32.7434 16.9092C32.8351 16.9008 32.926 16.9039 33.0147 16.8955C33.1064 16.8868 33.1913 16.8303 33.28 16.8212C33.3717 16.8118 33.4702 16.8845 33.5585 16.8747C33.6502 16.8644 33.7377 16.8341 33.826 16.8235C33.9177 16.8125 34.0117 16.8337 34.0996 16.8224C34.1913 16.8106 34.2731 16.7398 34.3607 16.7273C34.4524 16.7144 34.5517 16.7678 34.6392 16.7542C34.7309 16.7402 34.8192 16.7144 34.9063 16.6996C34.998 16.6841 35.0814 16.6341 35.1678 16.6178C35.2595 16.6007 35.3527 16.606 35.4387 16.5882C35.5304 16.5693 35.6252 16.5765 35.7104 16.5568C35.8017 16.5359 35.8681 16.426 35.9526 16.404C36.0439 16.3802 36.142 16.3995 36.2254 16.3749C36.316 16.348 36.4194 16.3699 36.5009 16.3415C36.5907 16.3101 36.6551 16.2214 36.7343 16.1884C36.823 16.1517 36.9003 16.1066 36.976 16.0676C37.0621 16.0232 37.1704 16.0266 37.2405 15.9796C37.3216 15.9251 37.3368 15.8019 37.3974 15.7436C37.4675 15.6761 37.6017 15.6678 37.6456 15.5954C37.6941 15.5151 37.6596 15.3999 37.6786 15.3131C37.6975 15.2263 37.7403 15.1403 37.7316 15.0471C37.7241 14.9656 37.6608 14.894 37.5839 14.8197C37.5274 14.7652 37.48 14.6682 37.3895 14.6178C37.3175 14.5776 37.1879 14.6409 37.0958 14.603C37.0177 14.5708 36.9416 14.5264 36.8495 14.4961C36.768 14.4692 36.7032 14.3722 36.6115 14.3465C36.5278 14.323 36.4391 14.2998 36.3474 14.2775C36.2621 14.2567 36.1754 14.2271 36.0837 14.2074C35.9977 14.1888 35.8969 14.2267 35.8052 14.2085C35.7184 14.1915 35.6362 14.1384 35.5444 14.1221C35.4569 14.1066 35.3569 14.1559 35.2652 14.1407C35.1773 14.1263 35.0871 14.1199 34.9958 14.1062C34.9075 14.093 34.8271 14.0183 34.7354 14.0054C34.6468 13.9929 34.5604 13.9543 34.469 13.9421C34.3804 13.9304 34.2811 13.9899 34.1898 13.9785C34.1007 13.9675 34.0113 13.9554 33.92 13.9448C33.8309 13.9346 33.7419 13.9145 33.6506 13.9042C33.5611 13.8944 33.4759 13.8402 33.3846 13.8307C33.2951 13.8216 33.1977 13.8826 33.1064 13.8739C33.017 13.8652 32.9276 13.8504 32.8362 13.8421C32.7468 13.8338 32.6555 13.8357 32.5645 13.8277C32.4747 13.8197 32.3883 13.7671 32.2974 13.7595C32.2076 13.7519 32.1239 13.6636 32.0325 13.6564C31.9427 13.6492 31.8427 13.7614 31.7517 13.7546C31.6619 13.7477 31.5759 13.6799 31.485 13.6735C31.3948 13.667 31.3016 13.7004 31.2106 13.6939C31.1204 13.6875 31.0329 13.6409 30.9416 13.6348C30.8514 13.6288 30.7612 13.6147 30.6703 13.6091C30.5801 13.6034 30.4922 13.5537 30.4012 13.5484C30.3111 13.5431 30.2171 13.5901 30.1261 13.5848C30.036 13.5795 29.9412 13.6416 29.8507 13.6367C29.8404 13.636 29.8302 13.6337 29.82 13.6303C29.8196 13.5984 29.8128 13.5632 29.7874 13.5147C29.748 13.5223 29.6889 13.5193 29.6422 13.5158C29.6237 13.506 29.6047 13.4995 29.5854 13.4984C29.4948 13.4935 29.4039 13.4935 29.313 13.4889C29.2656 13.4867 29.2175 13.5067 29.169 13.5265C29.1258 13.5177 29.0845 13.5086 29.0553 13.5049C29.053 13.5056 29.0579 13.5174 29.0519 13.5196C29.0322 13.5268 29.0019 13.5367 28.967 13.5458C28.9007 13.5249 28.8351 13.487 28.7677 13.484C28.7203 13.4817 28.6718 13.506 28.6237 13.5295C28.5756 13.5003 28.5263 13.4639 28.4983 13.4529C28.4672 13.4636 28.4054 13.4787 28.3402 13.4874C28.3023 13.459 28.2641 13.434 28.2247 13.4325C28.1481 13.4291 28.0704 13.445 27.9931 13.4476C27.984 13.4438 27.975 13.4397 27.9662 13.4351C27.9776 13.4298 27.9886 13.4249 27.9992 13.42C27.9962 13.4204 27.9905 13.4219 27.9803 13.4226C27.97 13.4234 27.9549 13.4226 27.9431 13.4215C27.9352 13.42 27.9295 13.4188 27.9257 13.4177C27.9329 13.4211 27.945 13.4268 27.9609 13.4351C27.9526 13.4389 27.9443 13.4427 27.9355 13.4469C27.8503 13.442 27.765 13.4253 27.6798 13.4219C27.5888 13.4185 27.4971 13.4404 27.4066 13.437C27.399 13.437 27.3918 13.437 27.3842 13.437C27.3819 13.431 27.3789 13.426 27.3736 13.4279C27.3656 13.4306 27.3569 13.4344 27.3474 13.4385C27.2758 13.4438 27.2042 13.459 27.133 13.4567C27.042 13.4537 26.9534 13.3934 26.8624 13.3904C26.7715 13.3874 26.6779 13.4745 26.5869 13.4715C26.496 13.4685 26.4054 13.4556 26.3149 13.4529C26.2239 13.4503 26.133 13.4438 26.0424 13.4412C25.9515 13.4385 25.8601 13.4571 25.7696 13.4548C25.6786 13.4526 25.5877 13.4548 25.4971 13.4529C25.4062 13.4507 25.3175 13.3609 25.227 13.359C25.136 13.3567 25.0443 13.3787 24.9541 13.3764C24.8632 13.3745 24.773 13.3377 24.6824 13.3359C24.5915 13.334 24.5005 13.3177 24.4104 13.3158C24.319 13.3139 24.2277 13.3359 24.1375 13.334C24.0462 13.3324 23.9556 13.3305 23.8651 13.329C23.8181 13.3283 23.7711 13.3518 23.7237 13.3749C23.7018 13.3692 23.6809 13.3624 23.662 13.3548C23.6608 13.3548 23.6131 13.3791 23.579 13.3662C23.5775 13.3658 23.5775 13.3612 23.5767 13.3586C23.5828 13.359 23.5835 13.3593 23.5904 13.3586C23.5885 13.3586 23.587 13.3586 23.5854 13.3582C23.5805 13.3575 23.5794 13.3575 23.5763 13.3571V13.3567C23.5752 13.3567 23.5741 13.3567 23.5729 13.3567C23.5714 13.3567 23.5699 13.3559 23.5691 13.3559C23.5695 13.3559 23.5703 13.3563 23.5707 13.3563C23.4968 13.3563 23.4005 13.334 23.3198 13.3332C23.2736 13.3381 23.2368 13.3635 23.1637 13.3764C23.125 13.3783 23.0864 13.3802 23.0477 13.3798C22.9564 13.3787 22.8655 13.3658 22.7753 13.3646C22.684 13.3635 22.5934 13.3101 22.5032 13.3093C22.4115 13.3082 22.3198 13.401 22.23 13.4003C22.1383 13.3995 22.0481 13.362 21.9579 13.3612C21.9504 13.3612 21.9428 13.3612 21.9352 13.3616C21.9322 13.3556 21.9288 13.351 21.9231 13.3506C21.8647 13.351 21.7351 13.3518 21.6889 13.3385C21.6976 13.3359 21.7048 13.3313 21.7075 13.3309C21.7018 13.3317 21.6915 13.3014 21.6851 13.301C21.6828 13.301 21.6802 13.3192 21.6783 13.3362C21.6612 13.3412 21.6366 13.3472 21.6048 13.3559C21.5407 13.337 21.4774 13.3052 21.4142 13.3048C21.3225 13.3044 21.2315 13.3173 21.1417 13.3169C21.0496 13.3165 20.9591 13.2729 20.8693 13.2729C20.7772 13.2729 20.6862 13.3431 20.5968 13.3431C20.5358 13.3431 20.4756 13.3601 20.4157 13.3715C20.3926 13.3571 20.3691 13.3419 20.3456 13.3275C20.3517 13.3249 20.3581 13.3222 20.3645 13.3199C20.36 13.3211 20.3516 13.323 20.3388 13.3237C20.3293 13.318 20.3202 13.3127 20.3107 13.3078C20.3009 13.3116 20.2906 13.3158 20.28 13.3199C20.2702 13.318 20.2607 13.3158 20.2516 13.3127C20.2581 13.3165 20.2645 13.3199 20.2709 13.3237C20.252 13.3317 20.2323 13.3396 20.2118 13.3472C20.1588 13.3211 20.1053 13.29 20.0515 13.29C19.972 13.29 19.892 13.3503 19.8113 13.3646C19.784 13.3609 19.7753 13.3628 19.7662 13.3665C19.6802 13.3601 19.5927 13.2881 19.5051 13.2885C19.4149 13.2885 19.324 13.3188 19.2319 13.3192C19.1417 13.3196 19.0504 13.3033 18.9587 13.3036C18.8681 13.304 18.7772 13.3017 18.6855 13.3025C18.5949 13.3033 18.5036 13.287 18.4119 13.2877C18.3418 13.2885 18.2721 13.3499 18.202 13.3783C18.1827 13.3825 18.1633 13.3851 18.144 13.3851C18.083 13.3847 18.0224 13.3449 17.9606 13.3249C17.9288 13.3101 17.8969 13.2987 17.8655 13.2991C17.7749 13.3002 17.684 13.3078 17.5923 13.3089C17.543 13.3097 17.4945 13.3419 17.4453 13.3715C17.4028 13.3605 17.3642 13.3491 17.3365 13.3438C17.3399 13.3423 17.3361 13.3662 17.3384 13.3658C17.3384 13.3658 17.338 13.3662 17.3376 13.3662C17.3384 13.3673 17.3388 13.3684 17.3395 13.3696C17.3475 13.3836 17.3547 13.3988 17.3528 13.4006C17.3395 13.4056 17.3092 13.4067 17.2736 13.412C17.1978 13.3847 17.1213 13.3033 17.0455 13.3044C16.9549 13.3055 16.864 13.3389 16.7727 13.3404C16.6817 13.3419 16.5904 13.3184 16.4991 13.3203C16.4487 13.3211 16.3987 13.354 16.3486 13.3832C16.3073 13.362 16.2679 13.34 16.2369 13.337C16.1846 13.3575 16.1194 13.3806 16.0523 13.3934C16.0193 13.3851 15.9864 13.3783 15.9534 13.379C15.8829 13.3806 15.8136 13.4204 15.7435 13.4393C15.7154 13.437 15.6821 13.4348 15.6291 13.434C15.4763 13.4317 15.4767 13.434 15.3244 13.4257C15.2285 13.4139 15.1884 13.3889 15.1376 13.379C15.1179 13.3813 15.1156 13.3999 15.1076 13.415C15.0254 13.4128 14.9432 13.3931 14.861 13.395C14.77 13.3972 14.6783 13.3787 14.5874 13.3809C14.4964 13.3836 14.4047 13.3646 14.3138 13.3673C14.2441 13.3692 14.1755 13.4204 14.1065 13.4454C14.0823 13.4442 14.0603 13.4423 14.0429 13.4389C14.0413 13.4385 14.0466 13.4268 14.0459 13.4264C14.0459 13.4264 14.0391 13.4067 14.0394 13.4067C14.0398 13.4067 14.0413 13.4401 14.0383 13.4594C14.0303 13.4594 14.0224 13.4601 14.0144 13.4609C14.0038 13.4495 13.9932 13.434 13.9837 13.4332C13.8962 13.4253 13.8428 13.4181 13.7829 13.3938C13.7435 13.4211 13.6931 13.4529 13.6347 13.4749C13.5885 13.4651 13.5423 13.4548 13.4964 13.4564C13.421 13.459 13.3464 13.4692 13.271 13.4749C13.2463 13.4685 13.2232 13.4617 13.2028 13.4552C13.1956 13.456 13.2009 13.4613 13.1865 13.4643C13.1778 13.4666 13.1664 13.4689 13.1531 13.4711C13.0845 13.4575 13.016 13.4287 12.9481 13.4313C12.8708 13.4344 12.7939 13.4545 12.717 13.4628C12.7007 13.4454 12.6893 13.4291 12.6817 13.4287C12.6783 13.4287 12.6776 13.4397 12.6742 13.4393C12.673 13.4393 12.6726 13.4416 12.6707 13.4416C12.6654 13.4416 12.6658 13.4408 12.6605 13.4408C12.6128 13.4408 12.6128 13.4639 12.565 13.4636C12.4995 13.4632 12.4995 13.4726 12.4339 13.4719C12.4195 13.4719 12.4203 13.4795 12.4059 13.4798C12.3934 13.4798 12.3922 13.4097 12.3797 13.4097C12.3343 13.4105 12.274 13.4586 12.2384 13.4518C12.1804 13.4408 12.1497 13.3855 12.1342 13.384C12.133 13.384 12.133 13.3832 12.1327 13.3825C12.1274 13.3991 12.1186 13.4287 12.1114 13.4306C12.088 13.4363 12.0493 13.4492 11.9909 13.4639C11.9549 13.456 11.919 13.448 11.8837 13.4461C11.8742 13.4423 11.8651 13.4401 11.8564 13.4404C11.8564 13.4404 11.8564 13.4435 11.8568 13.4457C11.856 13.4457 11.8553 13.4457 11.8545 13.4457C11.8174 13.4476 11.781 13.4609 11.7446 13.4764C11.7321 13.4787 11.7189 13.4814 11.7049 13.4859C11.6961 13.4886 11.6886 13.4958 11.681 13.5037C11.6492 13.5166 11.6169 13.5272 11.5847 13.5291C11.4934 13.5337 11.3991 13.4742 11.3085 13.4791C11.2172 13.484 11.1296 13.5587 11.0391 13.5636C10.9478 13.5685 10.8549 13.5424 10.7644 13.5473C10.673 13.5526 10.581 13.5397 10.4904 13.545C10.3991 13.5507 10.3066 13.5337 10.216 13.5397C10.1247 13.5454 10.0406 13.6579 9.95041 13.664C9.85909 13.6701 9.76284 13.6019 9.67266 13.6083C9.58133 13.6147 9.4938 13.6697 9.40362 13.6765C9.31229 13.6833 9.224 13.7239 9.13382 13.7311C9.04212 13.7383 8.95193 13.7504 8.86213 13.758C8.77043 13.7656 8.67986 13.7735 8.59005 13.7815C8.49835 13.7898 8.39794 13.692 8.30813 13.7004C8.21643 13.7091 8.13686 13.8296 8.04705 13.8387C7.95535 13.8478 7.86289 13.8372 7.77346 13.8466C7.68176 13.8565 7.58135 13.7788 7.4923 13.7891C7.4006 13.7997 7.30965 13.8118 7.2206 13.8228C7.1289 13.8341 7.04781 13.9186 6.95876 13.9304C6.86668 13.9425 6.76361 13.8641 6.67532 13.877C6.58324 13.8902 6.49836 13.9418 6.41045 13.9554C6.31837 13.9698 6.22288 13.9554 6.13535 13.9709C6.04327 13.9869 5.96294 14.0581 5.87616 14.0748C5.7837 14.0926 5.68215 14.0532 5.59613 14.0717C5.50367 14.0918 5.44229 14.2305 5.35741 14.2513C5.26457 14.2741 5.16188 14.2385 5.07889 14.2623C4.98606 14.2892 4.908 14.3412 4.82766 14.3696C4.73445 14.4025 4.62759 14.3821 4.55218 14.4173C4.45897 14.4609 4.39909 14.5427 4.33506 14.5894C4.24676 14.6538 4.23388 14.7337 4.20508 14.805C4.16984 14.8929 4.12248 14.9637 4.10921 15.0501C4.09481 15.1418 4.10429 15.2188 4.1221 15.3078C4.13915 15.3927 4.18576 15.4488 4.23881 15.5306C4.2839 15.6 4.29072 15.7004 4.36613 15.7671C4.42789 15.822 4.50709 15.8637 4.59197 15.9167C4.66321 15.9611 4.7155 16.0558 4.80417 16.0986C4.88071 16.1354 4.98606 16.1233 5.07624 16.1589C5.15582 16.1903 5.25548 16.1767 5.3468 16.2074C5.42865 16.2347 5.51315 16.2616 5.60485 16.2881C5.68821 16.3123 5.77423 16.3358 5.86593 16.3593C5.95043 16.3809 6.0175 16.4889 6.10958 16.5098C6.19522 16.5291 6.29336 16.506 6.38544 16.5249C6.47184 16.5427 6.55672 16.581 6.6488 16.5984C6.73557 16.6147 6.83296 16.584 6.92542 16.6C7.01257 16.6147 7.09972 16.6431 7.1918 16.6575C7.27934 16.6712 7.36725 16.6973 7.45933 16.7106C7.54724 16.7235 7.63553 16.7477 7.72761 16.7599C7.8159 16.7716 7.90192 16.8129 7.99438 16.8243C8.08267 16.8353 8.17172 16.8591 8.2638 16.8697C8.35247 16.88 8.4525 16.8008 8.54458 16.811C8.63325 16.8205 8.71927 16.869 8.81135 16.8785C8.9004 16.8876 8.99399 16.8622 9.0857 16.8709C9.17474 16.8792 9.26645 16.8697 9.35852 16.8781C9.44757 16.886 9.5298 16.9895 9.62188 16.9971C9.71093 17.0046 9.80528 16.9683 9.89736 16.9759C9.98679 16.983 10.0728 17.0486 10.1649 17.0554C10.2543 17.0619 10.3487 17.0202 10.4404 17.0266C10.5298 17.0327 10.6211 17.0293 10.7132 17.0353C10.8026 17.0414 10.8955 17.0122 10.9875 17.0179C11.0773 17.0236 11.1641 17.088 11.2562 17.0933C11.3214 17.0971 11.3866 17.1149 11.4525 17.1263C11.4544 17.1778 11.4567 17.2305 11.4586 17.2854C11.462 17.3715 11.4805 17.4609 11.4843 17.5545C11.4877 17.6412 11.5935 17.7273 11.5972 17.8201C11.6007 17.9076 11.5275 18.0005 11.5309 18.0929C11.5343 18.1808 11.5851 18.2691 11.5885 18.3608C11.5916 18.4491 11.515 18.5416 11.518 18.6333C11.5211 18.7216 11.6003 18.8091 11.6033 18.9004C11.6063 18.9891 11.5984 19.0793 11.601 19.1706C11.6037 19.2593 11.5772 19.3502 11.5798 19.4412C11.5825 19.5302 11.5673 19.6204 11.57 19.7113C11.5722 19.8004 11.5749 19.8902 11.5772 19.9811C11.5794 20.0706 11.6264 20.1592 11.6283 20.2498C11.6302 20.3392 11.7212 20.4271 11.723 20.5177C11.7249 20.6071 11.5601 20.7003 11.5616 20.7909C11.5631 20.8803 11.601 20.9698 11.6022 21.06C11.6037 21.1498 11.5969 21.2396 11.598 21.3297C11.5991 21.4196 11.6514 21.509 11.6522 21.5992C11.6533 21.689 11.7549 21.7784 11.7556 21.8682C11.7564 21.958 11.6647 22.049 11.6651 22.1391C11.6654 22.2293 11.739 22.3191 11.739 22.4089C11.739 22.4991 11.7026 22.5893 11.7026 22.6791C11.7026 22.7693 11.5859 22.8587 11.5855 22.9485C11.5851 23.0387 11.6029 23.1289 11.6018 23.2187C11.6006 23.3093 11.5878 23.3987 11.5866 23.4885C11.5851 23.5791 11.5969 23.6689 11.5953 23.7587C11.5935 23.8493 11.5881 23.9391 11.5859 24.0285C11.5836 24.1191 11.6893 24.2123 11.6867 24.3017C11.684 24.3923 11.5575 24.4779 11.554 24.5673C11.5506 24.6583 11.6965 24.7545 11.6927 24.8432C11.6886 24.9341 11.6279 25.0217 11.6234 25.1107C11.6185 25.2017 11.6423 25.2937 11.637 25.3824C11.6313 25.4737 11.5737 25.5601 11.5673 25.6484C11.5605 25.7397 11.6457 25.8375 11.6382 25.9254C11.6302 26.0171 11.4961 26.0952 11.487 26.1827C11.4775 26.2744 11.5461 26.3725 11.5359 26.4597C11.5249 26.5518 11.382 26.6234 11.3699 26.7094C11.3566 26.8019 11.4442 26.9057 11.4294 26.991C11.4135 27.0838 11.3642 27.1656 11.3464 27.2494C11.3263 27.343 11.3274 27.4351 11.3051 27.5162C11.2789 27.6105 11.1846 27.67 11.1547 27.7462C11.1228 27.8276 11.2229 27.972 11.1808 28.0535C11.1406 28.1315 10.9887 28.1497 10.9398 28.2274C10.8932 28.3017 10.9034 28.4165 10.8496 28.4904C10.7981 28.5616 10.7901 28.673 10.7321 28.7439C10.6764 28.8121 10.6139 28.8826 10.5529 28.9504C10.4938 29.016 10.3392 28.9951 10.2755 29.0603C10.2134 29.1236 10.2373 29.2767 10.1713 29.3392C10.1069 29.4002 9.92806 29.3384 9.86061 29.3987C9.79429 29.4578 9.76815 29.5628 9.6988 29.6207C9.6306 29.6783 9.5154 29.6776 9.44454 29.734C9.37482 29.7897 9.40665 29.9765 9.33465 30.0315C9.26341 30.0857 9.17929 30.1258 9.10654 30.1793C9.03416 30.2323 8.93185 30.2448 8.85796 30.2967C8.78445 30.3483 8.75489 30.4654 8.68024 30.5158C8.60559 30.5662 8.43204 30.4673 8.35664 30.5165C8.28123 30.5658 8.21832 30.6325 8.14254 30.6802C8.06637 30.7283 7.99135 30.7765 7.9148 30.8231C7.8375 30.8701 7.77043 30.9314 7.69351 30.9769C7.61545 31.0231 7.52034 31.0364 7.44304 31.0811C7.36422 31.1262 7.36232 31.3051 7.28426 31.3486C7.20469 31.393 7.06373 31.3229 6.98529 31.3649C6.90496 31.4085 6.8591 31.5127 6.78067 31.554C6.69957 31.5965 6.6416 31.6813 6.56278 31.7215C6.48093 31.7632 6.37559 31.7549 6.29677 31.7935C6.21379 31.8344 6.16604 31.9443 6.08722 31.9815C6.0031 32.0212 5.86479 31.9386 5.78598 31.9746C5.70034 32.0137 5.65108 32.1232 5.57226 32.1573C5.48473 32.1956 5.38242 32.1849 5.30474 32.2168C5.21341 32.2539 5.12929 32.2846 5.0535 32.3123C4.9762 32.3407 4.91444 32.4294 4.8235 32.4695C4.74582 32.504 4.64161 32.4957 4.55483 32.5385C4.47715 32.5768 4.42676 32.6772 4.34263 32.7219C4.26533 32.7628 4.12664 32.6992 4.04442 32.7454C3.96749 32.7886 3.96446 32.9659 3.88337 33.0137C3.80683 33.0584 3.71588 33.0815 3.63631 33.13C3.56014 33.1766 3.49573 33.2429 3.41729 33.2926C3.3415 33.3403 3.17174 33.2444 3.09406 33.2952C3.01903 33.3441 3.00577 33.49 2.92923 33.5415C2.85458 33.5915 2.72233 33.5605 2.64654 33.6128C2.57265 33.6639 2.56849 33.817 2.49346 33.8704C2.41994 33.9227 2.32862 33.9511 2.25473 34.0053C2.18198 34.0588 2.0539 34.0398 1.98077 34.0951C1.90839 34.1497 1.82881 34.1971 1.75644 34.2531C1.68482 34.3085 1.69998 34.476 1.62836 34.5328C1.5575 34.5893 1.45557 34.6074 1.38509 34.6654C1.31499 34.723 1.21381 34.7439 1.14371 34.803C1.07437 34.8613 0.975844 34.8878 0.906879 34.9477C0.838293 35.0072 0.83943 35.1474 0.771222 35.208C0.703394 35.2687 0.599567 35.2903 0.532876 35.352C0.465806 35.4138 0.409345 35.4877 0.343411 35.5502C0.277477 35.6131 0.173271 35.6378 0.108474 35.7014C0.0432987 35.7655 0.0724764 35.9231 0.00881624 35.9883C-0.055223 36.0534 -0.223089 36.019 -0.285233 36.0853C-0.347757 36.152 -0.320474 36.3016 -0.381102 36.3691C-0.442489 36.4369 -0.594061 36.4255 -0.653174 36.4941C-0.713045 36.5635 -0.752074 36.6518 -0.809672 36.7219C-0.867648 36.7927 -0.829755 36.9398 -0.885458 37.011C-0.941918 37.0834 -0.970717 37.1732 -1.02415 37.2459C-1.07833 37.3198 -1.24582 37.3122 -1.2966 37.3865C-1.34851 37.4623 -1.42733 37.5222 -1.47583 37.5983C-1.52244 37.6718 -1.44627 37.8234 -1.49137 37.9083C-1.53267 37.9856 -1.64256 38.0322 -1.68273 38.1186C-1.71986 38.1986 -1.74525 38.288 -1.78163 38.3755C-1.81535 38.4577 -1.88735 38.5286 -1.92031 38.6169C-1.95139 38.7003 -1.85931 38.8302 -1.88962 38.9193C-1.9188 39.0038 -1.95214 39.0875 -1.98019 39.1766C-2.00747 39.2622 -2.18102 39.3047 -2.20754 39.3941C-2.23293 39.4805 -2.12683 39.6063 -2.15146 39.6961C-2.17571 39.7829 -2.24392 39.8586 -2.26741 39.9488C-2.29015 40.036 -2.40648 40.1015 -2.42884 40.1917C-2.45044 40.2796 -2.46863 40.3702 -2.48985 40.4608C-2.51069 40.5491 -2.54327 40.6362 -2.56374 40.7268C-2.58344 40.8151 -2.53797 40.9196 -2.55729 41.0098C-2.57624 41.0985 -2.52546 41.2027 -2.54403 41.2933C-2.56222 41.3823 -2.6634 41.4551 -2.68083 41.5456C-2.69826 41.6347 -2.66529 41.7343 -2.68234 41.8249C-2.69901 41.9143 -2.77783 41.9928 -2.79413 42.0837C-2.81042 42.1731 -2.85816 42.258 -2.87408 42.349C-2.88962 42.4388 -2.85134 42.5384 -2.8665 42.629C-2.88166 42.7188 -2.83126 42.82 -2.84566 42.9105C-2.86006 43.0004 -2.85551 43.0936 -2.86953 43.1845C-2.88355 43.2747 -2.98207 43.352 -2.99572 43.4429C-3.00936 43.5331 -2.97677 43.6305 -2.99003 43.7215C-3.00329 43.8116 -3.10144 43.8905 -3.11394 43.9814C-3.12645 44.072 -3.09234 44.1693 -3.10447 44.2603C-3.11659 44.3509 -3.13251 44.441 -3.14464 44.532C-3.15638 44.6226 -3.15373 44.7154 -3.16548 44.8063C-3.17684 44.8969 -3.22042 44.984 -3.23179 45.075C-3.24278 45.1659 -3.1723 45.2667 -3.18291 45.3577C-3.19352 45.4486 -3.20034 45.5399 -3.21057 45.6309C-3.2208 45.7218 -3.24126 45.8116 -3.25149 45.9026C-3.26172 45.9935 -3.39549 46.0712 -3.40496 46.1625C-3.41481 46.2535 -3.34926 46.3527 -3.35873 46.4441C-3.3682 46.5354 -3.36404 46.6278 -3.37313 46.7188C-3.38222 46.8101 -3.32084 46.9079 -3.32955 46.9992C-3.33827 47.0905 -3.45574 47.1712 -3.46407 47.2626C-3.47241 47.3539 -3.39776 47.4528 -3.4061 47.5437C-3.41443 47.635 -3.54251 47.7158 -3.55047 47.8071C-3.55843 47.8984 -3.46938 47.9981 -3.47696 48.0894C-3.48454 48.1811 -3.46256 48.2747 -3.46976 48.3656C-3.47696 48.4573 -3.59594 48.5399 -3.60314 48.6309C-3.61034 48.7226 -3.55085 48.8192 -3.55767 48.9101C-3.56449 49.0018 -3.54062 49.0954 -3.54706 49.1864C-3.5535 49.2781 -3.5247 49.3717 -3.53076 49.463C-3.53683 49.5547 -3.57548 49.6441 -3.58116 49.7351C-3.58685 49.8271 -3.55312 49.9207 -3.55843 50.0117C-3.56411 50.1038 -3.57965 50.1943 -3.58457 50.2853C-3.58988 50.3774 -3.65354 50.4656 -3.65809 50.5562C-3.66301 50.6483 -3.71341 50.7377 -3.71796 50.8283C-3.7225 50.9204 -3.71871 51.0124 -3.72288 51.1034C-3.72705 51.1958 -3.72364 51.2879 -3.72743 51.3785C-3.73122 51.4709 -3.65354 51.5657 -3.65695 51.6562C-3.66036 51.7487 -3.76646 51.8366 -3.76949 51.9272C-3.77252 52.02 -3.78313 52.1113 -3.78616 52.2019C-3.78882 52.2947 -3.64899 52.3899 -3.65126 52.48C-3.65354 52.5729 -3.69749 52.6634 -3.69901 52.7532C-3.7009 52.8465 -3.80208 52.9363 -3.80322 53.0264C-3.80435 53.1197 -3.67362 53.2125 -3.67438 53.3023C-3.67514 53.3959 -3.76381 53.5111 -3.76381 53.6005C-3.63573 53.643 -3.62095 53.521 -3.48605 53.521C-3.35115 53.521 -3.35115 53.6305 -3.21625 53.6305C-3.08135 53.6305 -3.08135 53.6672 -2.94683 53.6672C-2.81231 53.6672 -2.81194 53.4891 -2.67704 53.4891C-2.54214 53.4891 -2.54214 53.5024 -2.40762 53.5024C-2.2731 53.5024 -2.27272 53.5312 -2.13782 53.5312C-2.00292 53.5312 -2.00292 53.516 -1.86802 53.516C-1.73312 53.516 -1.73312 53.6543 -1.59822 53.6543C-1.46333 53.6543 -1.46333 53.5316 -1.32843 53.5316C-1.19353 53.5316 -1.19353 53.613 -1.05863 53.613C-0.923729 53.613 -0.92373 53.5403 -0.788831 53.5403C-0.653932 53.5403 -0.653932 53.6555 -0.519033 53.6555C-0.384134 53.6555 -0.384134 53.6032 -0.249235 53.6032C-0.114336 53.6032 -0.114336 53.6411 0.0205629 53.6411C0.155462 53.6411 0.155462 53.5501 0.290361 53.5501C0.42526 53.5501 0.42526 53.5338 0.560159 53.5338C0.695057 53.5338 0.695057 53.6229 0.829957 53.6229C0.964855 53.6229 0.964856 53.5172 1.09975 53.5172C1.23465 53.5172 1.23465 53.5365 1.36955 53.5365C1.50445 53.5365 1.50445 53.5823 1.63935 53.5823C1.77425 53.5823 1.77425 53.5657 1.90915 53.5657C2.04405 53.5657 2.04405 53.6354 2.17895 53.6354C2.31384 53.6354 2.31384 53.516 2.44912 53.516C2.5844 53.516 2.58402 53.5539 2.71892 53.5524C2.72309 53.549 2.76894 53.5827 2.77311 53.5793C2.79281 53.4982 2.75075 53.405 2.80115 53.3383C2.82123 53.2023 2.86178 53.2061 2.86216 53.0685C2.86216 52.931 2.86936 52.931 2.86973 52.7934C2.86973 52.6559 2.92203 52.6559 2.92241 52.5183C2.92241 52.3808 2.86026 52.3808 2.86064 52.2432C2.86064 52.1057 2.85571 52.1057 2.85571 51.9681C2.85571 51.8306 2.88944 51.8306 2.88982 51.693C2.88982 51.5554 2.7966 51.5554 2.7966 51.4179C2.7966 51.2803 2.87428 51.2803 2.87466 51.1428C2.87466 51.0052 2.81289 51.0052 2.81289 50.8677C2.81289 50.7301 2.80077 50.7301 2.80115 50.5926C2.80115 50.455 2.7769 50.455 2.7769 50.3175C2.7769 50.1799 2.89095 50.1799 2.89133 50.0424C2.89133 49.9048 2.93188 49.9048 2.93188 49.7673C2.93188 49.6297 2.80039 49.6297 2.80039 49.4922C2.80039 49.3546 2.847 49.3546 2.84738 49.2171C2.84738 49.0795 2.77121 49.0795 2.77159 48.942C2.77159 48.8044 2.89436 48.8044 2.89436 48.6669C2.89436 48.5293 2.76401 48.5293 2.76439 48.3918C2.76439 48.2542 2.79395 48.2542 2.79433 48.1167C2.79433 47.9791 2.77841 47.9791 2.77841 47.8416C2.77841 47.704 2.77349 47.704 2.77386 47.5665C2.77386 47.4289 2.89247 47.4289 2.89247 47.2914C2.89247 47.1538 2.90611 47.1538 2.90611 47.0162C2.90611 46.8787 2.85761 46.8787 2.85761 46.7411C2.85761 46.6036 2.82237 46.6036 2.82237 46.466C2.82237 46.3285 2.82729 46.3285 2.82767 46.1909C2.82767 46.0534 2.93226 46.0534 2.93226 45.9158C2.93226 45.7783 2.88224 45.7783 2.88262 45.6404C2.88262 45.5028 2.93567 45.5028 2.93567 45.3653C2.93567 45.2277 2.79395 45.2273 2.79395 45.0898C2.79395 44.9522 2.85685 44.9522 2.85723 44.8147C2.85723 44.6771 2.84548 44.6771 2.84548 44.5392C2.84548 44.4016 2.86102 44.4016 2.86102 44.2637C2.86102 44.1262 2.87201 44.1262 2.87201 43.9886C2.87201 43.851 2.76704 43.8507 2.76704 43.7131C2.76704 43.5756 2.82881 43.5756 2.82881 43.438C2.82881 43.3005 2.82123 43.3005 2.82123 43.1625C2.82123 43.025 2.8235 43.025 2.8235 42.8871C2.8235 42.7491 2.92657 42.7495 2.92695 42.6116C2.92695 42.474 2.86632 42.4736 2.86632 42.3361C2.86632 42.1982 2.81062 42.1982 2.811 42.0606C2.811 41.9227 2.90914 41.9231 2.90914 41.7851C2.90914 41.657 3.04632 41.6476 3.05844 41.7749C3.07132 41.9109 3.0179 41.9162 3.03078 42.0523C3.04366 42.1883 3.08913 42.1841 3.10202 42.3202C3.1149 42.4562 3.124 42.4555 3.13688 42.5915C3.14976 42.7275 3.1221 42.7302 3.13498 42.8662C3.14787 43.0022 3.08913 43.0079 3.10202 43.144C3.1149 43.28 3.18955 43.2732 3.20243 43.4092C3.21532 43.5453 3.16189 43.5506 3.17477 43.6866C3.18766 43.8226 3.27595 43.8143 3.28883 43.9507C3.30171 44.0867 3.26079 44.0905 3.27367 44.2269C3.28226 44.3176 3.29085 44.4085 3.29944 44.4994C3.31232 44.6354 3.30437 44.6362 3.31725 44.7726C3.33013 44.9086 3.37788 44.9041 3.39076 45.0405C3.40365 45.1765 3.39986 45.1769 3.41274 45.3133C3.42562 45.4494 3.37371 45.4543 3.38659 45.5903C3.39948 45.7264 3.39379 45.7268 3.40668 45.8632C3.41956 45.9992 3.53059 45.989 3.54347 46.125C3.55635 46.261 3.56242 46.2607 3.5753 46.3967C3.58818 46.5327 3.45404 46.5456 3.46693 46.6817C3.47981 46.8177 3.5609 46.8101 3.57341 46.9461C3.58629 47.0822 3.60372 47.0807 3.6166 47.2167C3.62949 47.3527 3.58553 47.3569 3.59842 47.4929C3.6113 47.629 3.57227 47.6328 3.58515 47.7692C3.59804 47.9052 3.62911 47.9026 3.64199 48.0386C3.65488 48.1746 3.72157 48.1686 3.73445 48.3046C3.74734 48.4406 3.6905 48.4463 3.70338 48.5824C3.71626 48.7184 3.66056 48.7237 3.67344 48.8601C3.68633 48.9962 3.70073 48.995 3.71361 49.1311C3.72649 49.2671 3.836 49.2569 3.84889 49.3933C3.86177 49.5297 3.74696 49.5403 3.75984 49.6767C3.77272 49.8127 3.8235 49.8082 3.83638 49.9442C3.84927 50.0803 3.80152 50.0848 3.81441 50.2212C3.82729 50.3576 3.80152 50.3599 3.81441 50.496C3.82729 50.6324 3.80114 50.6346 3.81441 50.7711C3.82729 50.9071 3.89815 50.9007 3.91103 51.0367C3.92392 51.1727 3.93036 51.1723 3.94324 51.3084C3.95613 51.4444 3.95082 51.4452 3.9637 51.5812C3.97659 51.7172 4.07094 51.7085 4.08382 51.8446C4.09671 51.981 4.01903 51.9882 4.03191 52.1246C4.0448 52.2606 4.06336 52.2591 4.07625 52.3952C4.08913 52.5316 4.02699 52.5373 4.03987 52.6737C4.05275 52.8101 4.01145 52.8139 4.02433 52.9503C4.03722 53.0867 4.06601 53.0928 4.10846 53.2231C4.1831 53.2603 4.27859 53.2989 4.33316 53.3607C4.38735 53.4221 4.43775 53.4474 4.46768 53.5259C4.59993 53.56 4.59121 53.4937 4.72801 53.4937C4.8648 53.4937 4.8648 53.4937 5.00159 53.4937C5.13839 53.4937 5.13839 53.5892 5.27518 53.5892C5.41197 53.5892 5.41197 53.5403 5.54877 53.5403C5.68556 53.5403 5.68556 53.6028 5.82235 53.6028C5.95915 53.6028 5.95915 53.5664 6.09594 53.5664C6.23273 53.5664 6.23273 53.613 6.36953 53.613C6.50632 53.613 6.50632 53.5425 6.64312 53.5425C6.77991 53.5425 6.77991 53.6706 6.9167 53.6706C7.0535 53.6706 7.0535 53.6206 7.19029 53.6206C7.32708 53.6206 7.32708 53.5323 7.46388 53.5323C7.60067 53.5323 7.60067 53.524 7.73746 53.524C7.87426 53.524 7.87426 53.5266 8.01105 53.5266C8.14784 53.5266 8.14784 53.5558 8.28464 53.5558C8.42143 53.5558 8.42143 53.6316 8.55822 53.6316C8.69502 53.6316 8.69502 53.6176 8.83181 53.6176C8.96861 53.6176 8.96861 53.6373 9.10502 53.6373C9.24144 53.6373 9.24181 53.5058 9.37823 53.5058C9.51464 53.5058 9.51502 53.5437 9.65144 53.5437C9.78785 53.5437 9.78823 53.5759 9.92502 53.5759C10.0618 53.5759 10.0618 53.5278 10.1986 53.5278C10.3354 53.5278 10.3354 53.5278 10.4722 53.5278C10.609 53.5278 10.609 53.5725 10.7458 53.5725C10.8826 53.5725 10.8826 53.5729 11.0194 53.5729C11.1562 53.5729 11.1562 53.5107 11.293 53.5107C11.4298 53.5107 11.4298 53.546 11.5665 53.546C11.7033 53.546 11.7033 53.5695 11.8401 53.5695C11.9769 53.5695 11.9769 53.6066 12.1137 53.6066C12.2505 53.6066 12.2505 53.541 12.3873 53.541C12.5241 53.541 12.5241 53.5945 12.6609 53.5945C12.7977 53.5945 12.7977 53.6479 12.9345 53.6479C13.0713 53.6479 13.0713 53.5554 13.2081 53.5554C13.3449 53.5554 13.3449 53.6255 13.4817 53.6255C13.6185 53.6255 13.6185 53.549 13.7552 53.549C13.892 53.549 13.892 53.6138 14.0288 53.6138C14.1656 53.6138 14.1656 53.6077 14.3024 53.6077C14.4392 53.6077 14.4392 53.5558 14.576 53.5558C14.7128 53.5558 14.7128 53.5191 14.8496 53.5191C14.9864 53.5191 14.9864 53.5179 15.1232 53.5179C15.26 53.5179 15.26 53.5486 15.3968 53.5486C15.5336 53.5486 15.5336 53.571 15.6704 53.571C15.8071 53.571 15.8071 53.5342 15.9439 53.5342C16.0807 53.5342 16.0807 53.5213 16.2175 53.5213C16.3543 53.5213 16.3543 53.6271 16.4911 53.6271C16.6279 53.6271 16.6279 53.5342 16.7647 53.5342C16.9015 53.5342 16.9015 53.5005 17.0383 53.5005C17.1751 53.5005 17.1751 53.6073 17.3119 53.6073C17.4487 53.6073 17.4487 53.6145 17.5855 53.6145C17.7223 53.6145 17.7223 53.5471 17.8591 53.5471C17.9958 53.5471 17.9958 53.5657 18.1326 53.5657C18.2694 53.5657 18.2694 53.5759 18.4062 53.5759C18.543 53.5759 18.543 53.5244 18.6798 53.5244C18.8166 53.5244 18.8166 53.5801 18.9534 53.5801C19.0902 53.5801 19.0902 53.6202 19.227 53.6202C19.3638 53.6202 19.3638 53.4872 19.5006 53.4872C19.6374 53.4872 19.6374 53.5444 19.7742 53.5444C19.911 53.5444 19.911 53.5418 20.0477 53.5418C20.1845 53.5418 20.1845 53.5653 20.3213 53.5653C20.4581 53.5653 20.4581 53.6699 20.5949 53.6699C20.7317 53.6699 20.7317 53.6464 20.8685 53.6464C21.0053 53.6464 21.0053 53.6214 21.1421 53.6214C21.2789 53.6214 21.2789 53.6452 21.4157 53.6452C21.5525 53.6452 21.5525 53.5217 21.6893 53.5217C21.8261 53.5217 21.8261 53.6164 21.9629 53.6164C22.0997 53.6164 22.0997 53.5115 22.2364 53.5115C22.3732 53.5115 22.3732 53.6615 22.51 53.6615C22.6468 53.6615 22.6468 53.6695 22.7836 53.6695C22.9204 53.6695 22.9204 53.5983 23.0572 53.5983C23.194 53.5983 23.194 53.5323 23.3308 53.5323C23.4676 53.5323 23.4676 53.5509 23.6044 53.5509C23.7412 53.5509 23.7412 53.5767 23.878 53.5767C24.0148 53.5767 24.0148 53.6369 24.1516 53.6369C24.2883 53.6369 24.2883 53.6388 24.4251 53.6388C24.5619 53.6388 24.5619 53.5816 24.6987 53.5816C24.8355 53.5816 24.8355 53.6661 24.9723 53.6661C25.1091 53.6661 25.1091 53.6244 25.2459 53.6244C25.3827 53.6244 25.3827 53.5198 25.5195 53.5198C25.6563 53.5198 25.6563 53.6524 25.7931 53.6524C25.9299 53.6524 25.9299 53.4941 26.0667 53.4941C26.2035 53.4941 26.2035 53.6505 26.3403 53.6505C26.477 53.6505 26.477 53.5282 26.6138 53.5282C26.7506 53.5282 26.7506 53.5153 26.8874 53.5153C27.0242 53.5153 27.0242 53.5395 27.161 53.5395C27.2978 53.5395 27.2978 53.5194 27.4346 53.5194C27.5714 53.5194 27.5714 53.6369 27.7082 53.6369C27.845 53.6369 27.845 53.5831 27.9818 53.5831C28.1186 53.5831 28.1186 53.6331 28.2554 53.6331C28.3922 53.6331 28.3922 53.5009 28.5289 53.5009C28.6657 53.5009 28.6657 53.5429 28.8025 53.5429C28.9393 53.5429 28.9393 53.6494 29.0761 53.6494C29.2129 53.6494 29.2129 53.5403 29.3497 53.5403C29.4865 53.5403 29.4865 53.5854 29.6233 53.5854C29.7601 53.5854 29.7601 53.5573 29.8969 53.5573C30.0337 53.5573 30.0337 53.5001 30.1705 53.5001C30.3073 53.5001 30.3073 53.6032 30.4441 53.6032C30.5809 53.6032 30.5809 53.4899 30.718 53.4899C30.8552 53.4899 30.8548 53.5789 30.9916 53.5789C31.1284 53.5789 31.1284 53.671 31.2656 53.671C31.4028 53.671 31.4024 53.6206 31.5395 53.6206C31.6767 53.6206 31.6763 53.4997 31.8135 53.4997C31.9507 53.4997 31.9503 53.5456 32.0875 53.5456C32.2247 53.5456 32.2243 53.5823 32.3614 53.5823C32.4986 53.5823 32.4982 53.5141 32.6354 53.5141C32.7726 53.5141 32.7722 53.5172 32.909 53.5172C33.0458 53.5172 33.0458 53.6013 33.183 53.6013C33.3201 53.6013 33.3198 53.5645 33.4569 53.5645C33.5941 53.5645 33.5937 53.5873 33.7309 53.5873C33.8681 53.5873 33.8677 53.5952 34.0049 53.5952C34.142 53.5952 34.142 53.6183 34.2788 53.6183C34.4156 53.6183 34.4156 53.4975 34.5528 53.4975C34.69 53.4975 34.69 53.5971 34.8268 53.5971C34.9636 53.5971 34.9492 53.5441 35.0814 53.5081C35.1386 53.4179 35.1807 53.3576 35.2731 53.3027C35.2966 53.2394 35.4437 53.247 35.4861 53.1943C35.5126 53.0598 35.38 53.042 35.3906 52.9052C35.4012 52.7684 35.3811 52.7669 35.3921 52.6305C35.4027 52.4941 35.4368 52.4967 35.4474 52.3599C35.4581 52.2231 35.4706 52.2243 35.4816 52.0875C35.4925 51.9507 35.4804 51.9499 35.491 51.8131C35.5016 51.6763 35.588 51.6831 35.599 51.5467C35.6096 51.4099 35.5706 51.4069 35.5812 51.2705C35.5922 51.1337 35.5877 51.1333 35.5983 50.9969C35.6092 50.8601 35.5274 50.8537 35.538 50.7173C35.549 50.5805 35.6036 50.585 35.6146 50.4482C35.6252 50.3114 35.6638 50.3145 35.6748 50.178C35.6858 50.0412 35.6092 50.0356 35.6202 49.8988C35.6312 49.762 35.6471 49.7635 35.6581 49.6267C35.6687 49.4899 35.6585 49.4891 35.6691 49.3527C35.6797 49.2159 35.779 49.2239 35.79 49.0871C35.8006 48.9507 35.7366 48.9454 35.7476 48.809C35.7582 48.6726 35.7892 48.6748 35.8002 48.5384C35.8108 48.402 35.8025 48.4012 35.8135 48.2644C35.8241 48.1277 35.876 48.1318 35.887 47.9954C35.8976 47.859 35.8472 47.8548 35.8578 47.7184C35.8684 47.582 35.8828 47.5827 35.8934 47.4463C35.9041 47.3095 35.9609 47.3141 35.9715 47.1777C35.9825 47.0413 35.823 47.0284 35.8336 46.892C35.8446 46.7552 35.9677 46.765 35.9787 46.6282C35.9893 46.4914 35.9154 46.4857 35.9264 46.3493C35.937 46.2125 35.9219 46.2114 35.9325 46.075C35.9431 45.9382 36.0299 45.945 36.0409 45.8086C36.0518 45.6718 35.9457 45.6635 35.9567 45.5271C35.9677 45.3903 36.095 45.4005 36.1056 45.2637C36.1166 45.1269 36.0049 45.1182 36.0155 44.9814C36.0265 44.8446 36.0041 44.8431 36.0151 44.7063C36.0257 44.5695 36.128 44.5778 36.1386 44.441C36.1492 44.3043 36.2136 44.3096 36.2246 44.1728C36.2352 44.036 36.0613 44.0223 36.0719 43.8855C36.0829 43.7487 36.0897 43.7495 36.1003 43.6127C36.1113 43.4759 36.1056 43.4755 36.1166 43.3391C36.1272 43.2023 36.2576 43.2126 36.2686 43.0761C36.2796 42.9393 36.1689 42.9306 36.1799 42.7942C36.1909 42.6574 36.3235 42.668 36.3341 42.5312C36.3451 42.3944 36.3334 42.3937 36.3444 42.2569C36.355 42.1201 36.2542 42.1121 36.2648 41.9757C36.2758 41.8389 36.3057 41.8412 36.3167 41.7044C36.3277 41.5676 36.3588 41.5699 36.3698 41.4331C36.3807 41.2963 36.2959 41.2895 36.3069 41.1527C36.3141 41.0629 36.4539 41.0739 36.4554 41.1641C36.4577 41.2997 36.4493 41.3001 36.4516 41.4358C36.4539 41.5718 36.5861 41.5695 36.5884 41.7052C36.5907 41.8408 36.5122 41.8423 36.5141 41.978C36.5164 42.1137 36.5676 42.1129 36.5698 42.2489C36.5721 42.3846 36.5107 42.3857 36.513 42.5218C36.5153 42.6578 36.4906 42.6582 36.4929 42.7938C36.4952 42.9295 36.5964 42.928 36.5986 43.064C36.6009 43.1997 36.4766 43.2019 36.4789 43.3376C36.4812 43.4733 36.6032 43.4714 36.6055 43.6074C36.6077 43.7431 36.5232 43.7446 36.5255 43.8806C36.5278 44.0166 36.5452 44.0163 36.5475 44.1519C36.5498 44.2876 36.5141 44.2883 36.5164 44.4244C36.5187 44.56 36.5012 44.5604 36.5035 44.6964C36.5058 44.8325 36.5039 44.8325 36.5062 44.9681C36.5084 45.1038 36.5592 45.103 36.5611 45.2391C36.5634 45.3751 36.5217 45.3755 36.524 45.5115C36.5263 45.6472 36.5331 45.6472 36.5354 45.7828C36.5376 45.9185 36.5228 45.9189 36.5251 46.0545C36.5274 46.1902 36.6096 46.189 36.6119 46.3247C36.6142 46.4607 36.5687 46.4611 36.571 46.5972C36.5732 46.7328 36.593 46.7324 36.5952 46.8685C36.5975 47.0041 36.6176 47.0041 36.6199 47.1398C36.6221 47.2758 36.5755 47.2766 36.5778 47.4122C36.5801 47.5479 36.6615 47.5467 36.6638 47.6824C36.6661 47.8184 36.6888 47.8181 36.6911 47.9537C36.6934 48.0894 36.574 48.0916 36.5763 48.2273C36.5786 48.3633 36.5475 48.3637 36.5498 48.4994C36.552 48.635 36.7006 48.6328 36.7028 48.7688C36.7051 48.9048 36.6869 48.9048 36.6892 49.0409C36.6915 49.1769 36.5808 49.1784 36.5827 49.3145C36.585 49.4505 36.6953 49.4486 36.6975 49.5846C36.6998 49.7207 36.7036 49.7203 36.7059 49.8563C36.7081 49.9924 36.5751 49.9943 36.577 50.1303C36.5793 50.2663 36.7521 50.2633 36.7544 50.3993C36.7566 50.5354 36.7532 50.5354 36.7555 50.6714C36.7578 50.8074 36.6793 50.8086 36.6812 50.9446C36.6835 51.0803 36.7767 51.0788 36.779 51.2148C36.7813 51.3508 36.6271 51.3531 36.6293 51.4891C36.6316 51.6252 36.7684 51.6229 36.7707 51.7586C36.7729 51.8942 36.7301 51.895 36.7324 52.031C36.7347 52.167 36.649 52.1682 36.6513 52.3042C36.6536 52.4402 36.7809 52.438 36.7832 52.574C36.7854 52.71 36.7248 52.7108 36.7271 52.8468C36.7294 52.9829 36.7699 52.9821 36.7718 53.1185C36.7741 53.2546 36.6865 53.2591 36.7051 53.394C36.7464 53.4512 36.7961 53.5164 36.8188 53.5854C36.9533 53.6164 36.9579 53.6153 37.0962 53.6153C37.2345 53.6153 37.2345 53.5012 37.3724 53.5012C37.5103 53.5012 37.5107 53.646 37.649 53.646C37.7873 53.646 37.7873 53.4925 37.9253 53.4925C38.0632 53.4925 38.0636 53.5084 38.2019 53.5084C38.3402 53.5084 38.3402 53.6744 38.4781 53.6744C38.6161 53.6744 38.6164 53.6668 38.7547 53.6668C38.8931 53.6668 38.8931 53.4933 39.031 53.4933C39.1689 53.4933 39.1693 53.6517 39.3076 53.6517C39.4459 53.6517 39.4459 53.5001 39.5842 53.5001C39.7225 53.5001 39.7225 53.6365 39.8608 53.6365C39.9991 53.6365 39.9991 53.6081 40.1375 53.6081C40.2758 53.6081 40.2758 53.513 40.4141 53.513C40.5524 53.513 40.5524 53.6134 40.6907 53.6134C40.829 53.6134 40.829 53.5141 40.9669 53.5141C41.1049 53.5141 41.1052 53.5058 41.2435 53.5058C41.3819 53.5058 41.3819 53.5365 41.5202 53.5365C41.6585 53.5365 41.6585 53.5012 41.7968 53.5012C41.9351 53.5012 41.9351 53.5168 42.0734 53.5168C42.2117 53.5168 42.2117 53.6699 42.35 53.6699C42.4883 53.6699 42.4883 53.6365 42.6266 53.6365C42.765 53.6365 42.765 53.6123 42.9033 53.6123C43.0416 53.6123 43.0374 53.5918 43.1681 53.5467C43.2962 53.5028 43.1382 53.4884 43.1325 53.3122L43.1257 53.3069ZM21.6843 13.3055C21.687 13.3063 21.6836 13.3298 21.6893 13.3313C21.6862 13.3324 21.6825 13.3332 21.679 13.3343C21.6813 13.3199 21.6836 13.3055 21.6843 13.3059V13.3055ZM21.6771 13.3468C21.676 13.3559 21.6749 13.3628 21.6745 13.3628C21.6745 13.3628 21.676 13.3559 21.6771 13.3468ZM19.7071 19.4279C19.6806 19.5567 19.6305 19.5522 19.6305 19.6769C19.6305 19.8364 19.637 19.9758 19.551 19.9758C19.4119 19.9758 19.4119 20.0031 19.2728 20.0031C19.1338 20.0031 19.1338 20.0399 18.9947 20.0399C18.8556 20.0399 18.8556 20.0603 18.7166 20.0603C18.5775 20.0603 18.5775 19.9565 18.4384 19.9565C18.2994 19.9565 18.2994 19.983 18.1603 19.983C18.0212 19.983 18.0212 19.9785 17.8822 19.9785C17.7431 19.9785 17.7431 20.0084 17.604 20.0084C17.465 20.0084 17.465 19.9338 17.3259 19.9338C17.1868 19.9338 17.1868 20.0179 17.0478 20.0179C16.9087 20.0179 16.9087 19.8887 16.7696 19.8887C16.6306 19.8887 16.6306 19.9 16.4915 19.9C16.3524 19.9 16.3524 19.9429 16.2134 19.9429C16.0743 19.9429 16.0743 19.919 15.9348 19.919C15.7954 19.919 15.7958 19.9959 15.6563 19.9959C15.5703 19.9959 15.4718 19.836 15.4718 19.6765C15.4718 19.5522 15.4074 19.5522 15.4074 19.4279C15.4074 19.3036 15.4851 19.3036 15.4851 19.1793C15.4851 19.055 15.5487 19.055 15.5487 18.9307C15.5487 18.7708 15.5699 18.6178 15.656 18.6178C15.795 18.6178 15.795 18.5522 15.9341 18.5522C16.0732 18.5522 16.0732 18.5541 16.2122 18.5541C16.3513 18.5541 16.3513 18.6852 16.4904 18.6852C16.6294 18.6852 16.6294 18.5723 16.7685 18.5723C16.9076 18.5723 16.9076 18.6397 17.0466 18.6397C17.1857 18.6397 17.1857 18.6568 17.3248 18.6568C17.4638 18.6568 17.4638 18.7148 17.6029 18.7148C17.742 18.7148 17.742 18.7148 17.881 18.7148C18.0201 18.7148 18.0201 18.7132 18.1592 18.7132C18.2982 18.7132 18.2982 18.6212 18.4373 18.6212C18.5764 18.6212 18.5764 18.609 18.7154 18.609C18.8545 18.609 18.8545 18.6962 18.9936 18.6962C19.1326 18.6962 19.1326 18.5586 19.2721 18.5586C19.4115 18.5586 19.4111 18.7091 19.5506 18.7091C19.6366 18.7091 19.7654 18.7708 19.7654 18.9307C19.7654 19.055 19.6631 19.055 19.6631 19.1793C19.6631 19.3036 19.7317 19.3063 19.7067 19.4279H19.7071ZM26.2486 19.4279C26.222 19.5567 26.172 19.5522 26.172 19.6769C26.172 19.8364 26.1784 19.9758 26.0924 19.9758C25.9545 19.9758 25.9545 20.0031 25.8166 20.0031C25.6786 20.0031 25.6786 20.0399 25.5411 20.0399C25.4035 20.0399 25.4032 20.0603 25.2652 20.0603C25.1273 20.0603 25.1273 19.9565 24.9894 19.9565C24.8514 19.9565 24.8514 19.983 24.7135 19.983C24.5756 19.983 24.5756 19.9785 24.438 19.9785C24.3005 19.9785 24.3001 20.0084 24.1622 20.0084C24.0242 20.0084 24.0242 19.9338 23.8863 19.9338C23.7484 19.9338 23.7484 20.0179 23.6104 20.0179C23.4725 20.0179 23.4725 19.8887 23.3346 19.8887C23.1967 19.8887 23.1967 19.9 23.0587 19.9C22.9208 19.9 22.9208 19.9429 22.7829 19.9429C22.6449 19.9429 22.6449 19.919 22.507 19.919C22.3691 19.919 22.3691 19.9959 22.2311 19.9959C22.1451 19.9959 22.0466 19.836 22.0466 19.6765C22.0466 19.5522 21.9822 19.5522 21.9822 19.4279C21.9822 19.3036 22.0599 19.3036 22.0599 19.1793C22.0599 19.055 22.1235 19.055 22.1235 18.9307C22.1235 18.7708 22.1447 18.6178 22.2308 18.6178C22.3687 18.6178 22.3687 18.5522 22.5066 18.5522C22.6446 18.5522 22.6446 18.5541 22.7821 18.5541C22.9197 18.5541 22.92 18.6852 23.058 18.6852C23.1959 18.6852 23.1959 18.5723 23.3338 18.5723C23.4718 18.5723 23.4718 18.6397 23.6097 18.6397C23.7476 18.6397 23.7476 18.6568 23.8852 18.6568C24.0227 18.6568 24.0231 18.7148 24.161 18.7148C24.299 18.7148 24.299 18.7148 24.4369 18.7148C24.5748 18.7148 24.5748 18.7132 24.7128 18.7132C24.8507 18.7132 24.8507 18.6212 24.9886 18.6212C25.1265 18.6212 25.1265 18.609 25.2645 18.609C25.4024 18.609 25.4024 18.6962 25.5403 18.6962C25.6783 18.6962 25.6783 18.5586 25.8162 18.5586C25.9541 18.5586 25.9541 18.7091 26.0921 18.7091C26.1781 18.7091 26.3069 18.7708 26.3069 18.9307C26.3069 19.055 26.2046 19.055 26.2046 19.1793C26.2046 19.3036 26.2732 19.3063 26.2482 19.4279H26.2486Z" fill="#D67EF7" style="fill:#D67EF7;fill:color(display-p3 0.8392 0.4941 0.9686);fill-opacity:1;"/>
<path d="M13.4751 12.8517C13.4751 12.8517 13.4762 12.8521 13.4766 12.8521C13.4789 12.8525 13.4807 12.8529 13.4815 12.8529C13.483 12.8532 13.4837 12.8532 13.4834 12.8529C13.4826 12.8521 13.4834 12.8529 13.4815 12.8525C13.4789 12.8521 13.4789 12.8521 13.4762 12.8517C13.4755 12.8517 13.4755 12.8514 13.4751 12.8517Z" fill="#D67EF7" style="fill:#D67EF7;fill:color(display-p3 0.8392 0.4941 0.9686);fill-opacity:1;"/>
<path d="M13.7408 13.3621C13.7347 13.3614 13.7317 13.3606 13.731 13.3606C13.7406 13.3646 13.7503 13.3687 13.7601 13.3727C13.7677 13.3758 13.7749 13.3788 13.7821 13.3814C13.7923 13.3746 13.8018 13.3678 13.8102 13.3614C13.8174 13.3564 13.8238 13.3526 13.8283 13.3496C13.8192 13.3534 13.8022 13.3591 13.7742 13.3621C13.7613 13.3625 13.7598 13.3633 13.7533 13.3633C13.7469 13.3625 13.7446 13.3629 13.7408 13.3625V13.3621Z" fill="#D67EF7" style="fill:#D67EF7;fill:color(display-p3 0.8392 0.4941 0.9686);fill-opacity:1;"/>
<path d="M13.8296 13.349C13.8341 13.3464 13.8363 13.3449 13.8367 13.3449C13.8375 13.3442 13.8348 13.3457 13.8296 13.349Z" fill="#D67EF7" style="fill:#D67EF7;fill:color(display-p3 0.8392 0.4941 0.9686);fill-opacity:1;"/>
<path d="M15.9177 12.736C15.9234 12.7352 15.9237 12.736 15.9294 12.7349C15.9241 12.7349 15.9188 12.7349 15.9131 12.7349C15.9059 12.7383 15.9059 12.7375 15.9177 12.7356V12.736Z" fill="#D67EF7" style="fill:#D67EF7;fill:color(display-p3 0.8392 0.4941 0.9686);fill-opacity:1;"/>
<path d="M17.5704 12.6731C17.5741 12.6731 17.5741 12.6731 17.5779 12.6731C17.5764 12.6727 17.5741 12.6727 17.5715 12.6724C17.57 12.6727 17.5685 12.6731 17.5674 12.6739C17.5674 12.6739 17.5689 12.6739 17.5704 12.6735V12.6731Z" fill="#D67EF7" style="fill:#D67EF7;fill:color(display-p3 0.8392 0.4941 0.9686);fill-opacity:1;"/>
<path d="M18.6934 12.6805C18.6994 12.6813 18.7028 12.6813 18.707 12.682C18.7115 12.6828 18.7146 12.6835 18.7169 12.6839C18.7161 12.6835 18.715 12.6832 18.7134 12.6828C18.7115 12.682 18.7097 12.6813 18.7078 12.6805C18.7006 12.6805 18.7006 12.6798 18.6934 12.6805Z" fill="#D67EF7" style="fill:#D67EF7;fill:color(display-p3 0.8392 0.4941 0.9686);fill-opacity:1;"/>
<path d="M18.8687 12.7086C18.8717 12.7075 18.8781 12.7048 18.8884 12.7018C18.9005 12.698 18.919 12.6938 18.9441 12.6923C18.9289 12.6919 18.9137 12.6916 18.8982 12.6904C18.8899 12.6957 18.8804 12.7018 18.8702 12.7079C18.8694 12.7082 18.869 12.7086 18.8687 12.709V12.7086Z" fill="#D67EF7" style="fill:#D67EF7;fill:color(display-p3 0.8392 0.4941 0.9686);fill-opacity:1;"/>
<path d="M20.545 12.672C20.545 12.672 20.5428 12.6732 20.542 12.6735C20.5443 12.6732 20.5477 12.6724 20.5518 12.6713C20.5746 12.6656 20.6201 12.6644 20.6466 12.6713C20.6591 12.6739 20.6667 12.6766 20.6701 12.6777C20.6485 12.6648 20.6269 12.6527 20.606 12.6421C20.5863 12.6508 20.5659 12.661 20.545 12.672Z" fill="#D67EF7" style="fill:#D67EF7;fill:color(display-p3 0.8392 0.4941 0.9686);fill-opacity:1;"/>
<path d="M21.1509 12.6392C21.1558 12.6392 21.1607 12.6399 21.1653 12.6407C21.1638 12.6399 21.1619 12.6395 21.1604 12.6392C21.1558 12.6392 21.1558 12.6392 21.1509 12.6392Z" fill="#D67EF7" style="fill:#D67EF7;fill:color(display-p3 0.8392 0.4941 0.9686);fill-opacity:1;"/>
<path d="M21.9764 12.6307C21.9741 12.6307 21.9711 12.6304 21.9692 12.6304C21.97 12.6307 21.9707 12.6304 21.9719 12.6304C21.9741 12.6304 21.9741 12.6304 21.9764 12.6304V12.6307Z" fill="#D67EF7" style="fill:#D67EF7;fill:color(display-p3 0.8392 0.4941 0.9686);fill-opacity:1;"/>
<path d="M21.9785 12.6314C21.9785 12.6314 21.9785 12.631 21.9777 12.631C21.9773 12.631 21.9769 12.6306 21.9766 12.631C21.9773 12.631 21.9781 12.631 21.9785 12.631V12.6314Z" fill="#D67EF7" style="fill:#D67EF7;fill:color(display-p3 0.8392 0.4941 0.9686);fill-opacity:1;"/>
<path d="M22.1763 12.6877C22.188 12.6835 22.2017 12.6809 22.2149 12.6797C22.2233 12.6786 22.2354 12.6786 22.2403 12.6786C22.2418 12.6786 22.2418 12.6786 22.2433 12.6786C22.2422 12.6786 22.2407 12.6786 22.2388 12.6778C22.2316 12.6763 22.2225 12.674 22.2115 12.6714C22.1998 12.6767 22.188 12.6824 22.1763 12.6877Z" fill="#D67EF7" style="fill:#D67EF7;fill:color(display-p3 0.8392 0.4941 0.9686);fill-opacity:1;"/>
<path d="M23.8636 12.6904C23.8602 12.6916 23.8606 12.6916 23.8652 12.6904C23.8659 12.6904 23.8644 12.6904 23.8636 12.6904Z" fill="#D67EF7" style="fill:#D67EF7;fill:color(display-p3 0.8392 0.4941 0.9686);fill-opacity:1;"/>
<path d="M23.905 12.6917C23.9088 12.6924 23.9107 12.6924 23.9111 12.6924C23.9099 12.692 23.9065 12.6909 23.9012 12.689C23.8971 12.6875 23.8929 12.6856 23.8887 12.6841C23.8777 12.6871 23.8698 12.6894 23.8652 12.6905C23.8777 12.6886 23.8921 12.6894 23.905 12.6917Z" fill="#D67EF7" style="fill:#D67EF7;fill:color(display-p3 0.8392 0.4941 0.9686);fill-opacity:1;"/>
<path d="M27.42 13.4096C27.4132 13.4096 27.3942 13.4077 27.3874 13.4059C27.3829 13.4047 27.3779 13.3983 27.3779 13.4032C27.3874 13.4077 27.398 13.4131 27.4098 13.4187C27.437 13.4096 27.4469 13.4074 27.4306 13.4096C27.4253 13.41 27.4253 13.4096 27.42 13.4096Z" fill="#D67EF7" style="fill:#D67EF7;fill:color(display-p3 0.8392 0.4941 0.9686);fill-opacity:1;"/>
<path d="M27.6734 12.8481C27.6663 12.8496 27.6674 12.8504 27.6734 12.8481V12.8481Z" fill="#D67EF7" style="fill:#D67EF7;fill:color(display-p3 0.8392 0.4941 0.9686);fill-opacity:1;"/>
<path d="M28.2541 12.875C28.2476 12.875 28.2484 12.8758 28.2541 12.875V12.875Z" fill="#D67EF7" style="fill:#D67EF7;fill:color(display-p3 0.8392 0.4941 0.9686);fill-opacity:1;"/>
<path d="M28.2598 12.8749C28.287 12.8768 28.2977 12.8821 28.2961 12.8806C28.2901 12.8775 28.284 12.8745 28.2783 12.8711C28.2708 12.8726 28.2643 12.8737 28.2598 12.8749Z" fill="#D67EF7" style="fill:#D67EF7;fill:color(display-p3 0.8392 0.4941 0.9686);fill-opacity:1;"/>
<path d="M28.7973 12.9268C28.7935 12.9268 28.7909 12.9271 28.7905 12.9275C28.7913 12.9279 28.7935 12.9275 28.7973 12.9268Z" fill="#D67EF7" style="fill:#D67EF7;fill:color(display-p3 0.8392 0.4941 0.9686);fill-opacity:1;"/>
<path d="M29.0591 13.4931C29.0609 13.4924 29.061 13.4924 29.0583 13.4924C29.0564 13.492 29.0523 13.4924 29.0493 13.4924C29.0523 13.4927 29.0557 13.4931 29.0591 13.4935V13.4931Z" fill="#D67EF7" style="fill:#D67EF7;fill:color(display-p3 0.8392 0.4941 0.9686);fill-opacity:1;"/>
<path d="M20.0509 12.6738C20.0509 12.6738 20.049 12.675 20.0479 12.6754C20.0521 12.6761 20.0517 12.675 20.0509 12.6738Z" fill="#D67EF7" style="fill:#D67EF7;fill:color(display-p3 0.8392 0.4941 0.9686);fill-opacity:1;"/>
<path d="M12.1828 12.8132C12.2782 12.8204 12.3158 12.8564 12.3726 12.8568C12.4018 12.8545 12.531 12.8447 12.5636 12.8439C12.5943 12.8431 12.5916 12.8136 12.6223 12.8113C12.6989 12.8018 12.8338 12.8678 12.8823 12.8761C12.8989 12.8784 12.9118 12.8394 12.9175 12.839C12.9236 12.8386 12.9247 12.8814 12.9323 12.8799C12.9459 12.8776 12.9812 12.8628 13.035 12.8481C13.107 12.8291 13.1934 12.7939 13.2726 12.8022C13.337 12.809 13.3878 12.8356 13.423 12.8496C13.4162 12.8545 13.4094 12.8594 13.4025 12.8647C13.4022 12.8651 13.4006 12.8659 13.4014 12.8659C13.4037 12.8651 13.412 12.8613 13.4321 12.8564C13.4351 12.8556 13.4366 12.8553 13.4385 12.8553C13.4393 12.8553 13.4404 12.856 13.4412 12.856C13.4423 12.8553 13.4431 12.8549 13.4442 12.8541C13.4529 12.8519 13.4673 12.8515 13.4757 12.8515C13.4741 12.8515 13.4719 12.8515 13.4688 12.8503C13.4653 12.8496 13.4618 12.8487 13.4582 12.8477C13.4582 12.8477 13.456 12.8469 13.4548 12.8469C13.5522 12.778 13.6356 12.745 13.7295 12.7382C13.8235 12.7314 13.9179 12.7484 14.0372 12.7973C14.0937 12.7973 14.1649 12.8007 14.2108 12.8106C14.2752 12.8231 14.2911 12.8375 14.304 12.8359C14.3851 12.8303 14.4525 12.8466 14.5408 12.8409C14.5715 12.839 14.5901 12.8348 14.6132 12.834C14.653 12.8337 14.7758 12.803 14.8182 12.8022C14.819 12.8022 14.8182 12.7969 14.8182 12.7909C14.8193 12.7909 14.8216 12.7905 14.825 12.7897C14.8262 12.7897 14.8277 12.7897 14.8292 12.7897C14.8353 12.7996 14.8417 12.8094 14.8444 12.8083C14.9145 12.778 14.969 12.687 15.0573 12.676C15.1486 12.6575 15.326 12.7026 15.3957 12.7147C15.3972 12.7147 15.3942 12.7768 15.3938 12.7768C15.4097 12.7765 15.409 12.7245 15.4249 12.7249C15.4942 12.7264 15.581 12.7045 15.6685 12.7033C15.7549 12.7022 15.8406 12.6942 15.9118 12.6916C15.9126 12.6916 15.9088 12.7204 15.9095 12.72C15.9694 12.6942 16.0304 12.6408 16.1066 12.6253C16.171 12.6105 16.2468 12.6908 16.3157 12.6969C16.3877 12.7029 16.4609 12.6491 16.5223 12.648C16.5943 12.6461 16.7269 12.7139 16.7727 12.7272C16.7716 12.7272 16.7701 12.7272 16.7693 12.7272C16.7735 12.7279 16.7735 12.7283 16.7777 12.7279C16.7769 12.7279 16.7754 12.7272 16.7742 12.7272C16.8425 12.7242 16.9448 12.7189 17.0156 12.7158C17.0179 12.7151 17.0209 12.7139 17.0236 12.7128C17.0262 12.7128 17.0285 12.7124 17.0315 12.712C17.0293 12.712 17.027 12.712 17.0247 12.712C17.0831 12.6908 17.2013 12.6416 17.2957 12.6419C17.368 12.6344 17.5268 12.6408 17.5692 12.6476C17.6143 12.6321 17.736 12.6165 17.8171 12.612C17.8769 12.6067 18.0012 12.5718 18.0641 12.5733C18.1285 12.5764 18.2058 12.6453 18.2847 12.6431C18.3608 12.6412 18.4431 12.5696 18.5105 12.5787C18.5829 12.59 18.6579 12.6366 18.7117 12.6567C18.7795 12.6575 18.8375 12.684 18.8974 12.687C18.9398 12.6613 18.977 12.6666 19.0467 12.6378C19.1062 12.6124 19.1899 12.5692 19.2596 12.5745C19.3892 12.5828 19.4442 12.6404 19.5044 12.6537C19.5018 12.6541 19.5059 12.6302 19.5037 12.6302C19.5059 12.6302 19.5056 12.6302 19.5078 12.6302C19.5109 12.6302 19.5105 12.6351 19.5135 12.6351C19.5128 12.6351 19.5105 12.5832 19.5097 12.5828C19.5287 12.5824 19.5575 12.5915 19.5992 12.5862C19.6462 12.5809 19.7075 12.6025 19.7883 12.6029C19.8845 12.604 19.9698 12.6567 20.0221 12.6669C20.0164 12.6696 20.0198 12.6673 20.0137 12.67C20.0258 12.6669 20.0399 12.6707 20.0531 12.6707C20.0505 12.6707 20.0509 12.6715 20.0512 12.6726C20.1528 12.6264 20.2278 12.5445 20.3191 12.5438C20.4123 12.543 20.5056 12.5813 20.6071 12.6328C20.706 12.5889 20.7932 12.5859 20.8826 12.5874C20.969 12.5889 21.0584 12.5987 21.1615 12.6347C21.21 12.6344 21.3153 12.6275 21.3563 12.626C21.3654 12.626 21.3972 12.6711 21.4131 12.6707C21.4578 12.6544 21.6295 12.6052 21.7113 12.6177C21.7958 12.6158 21.9406 12.5775 21.9815 12.5877C22.0535 12.5866 22.1482 12.6165 22.2066 12.6313C22.274 12.5995 22.3468 12.5787 22.4468 12.5673C22.534 12.5548 22.6859 12.5733 22.753 12.5843C22.7829 12.5885 22.7856 12.6567 22.8106 12.6571C22.9046 12.6597 22.9955 12.6143 23.0679 12.6169C23.1024 12.6146 23.2259 12.6317 23.2903 12.6321C23.3627 12.6313 23.415 12.6222 23.4972 12.6181C23.5559 12.6165 23.6249 12.623 23.6844 12.6325C23.7617 12.6446 23.8356 12.6256 23.8977 12.6503C23.911 12.6465 23.9106 12.6423 23.9322 12.6355C23.9618 12.6275 24.0107 12.6609 24.0599 12.6541C24.1039 12.6472 24.1622 12.648 24.2077 12.6529C24.3202 12.6632 24.3619 12.7045 24.4411 12.7098C24.5313 12.7075 24.6829 12.6495 24.7841 12.6704C24.8754 12.6859 24.9292 12.7484 24.9879 12.7772C24.9913 12.7765 24.9951 12.7677 24.9997 12.7567H25.0008C25.0118 12.7583 25.0179 12.7602 25.0205 12.7609C25.0144 12.7579 25.0076 12.7549 25.0016 12.7518C25.0084 12.7344 25.016 12.7139 25.0232 12.7124C25.0804 12.6984 25.1778 12.7306 25.246 12.7336C25.354 12.7367 25.4366 12.7454 25.5366 12.7495C25.6548 12.7579 25.6984 12.8113 25.7742 12.8265C25.7814 12.828 25.7852 12.8166 25.7924 12.8178C25.8034 12.8189 25.8375 12.781 25.8837 12.7753C25.9379 12.7689 26.0141 12.7647 26.0732 12.7674C26.2107 12.7727 26.2088 12.8178 26.3468 12.8238C26.4476 12.8295 26.4983 12.8269 26.5772 12.8382C26.5844 12.8394 26.5991 12.8522 26.6063 12.8503C26.6806 12.8238 26.7587 12.7708 26.8602 12.7689C26.9739 12.7651 27.0679 12.7791 27.1562 12.7965C27.1539 12.7973 27.1512 12.7977 27.1497 12.7984C27.1543 12.7977 27.1599 12.7973 27.1634 12.7977C27.1641 12.7977 27.1649 12.7977 27.1645 12.7977C27.1622 12.7977 27.1596 12.7969 27.1577 12.7962C27.1603 12.7943 27.1607 12.7829 27.1641 12.7814C27.2217 12.7621 27.2952 12.7382 27.3771 12.7317C27.4748 12.7192 27.59 12.8007 27.6662 12.8431C27.67 12.845 27.6738 12.8458 27.6772 12.8458C27.6768 12.8458 27.6761 12.8462 27.6753 12.8466C27.6772 12.8462 27.6791 12.8458 27.6817 12.8454C27.6958 12.842 27.7325 12.8447 27.7454 12.8484C27.7568 12.8515 27.753 12.8503 27.7416 12.8443C27.7302 12.8382 27.7291 12.8344 27.7204 12.8314C27.8109 12.7954 27.9269 12.7711 28.0269 12.7893C28.1383 12.8056 28.2031 12.8238 28.2808 12.8647C28.3032 12.8594 28.332 12.8359 28.3786 12.8268C28.4347 12.8155 28.5279 12.8594 28.595 12.8742C28.6522 12.881 28.7609 12.9095 28.8011 12.9246C28.8 12.9246 28.7984 12.9254 28.7973 12.9254C28.7988 12.9254 28.8011 12.9254 28.803 12.9254C28.806 12.9265 28.8087 12.9276 28.8109 12.9288C28.8284 12.9246 28.864 12.9371 28.9 12.928C28.9447 12.9159 29.0182 12.8651 29.077 12.8693C29.0853 12.87 29.0834 12.897 29.0917 12.8977C29.113 12.8992 29.1277 12.9216 29.1459 12.925C29.2441 12.942 29.2945 12.8901 29.36 12.9011C29.3771 12.9034 29.3702 12.978 29.3873 12.9792C29.4559 12.983 29.4582 12.9379 29.5267 12.9413C29.5533 12.9428 29.5536 12.9803 29.5499 12.9542C29.5309 12.8125 29.5419 12.8121 29.4976 12.6764C29.4532 12.5408 29.4275 12.5491 29.3831 12.4134C29.3388 12.2778 29.3161 12.2854 29.2717 12.1497C29.2274 12.014 29.2497 12.0068 29.2054 11.8716C29.1611 11.7359 29.2028 11.7223 29.1584 11.5866C29.1141 11.451 29.0986 11.4563 29.0542 11.3206C29.0099 11.1849 29.0303 11.1785 28.986 11.0429C28.9417 10.9072 28.8852 10.9258 28.8409 10.7901C28.7965 10.6544 28.8284 10.6442 28.784 10.5086C28.7397 10.3729 28.7791 10.36 28.7348 10.2244C28.7348 10.2244 28.6408 10.1527 28.5915 9.98223C28.5703 9.90871 28.5832 9.80943 28.554 9.7075C28.5309 9.62793 28.4995 9.54153 28.4722 9.44566C28.4483 9.36343 28.4388 9.2706 28.4119 9.17738C28.3877 9.09364 28.3225 9.01709 28.296 8.92501C28.2717 8.84051 28.302 8.73631 28.2755 8.64536C28.2509 8.5601 28.1956 8.48091 28.1694 8.39034C28.1448 8.3047 28.0974 8.22323 28.0713 8.13305C28.0466 8.04703 28.0713 7.94472 28.0451 7.85492C28.0201 7.7689 27.9633 7.69008 27.9375 7.60028C27.9125 7.51388 27.9083 7.4199 27.8822 7.33047C27.8572 7.24408 27.7768 7.17208 27.7507 7.08266C27.7257 6.99588 27.7234 6.90115 27.6976 6.81248C27.6726 6.7257 27.6514 6.63628 27.6257 6.54761C27.6003 6.46083 27.579 6.3714 27.5533 6.28274C27.5279 6.19558 27.4915 6.11108 27.4657 6.02241C27.4404 5.93526 27.4351 5.84166 27.4093 5.75299C27.3839 5.66584 27.3104 5.59195 27.285 5.50328C27.2596 5.41612 27.2554 5.32215 27.2297 5.23348C27.2043 5.14633 27.1865 5.05614 27.1607 4.96785C27.1353 4.88032 27.0777 4.80188 27.0523 4.71359C27.0269 4.62606 27.0626 4.52033 27.0372 4.43204C27.0118 4.34451 26.9417 4.26948 26.9163 4.18119C26.8909 4.09366 26.8515 4.00954 26.8261 3.92163C26.8007 3.83409 26.7685 3.74808 26.7431 3.65979C26.7177 3.57225 26.7537 3.46615 26.728 3.37824C26.7026 3.29071 26.6889 3.19901 26.6632 3.1111C26.6378 3.02318 26.6052 2.93755 26.5798 2.84926C26.554 2.76134 26.5415 2.67002 26.5158 2.58211C26.49 2.4942 26.3903 2.42826 26.3646 2.34035C26.3388 2.25244 26.3684 2.14861 26.343 2.0607C26.3172 1.97279 26.2369 1.90117 26.2111 1.81326C26.1853 1.72535 26.2266 1.61811 26.2013 1.53058C26.1755 1.44267 26.1084 1.36688 26.0827 1.27935C26.0569 1.19144 26.052 1.09746 26.0262 1.00993C26.0004 0.92202 25.9356 0.845476 25.9099 0.758322C25.8841 0.67041 25.8504 0.584773 25.8246 0.49762C25.7988 0.409708 25.8382 0.30247 25.8125 0.215317C25.7867 0.127026 25.739 0.0459356 25.7132 -0.0412188C25.6874 -0.129509 25.6852 -0.224241 25.6594 -0.311396C25.6332 -0.399686 25.5923 -0.48305 25.5669 -0.569825C25.5408 -0.658116 25.5063 -0.743376 25.4805 -0.830529C25.4544 -0.918819 25.4449 -1.01166 25.4191 -1.09843C25.393 -1.18672 25.3146 -1.2591 25.2888 -1.34587C25.2626 -1.43454 25.2812 -1.53534 25.2554 -1.62211C25.2293 -1.71078 25.1475 -1.78202 25.1217 -1.86842C25.0952 -1.95709 25.0944 -2.0522 25.0686 -2.13897C25.0421 -2.22802 25.0474 -2.32465 25.0216 -2.41104C24.9951 -2.50009 24.9947 -2.5952 24.9686 -2.6816C24.9417 -2.77065 24.8898 -2.8506 24.864 -2.93662C24.8371 -3.02605 24.786 -3.106 24.7602 -3.19164C24.7333 -3.28145 24.6893 -3.36367 24.6632 -3.44893C24.6359 -3.53912 24.642 -3.6365 24.6162 -3.721C24.5885 -3.81157 24.5404 -3.89266 24.5146 -3.97678C24.4866 -4.0681 24.4442 -4.15071 24.418 -4.23407C24.3896 -4.32653 24.3544 -4.41141 24.329 -4.49326C24.2994 -4.58762 24.2759 -4.67628 24.2505 -4.75586C24.2187 -4.85476 24.2119 -4.94874 24.1869 -5.02338C24.1584 -5.10902 24.1175 -5.19125 24.0899 -5.27803C24.0622 -5.36404 24.0952 -5.46938 24.0683 -5.55616C24.0414 -5.64256 23.9819 -5.7191 23.9553 -5.80625C23.9292 -5.89303 23.9303 -5.98776 23.9046 -6.07491C23.8788 -6.16207 23.8113 -6.23672 23.786 -6.32349C23.7606 -6.41065 23.7848 -6.5122 23.7598 -6.59897C23.7344 -6.68651 23.6901 -6.76798 23.6651 -6.85437C23.6397 -6.9419 23.5548 -7.01163 23.5294 -7.09802C23.5037 -7.18594 23.5374 -7.29052 23.512 -7.37616C23.4858 -7.46407 23.4392 -7.54478 23.4131 -7.63042C23.3862 -7.71833 23.3957 -7.81647 23.3688 -7.90173C23.3407 -7.98964 23.2577 -8.05823 23.2293 -8.14235C23.1998 -8.23026 23.1854 -8.32083 23.1554 -8.40419C23.124 -8.4921 23.0717 -8.56865 23.0395 -8.6505C23.0054 -8.73803 23.0236 -8.84375 22.9887 -8.92371C22.9508 -9.01048 22.8932 -9.08475 22.8538 -9.16167C22.8102 -9.24731 22.7306 -9.30529 22.6855 -9.37728C22.6336 -9.46027 22.5954 -9.53985 22.5404 -9.60275C22.4749 -9.67815 22.4051 -9.72476 22.3347 -9.76758C22.2524 -9.8176 22.1827 -9.84185 22.0929 -9.84185C22.0107 -9.84185 21.908 -9.86686 21.817 -9.81305C21.7462 -9.77099 21.692 -9.68422 21.617 -9.61487C21.5544 -9.55652 21.476 -9.50309 21.4116 -9.42844C21.3544 -9.36213 21.332 -9.26209 21.2737 -9.18517C21.2202 -9.11431 21.105 -9.08248 21.0516 -9.00366C21.0008 -8.92939 20.9773 -8.83314 20.9269 -8.75357C20.8784 -8.67702 20.8038 -8.61374 20.7557 -8.53303C20.7091 -8.45497 20.7102 -8.34697 20.664 -8.26588C20.6189 -8.18631 20.5859 -8.09916 20.5416 -8.01769C20.4976 -7.93697 20.4222 -7.87256 20.3794 -7.79071C20.3366 -7.70886 20.2653 -7.64103 20.224 -7.55918C20.182 -7.47619 20.2168 -7.3557 20.1767 -7.27385C20.1354 -7.1901 20.0853 -7.11204 20.0463 -7.03019C20.0058 -6.94531 19.9504 -6.86953 19.9125 -6.78806C19.8724 -6.70166 19.8087 -6.62929 19.772 -6.54858C19.7318 -6.46066 19.7394 -6.35608 19.7038 -6.27613C19.6636 -6.18556 19.6026 -6.11167 19.5689 -6.03361C19.5272 -5.93736 19.454 -5.86726 19.4237 -5.79488C19.3555 -5.63384 19.3631 -5.66984 19.3116 -5.54176C19.2828 -5.47014 19.2767 -5.37465 19.2377 -5.27878C19.2066 -5.20224 19.1702 -5.11925 19.1331 -5.02793C19.1013 -4.94911 19.0414 -4.87522 19.0054 -4.78617C18.9732 -4.70622 18.9588 -4.61414 18.9235 -4.52623C18.8909 -4.44552 18.8311 -4.372 18.7958 -4.28485C18.7629 -4.20338 18.7326 -4.11812 18.6973 -4.03135C18.6643 -3.9495 18.6708 -3.84908 18.6359 -3.76269C18.6026 -3.68084 18.545 -3.60619 18.5101 -3.52017C18.4768 -3.43794 18.4635 -3.34548 18.429 -3.25947C18.3957 -3.17686 18.3305 -3.10562 18.2956 -3.01998C18.2623 -2.93738 18.2642 -2.83886 18.2293 -2.75322C18.1956 -2.67061 18.1562 -2.58876 18.1217 -2.5035C18.088 -2.42052 18.0562 -2.33564 18.0217 -2.25038C17.988 -2.16739 17.9618 -2.08024 17.9273 -1.99536C17.8936 -1.91237 17.8728 -1.82295 17.8383 -1.73807C17.8046 -1.65508 17.7833 -1.56565 17.7492 -1.48077C17.7155 -1.39741 17.6799 -1.31404 17.6454 -1.22916C17.6117 -1.1458 17.5022 -1.09237 17.4681 -1.00749C17.4343 -0.924125 17.409 -0.836592 17.3748 -0.751712C17.3411 -0.668347 17.3699 -0.558837 17.3354 -0.474336C17.3017 -0.390971 17.2058 -0.331858 17.1714 -0.247356C17.1376 -0.163992 17.1729 -0.0514498 17.1388 0.0330515C17.1051 0.116416 17.0353 0.186138 17.0012 0.270639C16.9675 0.354383 16.9145 0.430549 16.8803 0.51505C16.8466 0.598793 16.8133 0.682916 16.7792 0.767417C16.7451 0.85116 16.7504 0.950819 16.7159 1.03532C16.6818 1.11906 16.6371 1.19864 16.603 1.28314C16.5689 1.36688 16.5378 1.45214 16.5037 1.53664C16.4696 1.62039 16.4472 1.70906 16.4131 1.79356C16.379 1.8773 16.3203 1.95119 16.2862 2.03569C16.2521 2.11944 16.2184 2.20356 16.1843 2.28806C16.1501 2.37181 16.0702 2.43736 16.0361 2.52186C16.002 2.6056 16.0486 2.72269 16.0145 2.80682C15.9804 2.89094 15.9315 2.96862 15.8974 3.05312C15.8633 3.13724 15.8068 3.21227 15.7727 3.29639C15.7386 3.38052 15.7265 3.47335 15.6924 3.55748C15.6583 3.6416 15.6261 3.72648 15.592 3.8106C15.5579 3.89472 15.5018 3.96975 15.4677 4.05387C15.4336 4.13799 15.3582 4.20507 15.3241 4.28919C15.29 4.37331 15.3203 4.4832 15.2862 4.56732C15.2521 4.65144 15.2199 4.73632 15.1862 4.82007C15.152 4.90419 15.0486 4.95989 15.0145 5.04401C14.9804 5.12814 15.0206 5.2422 14.9865 5.32594C14.9524 5.41006 14.8402 5.46235 14.8061 5.5461C14.772 5.63022 14.7542 5.72078 14.7201 5.80453C14.686 5.88865 14.6488 5.97163 14.6147 6.05538C14.5806 6.1395 14.5552 6.22703 14.5211 6.31078C14.487 6.3949 14.4393 6.47334 14.4052 6.55708C14.3711 6.6412 14.3347 6.72419 14.3006 6.80793C14.2665 6.89206 14.2858 6.99778 14.2517 7.08152C14.2176 7.16564 14.1418 7.23309 14.1081 7.31684C14.074 7.40096 14.0388 7.4847 14.0047 7.56844C13.9705 7.65294 13.9785 7.75374 13.9444 7.83748C13.9103 7.92199 13.8319 7.98792 13.7981 8.07166C13.764 8.15616 13.753 8.24938 13.7189 8.33312C13.6848 8.41763 13.6367 8.49606 13.603 8.57943C13.5689 8.66393 13.581 8.76662 13.5473 8.85036C13.5132 8.93486 13.492 9.02429 13.4582 9.10766C13.4238 9.19216 13.3207 9.24824 13.287 9.3316C13.2525 9.4161 13.2601 9.51728 13.2263 9.60065C13.1918 9.68515 13.1221 9.75487 13.0884 9.83823C13.0539 9.92311 13.0156 10.0053 12.9819 10.0883C12.9474 10.1732 12.9213 10.2604 12.8876 10.3433C12.8531 10.4282 12.7997 10.5044 12.7659 10.5874C12.7314 10.6723 12.7364 10.7719 12.7026 10.8553C12.6682 10.9402 12.6231 11.0197 12.5893 11.1027C12.5549 11.188 12.4886 11.2588 12.4552 11.3418C12.4207 11.4271 12.448 11.5358 12.4143 11.6188C12.3798 11.7041 12.3086 11.773 12.2752 11.8557C12.2404 11.9413 12.2608 12.047 12.2275 12.1296C12.1926 12.2153 12.1396 12.2914 12.1062 12.3737C12.0714 12.4597 12.0308 12.5411 11.9978 12.623C11.963 12.709 11.9137 12.792 11.8804 12.8738C11.969 12.8435 12.0964 12.7992 12.182 12.8128L12.1828 12.8132ZM14.8163 12.7727C14.8163 12.7727 14.8224 12.7799 14.8277 12.7886C14.8258 12.7886 14.8239 12.7893 14.8205 12.7893C14.819 12.7901 14.8182 12.7905 14.8175 12.7909C14.8167 12.7825 14.8156 12.7727 14.8163 12.7723V12.7727Z" fill="#D67EF7" style="fill:#D67EF7;fill:color(display-p3 0.8392 0.4941 0.9686);fill-opacity:1;"/>
<path d="M17.3228 13.3442C17.3228 13.3442 17.3228 13.3768 17.3228 13.3943C17.33 13.3935 17.3341 13.3681 17.3379 13.3651C17.3315 13.3541 17.325 13.3446 17.3228 13.3442Z" fill="#D67EF7" style="fill:#D67EF7;fill:color(display-p3 0.8392 0.4941 0.9686);fill-opacity:1;"/>
<path d="M12.1324 13.381C12.1346 13.3746 12.1361 13.3701 12.1369 13.3701C12.1357 13.3701 12.1301 13.378 12.1324 13.381Z" fill="#D67EF7" style="fill:#D67EF7;fill:color(display-p3 0.8392 0.4941 0.9686);fill-opacity:1;"/>
<path d="M17.3228 13.4C17.3228 13.4 17.3228 13.3967 17.3228 13.394C17.3216 13.394 17.3228 13.397 17.3228 13.4Z" fill="#D67EF7" style="fill:#D67EF7;fill:color(display-p3 0.8392 0.4941 0.9686);fill-opacity:1;"/>
<path d="M17.3228 13.3999C17.3228 13.4026 17.3228 13.4041 17.3228 13.4041C17.3235 13.4041 17.3231 13.4018 17.3228 13.3999Z" fill="#D67EF7" style="fill:#D67EF7;fill:color(display-p3 0.8392 0.4941 0.9686);fill-opacity:1;"/>
</g>
<rect x="0.5" y="0.5" width="39" height="39" rx="8.5" stroke="#D67EF7" style="stroke:#D67EF7;stroke:color(display-p3 0.8392 0.4941 0.9686);stroke-opacity:1;"/>
<path d="M45.632 37.5C45.152 37.5 44.912 37.324 44.912 36.972C44.912 36.684 45.12 36.492 45.536 36.396L46.64 36.204C47.312 36.076 47.744 35.9 47.936 35.676C48.16 35.452 48.272 35.004 48.272 34.332V6.108C48.272 5.436 48.16 4.988 47.936 4.764C47.744 4.54 47.312 4.364 46.64 4.236L45.536 4.044C45.12 3.948 44.912 3.756 44.912 3.468C44.912 3.116 45.152 2.94 45.632 2.94H54.416C54.896 2.94 55.136 3.132 55.136 3.516C55.136 3.804 54.96 3.98 54.608 4.044L53.312 4.236C52.64 4.332 52.192 4.508 51.968 4.764C51.776 5.02 51.68 5.484 51.68 6.156V18.204C51.68 18.652 51.904 18.876 52.352 18.876H61.856C62.304 18.876 62.528 18.652 62.528 18.204V6.156C62.528 5.484 62.416 5.02 62.192 4.764C62 4.508 61.568 4.332 60.896 4.236L59.6 4.044C59.248 3.98 59.072 3.804 59.072 3.516C59.072 3.132 59.312 2.94 59.792 2.94H68.576C69.056 2.94 69.296 3.116 69.296 3.468C69.296 3.756 69.088 3.948 68.672 4.044L67.568 4.236C66.896 4.364 66.448 4.54 66.224 4.764C66.032 4.988 65.936 5.436 65.936 6.108V34.332C65.936 35.004 66.032 35.452 66.224 35.676C66.448 35.9 66.896 36.076 67.568 36.204L68.672 36.396C69.088 36.492 69.296 36.684 69.296 36.972C69.296 37.324 69.056 37.5 68.576 37.5H59.792C59.312 37.5 59.072 37.308 59.072 36.924C59.072 36.636 59.248 36.46 59.6 36.396L60.896 36.204C61.568 36.108 62 35.932 62.192 35.676C62.416 35.42 62.528 34.956 62.528 34.284V20.988C62.528 20.54 62.304 20.316 61.856 20.316H52.352C51.904 20.316 51.68 20.54 51.68 20.988V34.284C51.68 34.956 51.776 35.42 51.968 35.676C52.192 35.932 52.64 36.108 53.312 36.204L54.608 36.396C54.96 36.46 55.136 36.636 55.136 36.924C55.136 37.308 54.896 37.5 54.416 37.5H45.632ZM72.2326 8.46C71.5606 8.46 70.9846 8.22 70.5046 7.74C70.0566 7.26 69.8326 6.652 69.8326 5.916C69.8326 5.18 70.0566 4.588 70.5046 4.14C70.9846 3.66 71.5606 3.42 72.2326 3.42C72.9046 3.42 73.4646 3.66 73.9126 4.14C74.3606 4.588 74.5846 5.18 74.5846 5.916C74.5846 6.652 74.3606 7.26 73.9126 7.74C73.4646 8.22 72.9046 8.46 72.2326 8.46ZM68.2006 37.5C67.7206 37.5 67.4806 37.324 67.4806 36.972C67.4806 36.684 67.6886 36.492 68.1046 36.396L68.6806 36.3C69.4806 36.172 69.9926 35.98 70.2166 35.724C70.4406 35.436 70.5526 34.956 70.5526 34.284V18.156C70.5526 17.58 70.4566 17.196 70.2646 17.004C70.1046 16.78 69.8006 16.636 69.3526 16.572L68.3446 16.428C67.9286 16.396 67.7206 16.22 67.7206 15.9C67.7206 15.644 67.9766 15.468 68.4886 15.372C69.4806 15.212 70.2806 14.956 70.8886 14.604C71.4966 14.252 72.0886 13.82 72.6646 13.308C72.9526 13.02 73.1926 12.876 73.3846 12.876C73.6726 12.876 73.8166 13.068 73.8166 13.452V34.284C73.8166 34.956 73.9126 35.436 74.1046 35.724C74.2966 36.012 74.6646 36.188 75.2086 36.252L76.4086 36.396C76.7606 36.46 76.9366 36.636 76.9366 36.924C76.9366 37.308 76.6966 37.5 76.2166 37.5H68.2006ZM81.6241 37.932C80.5041 37.932 79.5761 37.548 78.8401 36.78C78.1361 35.98 77.7841 34.684 77.7841 32.892V14.94C77.7841 14.556 77.5921 14.364 77.2081 14.364H75.8161C75.3041 14.364 75.0481 14.172 75.0481 13.788C75.0481 13.532 75.1921 13.308 75.4801 13.116C76.5361 12.38 77.3841 11.596 78.0241 10.764C78.6641 9.9 79.2241 8.732 79.7041 7.26C79.9281 6.588 80.2001 6.252 80.5201 6.252C80.8721 6.252 81.0481 6.508 81.0481 7.02V12.348C81.0481 12.796 81.2721 13.02 81.7201 13.02H84.8401C85.3521 13.02 85.6081 13.244 85.6081 13.692C85.6081 14.14 85.3521 14.364 84.8401 14.364H81.7201C81.2721 14.364 81.0481 14.588 81.0481 15.036V32.94C81.0481 33.644 81.1601 34.204 81.3841 34.62C81.6081 35.004 82.0241 35.196 82.6321 35.196C83.3041 35.196 83.8481 34.86 84.2641 34.188C84.7121 33.516 85.0001 32.428 85.1281 30.924C85.1921 30.476 85.4001 30.252 85.7521 30.252C86.1361 30.252 86.3281 30.492 86.3281 30.972C86.2321 33.436 85.7201 35.212 84.7921 36.3C83.8961 37.388 82.8401 37.932 81.6241 37.932ZM90.398 37.932C89.662 37.932 88.878 37.836 88.046 37.644C87.214 37.484 86.542 37.276 86.03 37.02C85.742 36.86 85.598 36.588 85.598 36.204L85.454 30.828C85.454 30.284 85.662 30.012 86.078 30.012C86.43 30.012 86.67 30.268 86.798 30.78C87.342 33.052 87.998 34.604 88.766 35.436C89.566 36.268 90.526 36.684 91.646 36.684C92.574 36.684 93.342 36.332 93.95 35.628C94.558 34.892 94.862 33.884 94.862 32.604C94.862 31.324 94.51 30.188 93.806 29.196C93.102 28.204 91.918 27.116 90.254 25.932C88.59 24.812 87.374 23.692 86.606 22.572C85.838 21.42 85.454 20.172 85.454 18.828C85.454 17.004 86.094 15.532 87.374 14.412C88.654 13.292 90.35 12.732 92.462 12.732C93.102 12.732 93.726 12.812 94.334 12.972C94.942 13.1 95.486 13.324 95.966 13.644C96.254 13.836 96.398 14.092 96.398 14.412L96.494 19.692C96.494 20.172 96.302 20.412 95.918 20.412C95.694 20.412 95.534 20.348 95.438 20.22C95.342 20.06 95.262 19.868 95.198 19.644C94.558 17.564 93.918 16.124 93.278 15.324C92.638 14.492 91.854 14.076 90.926 14.076C90.094 14.076 89.406 14.364 88.862 14.94C88.318 15.516 88.046 16.236 88.046 17.1C88.046 18.22 88.382 19.196 89.054 20.028C89.726 20.86 90.942 21.884 92.702 23.1C94.302 24.252 95.502 25.5 96.302 26.844C97.134 28.156 97.55 29.596 97.55 31.164C97.55 33.212 96.894 34.86 95.582 36.108C94.27 37.324 92.542 37.932 90.398 37.932Z" fill="#D67EF7" style="fill:#D67EF7;fill:color(display-p3 0.8392 0.4941 0.9686);fill-opacity:1;"/>
<defs>
<clipPath id="clip0_650_9449">
<rect width="40" height="40" rx="9" fill="white" style="fill:white;fill-opacity:1;"/>
</clipPath>
</defs>
</svg>
