<svg width="23" height="24" viewBox="0 0 23 24" fill="none" xmlns="http://www.w3.org/2000/svg">
<path d="M14.3167 10.9967L16.1527 8.00595L21.1014 15.4053L21.1037 16.8254L21.0876 7.05372C21.0759 6.81478 20.9438 6.59622 20.733 6.46729L11.8234 1.54755C11.6151 1.4492 11.3507 1.45038 11.1427 1.55065C11.1146 1.56424 11.0883 1.57886 11.063 1.59496L11.032 1.61371L2.38373 6.42476L2.3502 6.43953C2.30697 6.45843 2.26344 6.4828 2.22237 6.51086C2.05838 6.62368 1.94947 6.79071 1.91424 6.97782C1.90901 7.00617 1.90501 7.03512 1.90332 7.06436L1.91686 15.0273L6.5264 8.16869C7.10665 7.25929 8.37115 6.96615 9.54503 6.98225L10.9226 7.0171L2.80539 19.514L3.76221 20.0429L11.9766 7.0298L15.6075 7.0171L7.41432 20.3586L10.8286 22.244L11.2366 22.4691C11.4092 22.5364 11.6125 22.5398 11.7865 22.4794L20.8213 17.4531L19.0939 18.414L14.3167 10.9967ZM15.0171 20.6822L11.5687 15.4861L13.6739 12.0568L18.2028 18.9097L15.0171 20.6822Z" fill="#2D374B" style="fill:#2D374B;fill:color(display-p3 0.1765 0.2157 0.2941);fill-opacity:1;"/>
<path d="M11.5684 15.486L15.0169 20.682L18.2025 18.9097L13.6735 12.0566L11.5684 15.486Z" fill="#28A0F0" style="fill:#28A0F0;fill:color(display-p3 0.1569 0.6275 0.9412);fill-opacity:1;"/>
<path d="M21.1044 16.8253L21.1021 15.4053L16.1534 8.00586L14.3174 10.9966L19.0948 18.4139L20.8221 17.4529C20.9915 17.3209 21.0941 17.127 21.1049 16.9179L21.1044 16.8253Z" fill="#28A0F0" style="fill:#28A0F0;fill:color(display-p3 0.1569 0.6275 0.9412);fill-opacity:1;"/>
<path d="M0.366211 18.1645L2.80551 19.5138L10.9227 7.01691L9.54515 6.98206C8.37142 6.96611 7.10693 7.2591 6.52652 8.1685L1.91698 15.0271L0.366211 17.3145V18.1645Z" fill="white" style="fill:white;fill-opacity:1;"/>
<path d="M15.607 7.01709L11.9761 7.02979L3.76172 20.0429L6.63297 21.6298L7.41367 20.3586L15.607 7.01709Z" fill="white" style="fill:white;fill-opacity:1;"/>
<path d="M22.6339 6.99904C22.6035 6.2701 22.1924 5.60289 21.5484 5.21435L12.5221 0.231116C11.8851 -0.0767924 11.0893 -0.0772354 10.4511 0.230968C10.3757 0.267445 1.67316 5.11275 1.67316 5.11275C1.55271 5.16813 1.43672 5.23414 1.32765 5.30916C0.752788 5.70479 0.402361 6.31943 0.366211 6.99461V17.3148L1.91698 15.0274L1.90344 7.06431C1.90529 7.03522 1.90913 7.00642 1.91437 6.97822C1.94944 6.79081 2.0585 6.62379 2.22249 6.51082C2.26356 6.48276 11.1145 1.5642 11.1427 1.55062C11.3508 1.45034 11.6151 1.44916 11.8234 1.54752L20.733 6.46725C20.9437 6.59617 21.0759 6.81474 21.0875 7.05368V16.9178C21.0768 17.1269 20.9906 17.3208 20.8213 17.4529L19.0939 18.4138L18.2026 18.9097L15.0171 20.682L11.7865 22.4792C11.6125 22.5396 11.409 22.5362 11.2365 22.4689L7.41428 20.3584L6.63344 21.6296L10.0685 23.5282C10.182 23.5902 10.2832 23.6451 10.3663 23.69C10.4949 23.7593 10.5826 23.8055 10.6135 23.82C10.8576 23.9338 11.2088 24 11.5254 24C11.8155 24 12.0986 23.9489 12.3664 23.8482L21.7499 18.6315C22.2885 18.2308 22.6054 17.6267 22.6339 16.9723V6.99904Z" fill="#96BEDC" style="fill:#96BEDC;fill:color(display-p3 0.5882 0.7451 0.8627);fill-opacity:1;"/>
</svg>
