<svg width="24" height="24" viewBox="0 0 24 24" fill="none" xmlns="http://www.w3.org/2000/svg">
<path d="M12 24C18.6274 24 24 18.6274 24 12C24 5.37258 18.6274 0 12 0C5.37258 0 0 5.37258 0 12C0 18.6274 5.37258 24 12 24Z" fill="#F0B90B" style="fill:#F0B90B;fill:color(display-p3 0.9412 0.7255 0.0431);fill-opacity:1;"/>
<path d="M17.5332 15.4702L12.001 21.0024L6.46875 15.4702L8.50488 13.4399L12.001 16.9351L15.5 13.436L17.5332 15.4702ZM14.0645 12.0015L12.001 14.0688L9.93652 12.0054V11.9985L10.2988 11.6362L10.4756 11.4624L12.001 9.93799L14.0645 12.0015ZM21 12.0024L18.9668 14.0356L16.9336 12.0024L18.9668 9.96924L21 12.0024ZM7.06641 12.0015L5.0332 14.0347L3 12.0015L5.0332 9.96729L7.06641 12.0015ZM17.5332 8.53271L15.5 10.5669L12.001 7.06787L8.50488 10.564L6.47168 8.52979L12.001 3.00049L17.5332 8.53271Z" fill="white" style="fill:white;fill-opacity:1;"/>
</svg>
