<svg width="24" height="24" viewBox="0 0 24 24" fill="none" xmlns="http://www.w3.org/2000/svg">
    <g clip-path="url(#clip0_301_17292)">
        <path d="M12 24C18.6274 24 24 18.6274 24 12C24 5.37258 18.6274 0 12 0C5.37258 0 0 5.37258 0 12C0 18.6274 5.37258 24 12 24Z" fill="white" style="fill:white;fill-opacity:1;"/>
        <path d="M14.3572 12.5962H10.209V20.2671H14.3572V12.5962Z" fill="#FF5F00" style="fill:#FF5F00;fill:color(display-p3 1.0000 0.3725 0.0000);fill-opacity:1;"/>
        <path d="M10.4725 16.4318C10.4725 14.8732 11.1837 13.4908 12.2767 12.5963C11.4734 11.9458 10.4594 11.5527 9.35316 11.5527C6.73252 11.5527 4.6123 13.7347 4.6123 16.4318C4.6123 19.1288 6.73252 21.3108 9.35316 21.3108C10.4594 21.3108 11.4734 20.9178 12.2767 20.2672C11.1837 19.3863 10.4725 17.9903 10.4725 16.4318Z" fill="#EB001B" style="fill:#EB001B;fill:color(display-p3 0.9216 0.0000 0.1059);fill-opacity:1;"/>
        <path d="M19.9544 16.4318C19.9544 19.1288 17.8342 21.3108 15.2136 21.3108C14.1074 21.3108 13.0934 20.9178 12.29 20.2672C13.3962 19.3727 14.0942 17.9903 14.0942 16.4318C14.0942 14.8732 13.3831 13.4908 12.29 12.5963C13.0934 11.9458 14.1074 11.5527 15.2136 11.5527C17.8342 11.5527 19.9544 13.7483 19.9544 16.4318Z" fill="#F79E1B" style="fill:#F79E1B;fill:color(display-p3 0.9686 0.6196 0.1059);fill-opacity:1;"/>
        <path d="M11.7362 6.63655C11.7265 7.34958 12.4133 7.74751 12.9307 7.98408C13.4623 8.22683 13.6408 8.38248 13.6388 8.59954C13.6348 8.93178 13.2148 9.07838 12.8217 9.08409C12.1359 9.09409 11.7372 8.91036 11.4202 8.77137L11.1731 9.85615C11.4912 9.99371 12.0801 10.1137 12.6908 10.1189C14.1242 10.1189 15.0621 9.45489 15.0672 8.42532C15.0728 7.11873 13.1412 7.04638 13.1544 6.46234C13.159 6.28527 13.339 6.0963 13.7337 6.04823C13.929 6.02395 14.4681 6.00539 15.0794 6.26956L15.3193 5.22C14.9906 5.10767 14.5681 5.0001 14.0421 5.0001C12.6928 5.0001 11.7438 5.67315 11.7362 6.63655ZM17.6247 5.09053C17.363 5.09053 17.1423 5.23381 17.0439 5.45371L14.9962 10.0418H16.4286L16.7137 9.30257H18.4642L18.6295 10.0418H19.892L18.7903 5.09053H17.6247ZM17.825 6.42807L18.2384 8.28729H17.1063L17.825 6.42807ZM9.99938 5.09053L8.87027 10.0418H10.2352L11.3638 5.09053H9.99938ZM7.98006 5.09053L6.55929 8.46055L5.98459 5.59508C5.91713 5.27522 5.65083 5.09053 5.35511 5.09053H3.03246L3 5.23428C3.4768 5.33139 4.01853 5.48799 4.34672 5.65553C4.54758 5.75787 4.6049 5.84736 4.67084 6.09059L5.75938 10.0418H7.20196L9.41352 5.09053H7.98006Z" fill="#25459A" style="fill:#25459A;fill:color(display-p3 0.1451 0.2706 0.6039);fill-opacity:1;"/>
    </g>
    <defs>
        <clipPath id="clip0_301_17292">
            <rect width="24" height="24" fill="white" style="fill:white;fill-opacity:1;"/>
        </clipPath>
    </defs>
</svg>
