<svg width="25" height="24" viewBox="0 0 25 24" fill="none" xmlns="http://www.w3.org/2000/svg">
<path d="M12.5 24C19.4036 24 25 18.6274 25 12C25 5.37258 19.4036 0 12.5 0C5.59644 0 0 5.37258 0 12C0 18.6274 5.59644 24 12.5 24Z" fill="#627EEA" style="fill:#627EEA;fill:color(display-p3 0.3843 0.4941 0.9176);fill-opacity:1;"/>
<path d="M12.8887 3V9.6525L18.7457 12.165L12.8887 3Z" fill="white" fill-opacity="0.602" style="fill:white;fill-opacity:0.602;"/>
<path d="M12.8891 3L7.03125 12.165L12.8891 9.6525V3Z" fill="white" style="fill:white;fill-opacity:1;"/>
<path d="M12.8887 16.4762V20.9964L18.7496 13.2122L12.8887 16.4762Z" fill="white" fill-opacity="0.602" style="fill:white;fill-opacity:0.602;"/>
<path d="M12.8891 20.9964V16.4754L7.03125 13.2122L12.8891 20.9964Z" fill="white" style="fill:white;fill-opacity:1;"/>
<path d="M12.8887 15.4298L18.7457 12.1651L12.8887 9.65405V15.4298Z" fill="white" fill-opacity="0.2" style="fill:white;fill-opacity:0.2;"/>
<path d="M7.03125 12.1651L12.8891 15.4298V9.65405L7.03125 12.1651Z" fill="white" fill-opacity="0.602" style="fill:white;fill-opacity:0.602;"/>
</svg>
