<svg width="24" height="24" viewBox="0 0 24 24" fill="none" xmlns="http://www.w3.org/2000/svg">
<path d="M12 24C18.6274 24 24 18.6274 24 12C24 5.37258 18.6274 0 12 0C5.37258 0 0 5.37258 0 12C0 18.6274 5.37258 24 12 24Z" fill="#6210EC" style="fill:#6210EC;fill:color(display-p3 0.3843 0.0627 0.9255);fill-opacity:1;"/>
<path d="M15.8192 14.416C15.5424 14.5791 15.1826 14.5791 14.8782 14.416L12.7195 13.1655L11.2527 12.35L9.09409 11.0995C8.81734 10.9364 8.45756 10.9364 8.15313 11.0995L6.43727 12.0782C6.16051 12.2413 5.96679 12.5403 5.96679 12.8665V14.7966C5.96679 15.1228 6.13284 15.4219 6.43727 15.585L8.12546 16.5364C8.40221 16.6996 8.76199 16.6996 9.06642 16.5364L10.7546 15.585C11.0313 15.4219 11.2251 15.1228 11.2251 14.7966V13.5461L12.6919 14.3888V15.6393C12.6919 15.9656 12.5258 16.2646 12.2214 16.4277L9.09409 18.2219C8.81734 18.385 8.45756 18.385 8.15313 18.2219L4.97048 16.4277C4.66605 16.2646 4.5 15.9656 4.5 15.6393V12.0238C4.5 11.6975 4.66605 11.3985 4.97048 11.2354L8.15313 9.44119C8.42988 9.27809 8.78967 9.27809 9.09409 9.44119L11.2527 10.6645L12.7195 11.5072L14.8782 12.7306C15.155 12.8937 15.5147 12.8937 15.8192 12.7306L17.5074 11.7791C17.7841 11.616 17.9778 11.3169 17.9778 10.9907V9.06064C17.9778 8.73437 17.8118 8.43537 17.5074 8.27227L15.8192 7.29359C15.5424 7.13049 15.1826 7.13049 14.8782 7.29359L13.1901 8.24506C12.9133 8.40817 12.7195 8.70723 12.7195 9.03343V10.2839L11.2527 9.44119V8.19072C11.2527 7.86451 11.4188 7.56545 11.7232 7.40234L14.9059 5.60815C15.1826 5.44505 15.5424 5.44505 15.8468 5.60815L19.0295 7.40234C19.3063 7.56545 19.5 7.86451 19.5 8.19072V11.8063C19.5 12.1325 19.3339 12.4315 19.0295 12.5946L15.8192 14.416Z" fill="white" style="fill:white;fill-opacity:1;"/>
</svg>
