<svg width="25" height="24" viewBox="0 0 25 24" fill="none" xmlns="http://www.w3.org/2000/svg">
    <ellipse cx="12.5" cy="12" rx="12.5" ry="12" fill="black" style="fill:black;fill-opacity:1;"/>
    <g clip-path="url(#clip0_301_17283)">
        <path d="M18.6856 15.192L16.6221 17.2846C16.5773 17.3301 16.523 17.3663 16.4627 17.3911C16.4024 17.4159 16.3373 17.4286 16.2716 17.4286H6.48956C6.44288 17.4286 6.39722 17.4157 6.35819 17.3915C6.31916 17.3673 6.28846 17.3329 6.26985 17.2924C6.25125 17.2519 6.24555 17.2072 6.25347 17.1637C6.26139 17.1202 6.28257 17.0798 6.31441 17.0475L8.37947 14.9549C8.42421 14.9096 8.4783 14.8734 8.53842 14.8486C8.59854 14.8239 8.66339 14.811 8.72897 14.8109H18.5104C18.5571 14.8109 18.6028 14.8238 18.6418 14.848C18.6808 14.8722 18.7115 14.9067 18.7302 14.9472C18.7488 14.9876 18.7545 15.0324 18.7465 15.0759C18.7386 15.1194 18.7175 15.1597 18.6856 15.192ZM16.6221 10.978C16.5773 10.9326 16.523 10.8963 16.4627 10.8715C16.4024 10.8468 16.3373 10.834 16.2716 10.8341H6.48956C6.44288 10.8341 6.39722 10.8469 6.35819 10.8711C6.31916 10.8954 6.28846 10.9298 6.26985 10.9703C6.25125 11.0108 6.24555 11.0555 6.25347 11.099C6.26139 11.1425 6.28257 11.1829 6.31441 11.2151L8.37947 13.3078C8.42421 13.3531 8.4783 13.3893 8.53842 13.414C8.59854 13.4388 8.66339 13.4516 8.72897 13.4517H18.5104C18.5571 13.4517 18.6028 13.4388 18.6418 13.4146C18.6808 13.3904 18.7115 13.356 18.7302 13.3155C18.7488 13.275 18.7545 13.2303 18.7465 13.1868C18.7386 13.1433 18.7175 13.1029 18.6856 13.0707L16.6221 10.978ZM6.48956 9.47487H16.2716C16.3373 9.47489 16.4024 9.46213 16.4627 9.43736C16.523 9.41259 16.5773 9.37635 16.6221 9.33089L18.6856 7.23825C18.7175 7.20598 18.7386 7.16562 18.7465 7.12212C18.7545 7.07863 18.7488 7.03389 18.7302 6.99341C18.7115 6.95294 18.6808 6.91848 18.6418 6.89428C18.6028 6.87007 18.5571 6.85718 18.5104 6.85718H8.72897C8.66339 6.85728 8.59854 6.87012 8.53842 6.89488C8.4783 6.91965 8.42421 6.95581 8.37947 7.00115L6.31494 9.09379C6.28313 9.12602 6.26196 9.16635 6.25402 9.20979C6.24609 9.25324 6.25174 9.29794 6.27028 9.3384C6.28882 9.37886 6.31944 9.41331 6.35839 9.43756C6.39734 9.4618 6.44293 9.47476 6.48956 9.47487Z" fill="url(#paint0_linear_301_17283)" style=""/>
    </g>
    <defs>
        <linearGradient id="paint0_linear_301_17283" x1="7.30515" y1="17.6806" x2="16.9259" y2="6.21122" gradientUnits="userSpaceOnUse">
            <stop offset="0.08" stop-color="#9945FF" style="stop-color:#9945FF;stop-color:color(display-p3 0.6000 0.2706 1.0000);stop-opacity:1;"/>
            <stop offset="0.3" stop-color="#8752F3" style="stop-color:#8752F3;stop-color:color(display-p3 0.5294 0.3216 0.9529);stop-opacity:1;"/>
            <stop offset="0.5" stop-color="#5497D5" style="stop-color:#5497D5;stop-color:color(display-p3 0.3294 0.5922 0.8353);stop-opacity:1;"/>
            <stop offset="0.6" stop-color="#43B4CA" style="stop-color:#43B4CA;stop-color:color(display-p3 0.2627 0.7059 0.7922);stop-opacity:1;"/>
            <stop offset="0.72" stop-color="#28E0B9" style="stop-color:#28E0B9;stop-color:color(display-p3 0.1569 0.8784 0.7255);stop-opacity:1;"/>
            <stop offset="0.97" stop-color="#19FB9B" style="stop-color:#19FB9B;stop-color:color(display-p3 0.0980 0.9843 0.6078);stop-opacity:1;"/>
        </linearGradient>
        <clipPath id="clip0_301_17283">
            <rect width="12.5" height="10.5714" fill="white" style="fill:white;fill-opacity:1;" transform="translate(6.25 6.85718)"/>
        </clipPath>
    </defs>
</svg>
