<svg width="25" height="24" viewBox="0 0 25 24" fill="none" xmlns="http://www.w3.org/2000/svg">
<path d="M12.5 24C19.4036 24 25 18.6274 25 12C25 5.37258 19.4036 0 12.5 0C5.59644 0 0 5.37258 0 12C0 18.6274 5.59644 24 12.5 24Z" fill="#0098EA" style="fill:#0098EA;fill:color(display-p3 0.0000 0.5961 0.9176);fill-opacity:1;"/>
<path d="M17.7107 6H8.55587C6.88702 6 5.83804 7.81189 6.64862 9.29001L12.275 19.0647C12.6565 19.6845 13.5624 19.6845 13.9439 19.0647L19.5702 9.29001C20.4285 7.81189 19.3795 6 17.7107 6ZM12.3227 16.1084L11.083 13.7244L8.12674 8.43174C7.93601 8.09798 8.17442 7.66884 8.60355 7.66884H12.3227V16.1084ZM18.1398 8.43174L15.1836 13.7244L13.9439 16.1084V7.66884H17.663C18.0921 7.66884 18.3305 8.09798 18.1398 8.43174Z" fill="white" style="fill:white;fill-opacity:1;"/>
</svg>
