<svg width="25" height="24" viewBox="0 0 25 24" fill="none" xmlns="http://www.w3.org/2000/svg">
<path d="M12.5 24C19.4036 24 25 18.6274 25 12C25 5.37258 19.4036 0 12.5 0C5.59644 0 0 5.37258 0 12C0 18.6274 5.59644 24 12.5 24Z" fill="#EF0027" style="fill:#EF0027;fill:color(display-p3 0.9373 0.0000 0.1529);fill-opacity:1;"/>
<path d="M18.0967 7.60464L5.85938 5.44263L12.2994 21L21.273 10.5041L18.0967 7.60464ZM17.9 8.55703L19.7722 10.2656L14.6524 11.1554L17.9 8.55703ZM13.5399 10.9771L8.14369 6.68074L16.9638 8.23875L13.5399 10.9771ZM13.1558 11.7374L12.2756 18.7216L7.53149 7.25787L13.1558 11.7366V11.7374ZM13.9698 12.1077L19.6399 11.1228L13.1363 18.7281L13.9698 12.1077Z" fill="white" style="fill:white;fill-opacity:1;"/>
</svg>
