<svg width="24" height="24" viewBox="0 0 24 24" fill="none" xmlns="http://www.w3.org/2000/svg">
    <path d="M12 24C18.6274 24 24 18.6274 24 12C24 5.37259 18.6274 0 12 0C5.37259 0 0 5.37259 0 12C0 18.6274 5.37259 24 12 24Z" fill="#4A60F6" style="fill:#4A60F6;fill:color(display-p3 0.2902 0.3765 0.9647);fill-opacity:1;"/>
    <g clip-path="url(#clip0_325_1813)">
        <path d="M5.18879 16.0555C5.38116 16.5805 5.61593 17.1136 5.90287 17.6272C7.56744 16.3897 9.62654 15.6561 11.8552 15.6561C14.0839 15.6561 16.143 16.3881 17.8075 17.6272C18.0945 17.1136 18.3292 16.5805 18.5216 16.0555C16.6304 14.7366 14.3317 13.9638 11.8552 13.9638C9.37873 13.9638 7.0816 14.7382 5.18879 16.0555Z" fill="white" style="fill:white;fill-opacity:1;"/>
        <path d="M6.86966 19.0178L8.16252 20.1705C9.21734 19.458 10.489 19.0423 11.8568 19.0423C13.2247 19.0423 14.4963 19.458 15.5512 20.1705L16.844 19.0178C15.455 17.9712 13.7268 17.35 11.8568 17.35C9.98686 17.35 8.26034 17.9712 6.86966 19.0178Z" fill="white" style="fill:white;fill-opacity:1;"/>
        <path d="M19.4769 10.2939C19.0628 10.2939 18.727 10.6298 18.727 11.0439C18.727 11.1547 18.7514 11.2591 18.7954 11.3553L17.4732 11.9927L16.6662 8.42557C17.0005 8.35057 17.2515 8.05222 17.2515 7.69518C17.2515 7.28107 16.9157 6.94523 16.5016 6.94523C16.0875 6.94523 15.7516 7.28107 15.7516 7.69518C15.7516 7.89897 15.8331 8.0832 15.9652 8.21851L13.9534 10.1814L12.1502 5.95399C12.4176 5.83986 12.6067 5.57412 12.6067 5.26436C12.6067 4.85025 12.2709 4.5144 11.8568 4.5144C11.4427 4.5144 11.1068 4.85025 11.1068 5.26436C11.1068 5.57412 11.2943 5.83986 11.5633 5.95399L9.76016 10.1814L7.76138 8.23156C7.89995 8.09624 7.98636 7.90549 7.98636 7.69681C7.98636 7.2827 7.65051 6.94686 7.23641 6.94686C6.82231 6.94686 6.48646 7.2827 6.48646 7.69681C6.48646 8.0457 6.72612 8.33916 7.04892 8.42231L6.24028 11.996L4.91971 11.3585C4.9621 11.264 4.98818 11.1596 4.98818 11.0488C4.98818 10.6347 4.65234 10.2988 4.23823 10.2988C3.82413 10.2988 3.48828 10.6347 3.48828 11.0488C3.48828 11.4629 3.82413 11.7987 4.23823 11.7987C4.26921 11.7987 4.30019 11.7955 4.32953 11.7922L4.64255 14.3909C6.72612 13.0508 9.20259 12.2748 11.8584 12.2748C14.5142 12.2748 16.9923 13.0524 19.0742 14.3909L19.3873 11.7922C19.4166 11.7955 19.4476 11.7987 19.4786 11.7987C19.8927 11.7987 20.2285 11.4629 20.2285 11.0488C20.2285 10.6347 19.8927 10.2988 19.4786 10.2988L19.4769 10.2939Z" fill="white" style="fill:white;fill-opacity:1;"/>
    </g>
    <defs>
        <clipPath id="clip0_325_1813">
            <rect width="18" height="16.4572" fill="white" style="fill:white;fill-opacity:1;" transform="translate(3 4)"/>
        </clipPath>
    </defs>
</svg>
